<?xml version="1.0" encoding="utf-8"?><svg viewBox="0 0 41 41" xmlns="http://www.w3.org/2000/svg" xmlns:xlink="http://www.w3.org/1999/xlink"><style>:root>svg{display:none}:root>svg:target{display:block}</style><svg fill="none" viewBox="0 0 41 41" id="3d" xmlns="http://www.w3.org/2000/svg"><g clip-path="url(#aclip0_257_2592)" fill="#fff"><path d="M34.457 18.548v2.591c2.536 1.268 4.01 2.836 4.01 4.392 0 3.567-7.176 6.368-14.275 6.959a1.176 1.176 0 10.194 2.346c6.18-.509 16.435-3.175 16.435-9.305 0-3.347-3.276-5.65-6.364-6.983zm-20.81 9.944a1.178 1.178 0 00-1.99.574l-.52 2.382C3.345 29.35-.396 24.84 7.01 21.139v-2.59c-9.717 4.191-8.192 12.064 3.625 15.202l-.467 2.142c-.2.918.71 1.694 1.587 1.343l5.885-2.354a1.178 1.178 0 00.402-1.917l-4.394-4.473zM21.25 3.399a1.177 1.177 0 00-1.17.005l-9.54 5.508 10.191 5.884 10.196-5.913-9.677-5.484z"/><path d="M9.363 21.968a1.177 1.177 0 00.588 1.02l9.605 5.545V16.836L9.363 10.951v11.017zm22.74 0V10.922L21.91 16.834v11.699l9.605-5.546a1.177 1.177 0 00.588-1.019z"/></g><defs><clipPath id="aclip0_257_2592"><path fill="#fff" transform="translate(.631 .19)" d="M0 0h40.19v40.19H0z"/></clipPath></defs></svg><svg fill="none" viewBox="0 0 7 12" id="arrow" xmlns="http://www.w3.org/2000/svg"><path d="M1.795.527L6.62 5.564c.106.131.185.29.185.448 0 .158-.08.316-.185.422L1.795 11.47a.63.63 0 01-.897.026c-.263-.237-.263-.633-.026-.896l4.43-4.615-4.43-4.587A.63.63 0 01.898.5a.63.63 0 01.897.026z" fill="#2EB4FF"/></svg><svg fill="none" viewBox="0 0 22 18" id="bed" xmlns="http://www.w3.org/2000/svg"><path d="M19 .5H3a3 3 0 00-3 3v13a1 1 0 001 1h4a1 1 0 00.83-.45l1.71-2.55h6.92l1.71 2.55a1 1 0 00.83.45h4a1 1 0 001-1v-13a3 3 0 00-3-3zm1 15h-2.46L15.83 13a.999.999 0 00-.83-.5H7a1 1 0 00-.83.45L4.46 15.5H2v-5h18v5zm-14-7v-1a1 1 0 011-1h2a1 1 0 011 1v1H6zm6 0v-1a1 1 0 011-1h2a1 1 0 011 1v1h-4zm8 0h-2v-1a3 3 0 00-3-3h-2a3 3 0 00-2 .78 3 3 0 00-2-.78H7a3 3 0 00-3 3v1H2v-5a1 1 0 011-1h16a1 1 0 011 1v5z" fill="#192040"/></svg><svg fill="none" viewBox="0 0 20 22" id="cold" xmlns="http://www.w3.org/2000/svg"><path d="M19.16 15.13l-2-1.15.89-.24a1.001 1.001 0 00-.123-1.969 1 1 0 00-.397.039l-2.82.76L12 11l2.71-1.57 2.82.76h.26a1.008 1.008 0 10.26-2L17.16 8l2-1.15a1.005 1.005 0 00.112-1.665 1.004 1.004 0 00-1.112-.075L16 6.37l.3-1.11a1 1 0 10-1.93-.52l-.82 3L11 9.27V6.14l2.07-2.07a1 1 0 10-1.42-1.41l-.65.65V1a1 1 0 00-2 0v2.47l-.81-.81a1 1 0 10-1.42 1.41L9 6.3v3L6.43 7.78l-.82-3a1 1 0 10-1.93.52L4 6.37 1.84 5.13a1.003 1.003 0 10-1 1.74l2 1.13-.84.26a1.008 1.008 0 00.26 2h.26l2.82-.76L8 11l-2.71 1.57-2.82-.76A1 1 0 102 13.74l.89.24-2 1.15a1.003 1.003 0 101 1.74L4 15.63l-.3 1.11A1 1 0 004.39 18c.086.01.174.01.26 0a1 1 0 001-.74l.82-3L9 12.73v3.13l-2.07 2.07a1 1 0 000 1.41 1 1 0 00.71.3.999.999 0 00.71-.3l.65-.65V21a1 1 0 102 0v-2.47l.81.81a1.002 1.002 0 001.71-.705 1 1 0 00-.29-.705L11 15.7v-3l2.57 1.49.82 3a1 1 0 001 .74c.086.01.174.01.26 0a.998.998 0 00.71-1.23L16 15.63l2.14 1.24a1.002 1.002 0 001.495-.741 1.001 1.001 0 00-.495-.999h.02z" fill="#192040"/></svg><svg fill="none" viewBox="0 0 20 18" id="computer" xmlns="http://www.w3.org/2000/svg"><path d="M17 0H3a3 3 0 00-3 3v8a3 3 0 003 3h6v2H5a1 1 0 000 2h10a1 1 0 000-2h-4v-2h6a3 3 0 003-3V3a3 3 0 00-3-3zm1 11a1 1 0 01-1 1H3a1 1 0 01-1-1V3a1 1 0 011-1h14a1 1 0 011 1v8z" fill="#192040"/></svg><svg fill="none" viewBox="0 0 20 18" id="cup" xmlns="http://www.w3.org/2000/svg"><path d="M7 14h4a5 5 0 005-5V8h1a3 3 0 000-6h-1V1a1 1 0 00-1-1H3a1 1 0 00-1 1v8a5 5 0 005 5zm9-10h1a1 1 0 110 2h-1V4zM4 2h10v7a3 3 0 01-3 3H7a3 3 0 01-3-3V2zm15 14H1a1 1 0 000 2h18a1 1 0 000-2z" fill="#192040"/></svg><svg viewBox="0 0 14 12" id="home" xmlns="http://www.w3.org/2000/svg"><path d="M11.977 6.75L12 10.5c0 .844-.68 1.5-1.5 1.5H3a1.48 1.48 0 01-1.5-1.5V6.75H.75A.74.74 0 010 6c0-.21.07-.398.234-.563l6-5.226A.705.705 0 016.75 0c.164 0 .352.07.492.188l5.977 5.25c.187.164.281.351.258.562 0 .422-.352.75-.75.75h-.75zM5.812 4.5a.555.555 0 00-.562.563v1.875c0 .328.234.562.563.562h1.875a.555.555 0 00.562-.563V5.063a.57.57 0 00-.563-.562H5.813z"/></svg><svg fill="none" viewBox="0 0 17 16" id="phone" xmlns="http://www.w3.org/2000/svg"><path d="M16.45 12.067l-.75 3.153a.939.939 0 01-.936.78C6.898 15.969.5 9.57.5 1.705c0-.468.28-.843.75-.936L4.4.019c.437-.093.906.157 1.093.562L6.96 3.984c.156.405.062.873-.281 1.123L4.994 6.48a10.838 10.838 0 004.994 4.963l1.374-1.685c.25-.312.717-.437 1.123-.281l3.402 1.467c.406.218.656.686.562 1.123z" fill="#192040"/></svg><svg fill="none" viewBox="0 0 22 19" id="wifi" xmlns="http://www.w3.org/2000/svg"><path d="M11 13a3 3 0 100 6 3 3 0 000-6zm0 4a1 1 0 110-2 1 1 0 010 2zm0-8a7.06 7.06 0 00-4.95 2.05 1 1 0 000 1.41 1 1 0 001.41 0 5 5 0 017.08 0 1 1 0 00.7.3 1 1 0 00.76-1.71A7.06 7.06 0 0011 9zm0-4a11.08 11.08 0 00-7.78 3.22 1.004 1.004 0 101.42 1.42 9 9 0 0112.72 0 1.001 1.001 0 00.71.29 1 1 0 00.71-1.71A11.08 11.08 0 0011 5zm10.61.39a15 15 0 00-21.22 0 1.004 1.004 0 001.42 1.42 13 13 0 0118.38 0 1 1 0 001.42 0 .998.998 0 000-1.42z" fill="#192040"/></svg></svg>