<svg width="80" height="80" viewBox="0 0 80 80" fill="none" xmlns="http://www.w3.org/2000/svg">
<path d="M73.5507 60.8476C73.7587 59.9836 73.6947 58.7356 72.6067 57.1676C71.4547 55.5196 69.3107 53.8076 67.1667 53.1356C67.1347 51.9996 66.7187 51.1356 66.2867 50.5436C64.0147 47.4076 58.3347 47.1676 56.6387 47.1676C53.0227 47.1676 48.9747 47.6156 45.9667 50.8476C41.1187 50.8156 37.7427 53.2476 36.4627 54.3356C35.7427 54.9596 35.1667 55.9516 34.7507 57.1676C30.7507 59.3276 27.2627 64.4316 27.1187 68.5116C27.0387 70.6396 27.4867 72.1756 28.4787 73.1996C29.5827 74.3356 30.9907 74.4636 31.9507 74.4636C34.0467 74.4636 36.5267 73.8076 37.8387 73.4076C38.7347 74.0636 39.8547 74.4636 41.3107 74.4636C42.9907 74.4636 45.1187 73.7276 46.5427 73.1036C47.7907 73.9996 49.2467 74.4636 50.8147 74.4636H51.6787C53.1507 74.4636 55.2947 74.3836 56.8307 73.4236C58.3507 74.4156 59.9027 74.4636 62.4307 74.4636C64.0467 74.4636 65.1027 73.9196 65.8707 73.1356C66.1747 73.1996 66.5267 73.2956 66.8467 73.3596C68.8147 73.8396 71.3107 74.4476 73.4867 74.4476C75.5667 74.4476 77.3587 73.8876 78.1427 72.1276C79.7747 68.4956 76.4947 63.2636 73.5507 60.8476ZM30.8307 70.9916C30.6707 70.8316 30.3187 70.2716 30.3667 68.6396C30.4467 66.4636 32.0467 63.6476 34.0787 61.6796C34.0307 63.5516 34.2387 65.5996 34.7347 67.6156C34.9747 68.6396 35.2947 69.7116 35.7587 70.6876C34.6227 70.9756 33.1827 71.2796 31.9827 71.2796C31.3747 71.2796 31.0227 71.1836 30.8307 70.9916ZM39.4387 70.5436L39.4067 70.5116C38.8467 69.9036 38.3187 68.7996 37.8547 66.8636C37.0387 63.4876 37.1987 60.6076 37.6467 58.7676C37.6627 58.7196 37.6627 58.6876 37.6787 58.6396C37.9347 57.6956 38.2547 57.0556 38.5747 56.7836C39.3427 56.1116 41.1347 54.8156 43.6947 54.2876C42.0947 57.7116 42.0627 61.1996 42.0307 62.9116V63.2156C42.0147 64.6556 42.5587 67.9516 44.2227 70.6076C43.1667 70.9916 42.0627 71.2796 41.3107 71.2796C40.6867 71.2796 40.0467 71.1836 39.4387 70.5436ZM51.2787 71.2796H50.8627C49.6787 71.2796 48.6867 70.8636 47.8227 69.9836C45.8547 67.9836 45.2467 64.3036 45.2627 63.2636V62.9436C45.2787 60.9436 45.3267 56.7676 47.9507 53.4876C49.7427 51.2476 52.1907 50.3836 56.6547 50.3836C59.8707 50.3836 62.8307 51.2476 63.6947 52.4316C63.9027 52.7036 64.0947 53.1356 63.8387 53.9516C63.4707 55.0876 62.3507 56.4956 61.2627 57.8556C60.4467 58.8956 59.5827 59.9676 58.9107 61.0716C56.8467 64.4796 55.9507 66.8476 55.4867 70.1276C55.3427 71.2156 53.2307 71.2796 51.2787 71.2796ZM58.6387 70.7836C58.6547 70.7196 58.6707 70.6556 58.6707 70.5916C59.0707 67.7596 59.8227 65.7916 61.6627 62.7676C62.2387 61.8236 63.0227 60.8316 63.7747 59.8716C64.7187 58.6876 65.6627 57.4876 66.3187 56.2556C67.5827 56.6876 69.1347 57.8236 69.9667 59.0076C70.4307 59.6796 70.4467 60.0476 70.4307 60.1116C70.0467 61.1196 69.3907 61.9196 68.5427 62.9276C67.7747 63.8396 66.9107 64.8796 66.0307 66.3356C65.4707 67.2636 65.0707 68.1596 64.7187 68.9276C64.3987 69.6476 64.1587 70.1596 63.9187 70.5116C63.9027 70.5276 63.9027 70.5436 63.8867 70.5596C63.5027 71.1356 63.1507 71.2796 62.4627 71.2796C60.2227 71.2796 59.3747 71.2316 58.6387 70.7836ZM75.2147 70.8636C75.1507 70.9916 74.5907 71.3436 72.8467 71.2156C71.1347 71.1036 69.1187 70.6076 67.6307 70.2556C67.6307 70.2396 67.6467 70.2396 67.6467 70.2236C67.9667 69.5036 68.3027 68.7516 68.7667 67.9836C69.5187 66.7356 70.2707 65.8396 71.0067 64.9756C71.3427 64.5596 71.6787 64.1596 71.9987 63.7436C74.0467 65.6796 75.9347 69.2316 75.2147 70.8636ZM29.6147 23.9196C29.0227 24.5756 29.0707 25.5996 29.7267 26.1916C30.0307 26.4796 30.4147 26.6076 30.8147 26.6076C31.2467 26.6076 31.6787 26.4316 31.9987 26.0796C36.7027 20.9116 33.9827 17.4556 32.1907 15.1836C30.3507 12.8316 29.3267 11.5516 32.6227 8.25562C33.2467 7.63162 33.2467 6.60763 32.6227 5.98363C31.9987 5.35963 30.9747 5.35963 30.3507 5.98363C25.0387 11.2956 27.8227 14.8316 29.6627 17.1836C31.4867 19.4876 32.4947 20.7676 29.6147 23.9196ZM40.3987 23.9996C39.8547 24.7036 39.9667 25.7116 40.6707 26.2556C40.9587 26.4956 41.3107 26.6076 41.6627 26.6076C42.1427 26.6076 42.6067 26.3996 42.9267 25.9996C45.5507 22.6716 43.9827 20.3836 43.0547 19.0076C42.1747 17.7116 41.8867 17.2796 43.2147 15.7436C43.7907 15.0716 43.7267 14.0636 43.0547 13.4716C42.3827 12.8956 41.3747 12.9596 40.7827 13.6316C37.8227 17.0556 39.4227 19.4076 40.3827 20.8156C41.2467 22.0636 41.5667 22.5276 40.3987 23.9996ZM20.2227 23.9996C19.6787 24.7036 19.7907 25.7116 20.4947 26.2556C20.7827 26.4956 21.1347 26.6076 21.4867 26.6076C21.9667 26.6076 22.4307 26.3996 22.7507 25.9996C25.3747 22.6716 23.8067 20.3836 22.8787 19.0076C21.9987 17.7116 21.7107 17.2796 23.0387 15.7436C23.6147 15.0716 23.5507 14.0636 22.8787 13.4716C22.2067 12.8956 21.1987 12.9596 20.6067 13.6316C17.6467 17.0556 19.2467 19.4076 20.2067 20.8156C21.0707 22.0636 21.3907 22.5276 20.2227 23.9996Z" fill="#2EB4FF"/>
<path d="M24.7351 61.6319H22.3191C22.3191 61.5519 22.3191 61.4559 22.3031 61.3759C22.0791 59.9519 21.2631 58.7839 20.3351 57.4399C18.1431 54.2719 14.5431 49.0399 14.3031 34.3039H49.6471C49.5831 37.7599 49.3432 40.9119 48.9112 43.6959C48.7672 44.5759 49.3751 45.3919 50.2551 45.5359C51.1352 45.6639 51.9511 45.0719 52.0951 44.1919C52.6231 40.8159 52.8792 36.9439 52.8792 32.6879C52.8792 31.8079 52.1591 31.0879 51.2791 31.0879H12.6871C11.8071 31.0879 11.0871 31.8079 11.0871 32.6879C11.0871 34.9759 11.1671 37.0719 11.2951 38.9919C9.75915 38.2399 8.22315 38.0959 7.34315 38.0959C5.64715 38.0959 4.17515 38.7359 3.08715 39.9359C1.90315 41.2319 1.27915 43.1359 1.45515 44.8959C1.90315 49.5039 5.58315 51.0399 9.13515 52.5279C11.3431 53.4559 13.6311 54.4159 15.7111 56.1119C16.4151 57.3759 17.1031 58.3839 17.7111 59.2479C18.3831 60.2399 18.8951 60.9759 19.0871 61.6159H7.85515C6.97515 61.6159 6.25515 62.3359 6.25515 63.2159C6.25515 64.0959 6.97515 64.8159 7.85515 64.8159H24.7351C25.6151 64.8159 26.3351 64.0959 26.3351 63.2159C26.3511 62.3519 25.6311 61.6319 24.7351 61.6319ZM10.3671 49.5839C6.78315 48.0799 4.89515 47.1839 4.63915 44.5919C4.57515 43.8879 4.79915 42.8319 5.45515 42.1119C5.93515 41.5839 6.55915 41.3279 7.34315 41.3279C8.57515 41.3279 10.7671 41.6799 11.8391 43.9679C12.2551 46.7359 12.8151 49.0239 13.4551 50.9439C12.3831 50.4319 11.3431 49.9999 10.3671 49.5839Z" fill="#2EB4FF"/>
</svg>
