<svg width="80" height="80" viewBox="0 0 80 80" fill="none" xmlns="http://www.w3.org/2000/svg">
<path d="M49.1686 66.0956H5.87078C3.92859 66.0956 2.34828 64.5155 2.34828 62.5731V11.6639C2.34828 9.72156 3.92859 8.14141 5.87078 8.14141H55.3745C56.0231 8.14141 56.5487 7.61578 56.5487 6.96719C56.5487 6.31859 56.0231 5.79297 55.3745 5.79297H5.87078C2.63359 5.79297 0 8.42656 0 11.6639V62.5731C0 65.7316 2.50734 68.3142 5.63594 68.438V70.6827C5.63594 72.625 7.21609 74.2052 9.15844 74.2052H15.0513C16.3869 74.2052 17.6289 73.43 18.2155 72.2305L20.0677 68.4439H49.1684C49.3226 68.4439 49.4753 68.4136 49.6178 68.3546C49.7603 68.2956 49.8897 68.2091 49.9988 68.1C50.1078 67.991 50.1943 67.8615 50.2533 67.7191C50.3123 67.5766 50.3427 67.4239 50.3427 67.2697C50.3427 67.1155 50.3123 66.9628 50.2533 66.8204C50.1943 66.6779 50.1079 66.5485 49.9988 66.4395C49.8898 66.3304 49.7604 66.2439 49.6179 66.185C49.4755 66.126 49.3228 66.0956 49.1686 66.0956ZM16.1061 71.1986C16.0088 71.3955 15.8586 71.5614 15.6722 71.6776C15.4859 71.7939 15.2709 71.8559 15.0513 71.8567H9.15844C8.51094 71.8567 7.98422 71.33 7.98422 70.6825V68.4437H17.4534L16.1061 71.1986ZM74.1292 5.79297H60.0712C59.4227 5.79297 58.897 6.31859 58.897 6.96719C58.897 7.61578 59.4227 8.14141 60.0712 8.14141H74.1292C76.0714 8.14141 77.6517 9.72156 77.6517 11.6639V62.5731C77.6517 64.5155 76.0714 66.0956 74.1292 66.0956H53.8653C53.2167 66.0956 52.6911 66.6212 52.6911 67.2698C52.6911 67.9184 53.2167 68.4441 53.8653 68.4441H59.9322L61.7844 72.2305C62.3709 73.4302 63.613 74.2053 64.9486 74.2053H70.8414C72.7838 74.2053 74.3639 72.6252 74.3639 70.6828V68.4381C77.4925 68.3142 79.9998 65.7317 79.9998 62.5733V11.6639C80 8.42656 77.3664 5.79297 74.1292 5.79297ZM70.8414 71.8567H64.9486C64.729 71.8559 64.5139 71.7938 64.3276 71.6775C64.1413 71.5613 63.991 71.3953 63.8938 71.1984L62.5464 68.4439H72.0156V70.6827C72.0156 71.3302 71.4889 71.8567 70.8414 71.8567Z" fill="#2EB4FF"/>
<path d="M21.3459 36.5362H19.1986C18.55 36.5362 18.0244 37.0619 18.0244 37.7105C18.0244 38.3591 18.55 38.8847 19.1986 38.8847H21.3459C21.654 38.8797 21.9478 38.7537 22.1639 38.5341C22.38 38.3144 22.5012 38.0186 22.5012 37.7105C22.5012 37.4023 22.38 37.1065 22.1639 36.8869C21.9478 36.6672 21.654 36.5413 21.3459 36.5362ZM27.6997 36.5362H25.5523C24.9038 36.5362 24.3781 37.0619 24.3781 37.7105C24.3781 38.3591 24.9038 38.8847 25.5523 38.8847H27.6997C28.3483 38.8847 28.8739 38.3591 28.8739 37.7105C28.8739 37.0619 28.3483 36.5362 27.6997 36.5362ZM34.0536 36.5362H31.9061C31.2575 36.5362 30.7319 37.0619 30.7319 37.7105C30.7319 38.3591 31.2575 38.8847 31.9061 38.8847H34.0536C34.7022 38.8847 35.2278 38.3591 35.2278 37.7105C35.2278 37.0619 34.7022 36.5362 34.0536 36.5362ZM21.3459 41.3437H19.1986C18.55 41.3437 18.0244 41.8694 18.0244 42.518C18.0244 43.1666 18.55 43.6922 19.1986 43.6922H21.3459C21.654 43.6872 21.9478 43.5612 22.1639 43.3416C22.38 43.1219 22.5012 42.8261 22.5012 42.518C22.5012 42.2098 22.38 41.914 22.1639 41.6944C21.9478 41.4747 21.654 41.3488 21.3459 41.3437ZM27.6997 41.3437H25.5523C24.9038 41.3437 24.3781 41.8694 24.3781 42.518C24.3781 43.1666 24.9038 43.6922 25.5523 43.6922H27.6997C28.3483 43.6922 28.8739 43.1666 28.8739 42.518C28.8739 41.8694 28.3483 41.3437 27.6997 41.3437ZM34.0536 41.3437H31.9061C31.2575 41.3437 30.7319 41.8694 30.7319 42.518C30.7319 43.1666 31.2575 43.6922 31.9061 43.6922H34.0536C34.7022 43.6922 35.2278 43.1666 35.2278 42.518C35.2278 41.8694 34.7022 41.3437 34.0536 41.3437ZM21.3459 46.1512H19.1986C18.55 46.1512 18.0244 46.6769 18.0244 47.3255C18.0244 47.9741 18.55 48.4997 19.1986 48.4997H21.3459C21.654 48.4947 21.9478 48.3687 22.1639 48.1491C22.38 47.9294 22.5012 47.6336 22.5012 47.3255C22.5012 47.0173 22.38 46.7215 22.1639 46.5019C21.9478 46.2822 21.654 46.1563 21.3459 46.1512ZM25.5523 48.4995H27.6997C28.3483 48.4995 28.8739 47.9739 28.8739 47.3253C28.8739 46.6767 28.3483 46.1511 27.6997 46.1511H25.5523C25.2442 46.1561 24.9505 46.282 24.7343 46.5017C24.5182 46.7214 24.3971 47.0172 24.3971 47.3253C24.3971 47.6335 24.5182 47.9293 24.7343 48.1489C24.9505 48.3686 25.2442 48.4945 25.5523 48.4995ZM34.0536 46.1512H31.9061C31.2575 46.1512 30.7319 46.6769 30.7319 47.3255C30.7319 47.9741 31.2575 48.4997 31.9061 48.4997H34.0536C34.7022 48.4997 35.2278 47.9741 35.2278 47.3255C35.2278 46.6769 34.7022 46.1512 34.0536 46.1512ZM51.5175 27.155C51.3633 27.155 51.2106 27.1853 51.0681 27.2443C50.9256 27.3033 50.7962 27.3898 50.6872 27.4989C50.5781 27.6079 50.4916 27.7374 50.4326 27.8798C50.3736 28.0223 50.3433 28.175 50.3433 28.3292V30.4262C47.5267 30.918 45.3003 33.1442 44.8086 35.9609H42.7116C42.063 35.9609 41.5373 36.4866 41.5373 37.1352C41.5373 37.7837 42.063 38.3094 42.7116 38.3094H44.8086C45.3003 41.1259 47.5266 43.3523 50.3433 43.8441V45.9411C50.3433 46.5897 50.8689 47.1153 51.5175 47.1153C52.1661 47.1153 52.6917 46.5897 52.6917 45.9411V43.8441C55.5083 43.3523 57.7347 41.1261 58.2264 38.3094H60.3234C60.972 38.3094 61.4977 37.7837 61.4977 37.1352C61.4977 36.4866 60.972 35.9609 60.3234 35.9609H58.2264C57.7347 33.1444 55.5084 30.918 52.6917 30.4262V28.3292C52.6917 28.175 52.6614 28.0223 52.6024 27.8798C52.5434 27.7374 52.4569 27.6079 52.3478 27.4989C52.2388 27.3898 52.1093 27.3033 51.9669 27.2443C51.8244 27.1853 51.6717 27.155 51.5175 27.155ZM55.9814 37.135C55.9814 39.5964 53.9789 41.5988 51.5177 41.5988C49.0564 41.5988 47.0538 39.5962 47.0538 37.135C47.0538 34.6737 49.0563 32.6712 51.5177 32.6712C53.9789 32.6712 55.9814 34.6737 55.9814 37.135ZM35.6 30.9062V28.7616C35.6 27.1656 34.3017 25.8672 32.7058 25.8672H20.5466C18.9506 25.8672 17.6523 27.1656 17.6523 28.7616V30.9062C17.6523 32.5022 18.9506 33.8005 20.5466 33.8005H32.7058C34.3016 33.8006 35.6 32.5022 35.6 30.9062ZM20.0005 30.9062V28.7616C20.0006 28.6168 20.0581 28.478 20.1605 28.3756C20.2628 28.2732 20.4016 28.2156 20.5464 28.2155H32.7056C32.8504 28.2156 32.9892 28.2732 33.0915 28.3756C33.1939 28.478 33.2514 28.6168 33.2516 28.7616V30.9062C33.2514 31.051 33.1938 31.1898 33.0915 31.2921C32.9891 31.3944 32.8504 31.452 32.7056 31.4522H20.5464C20.4017 31.4521 20.2629 31.3945 20.1605 31.2921C20.0581 31.1898 20.0006 31.051 20.0005 30.9062Z" fill="#2EB4FF"/>
<path d="M68.1434 13.4609H11.169C9.22664 13.4609 7.64648 15.0412 7.64648 16.9834V57.2923C7.64648 59.2347 9.2268 60.8148 11.169 60.8148H24.2779C24.9265 60.8148 25.4521 60.2892 25.4521 59.6406C25.4521 58.992 24.9265 58.4664 24.2779 58.4664H11.169C10.5215 58.4664 9.99477 57.9397 9.99477 57.2922V16.9834C9.99477 16.3359 10.5215 15.8092 11.169 15.8092H68.1435C68.791 15.8092 69.3177 16.3359 69.3177 16.9834V21.7581C67.8735 21.833 66.7205 23.0281 66.7205 24.4906V29.5952C66.7205 31.0578 67.8735 32.2528 69.3177 32.3277V41.9481C67.8735 42.023 66.7205 43.218 66.7205 44.6806V49.785C66.7205 51.2477 67.8735 52.4427 69.3177 52.5175V57.2922C69.3177 57.9397 68.791 58.4664 68.1435 58.4664H28.9745C28.3259 58.4664 27.8002 58.992 27.8002 59.6406C27.8002 60.2892 28.3259 60.8148 28.9745 60.8148H68.1434C70.0857 60.8148 71.6659 59.2347 71.6659 57.2923V52.5177C73.1101 52.4428 74.263 51.2477 74.263 49.7852V44.6808C74.263 43.2181 73.1101 42.0231 71.6659 41.9483V32.3278C73.1101 32.253 74.263 31.058 74.263 29.5953V24.4908C74.263 23.0281 73.1101 21.8331 71.6659 21.7583V16.9836C71.666 15.0412 70.0857 13.4609 68.1434 13.4609ZM71.9148 44.6808V49.7852C71.9147 49.8889 71.8734 49.9884 71.8 50.0618C71.7266 50.1352 71.6271 50.1765 71.5234 50.1766H69.4601C69.3563 50.1765 69.2568 50.1352 69.1834 50.0618C69.11 49.9884 69.0688 49.8889 69.0687 49.7852V44.6808C69.0688 44.577 69.11 44.4775 69.1834 44.4041C69.2568 44.3307 69.3563 44.2895 69.4601 44.2894H71.5235C71.6273 44.2895 71.7267 44.3308 71.8001 44.4042C71.8734 44.4775 71.9147 44.577 71.9148 44.6808ZM71.9148 24.4906V29.5952C71.9147 29.6989 71.8734 29.7984 71.8 29.8718C71.7266 29.9452 71.6271 29.9865 71.5234 29.9866H69.4601C69.3563 29.9865 69.2568 29.9452 69.1834 29.8718C69.11 29.7984 69.0688 29.6989 69.0687 29.5952V24.4906C69.0688 24.3868 69.11 24.2873 69.1834 24.214C69.2568 24.1406 69.3563 24.0993 69.4601 24.0992H71.5235C71.6273 24.0994 71.7267 24.1407 71.8 24.2141C71.8734 24.2874 71.9146 24.3869 71.9148 24.4906Z" fill="#2EB4FF"/>
</svg>
