<svg width="80" height="80" viewBox="0 0 80 80" fill="none" xmlns="http://www.w3.org/2000/svg">
<g clip-path="url(#clip0_77_1327)">
<path d="M64.0266 47.3742C63.6319 47.3745 63.2457 47.2596 62.9154 47.0435C62.5851 46.8274 62.3251 46.5196 62.1672 46.1578C62.0094 45.7961 61.9606 45.3961 62.0268 45.007C62.093 44.6179 62.2714 44.2566 62.5401 43.9675C62.782 43.7067 68.555 37.5742 77.9671 37.5742C78.5047 37.5742 79.0203 37.7878 79.4004 38.1679C79.7806 38.5481 79.9941 39.0636 79.9941 39.6012C79.9941 40.1388 79.7806 40.6544 79.4004 41.0346C79.0203 41.4147 78.5047 41.6283 77.9671 41.6283C70.3793 41.6283 65.5604 46.6729 65.5131 46.7242C65.3238 46.9296 65.094 47.0934 64.8381 47.2053C64.5822 47.3172 64.3059 47.3747 64.0266 47.3742Z" fill="#2EB4FF"/>
<path d="M28.5715 55.4233C28.2147 55.4229 27.8643 55.3283 27.5558 55.149C27.2472 54.9698 26.9915 54.7124 26.8143 54.4026C26.6372 54.0929 26.5449 53.7419 26.5469 53.3851C26.5489 53.0283 26.645 52.6783 26.8255 52.3706C32.0512 43.4598 38.3877 38.3936 45.6566 37.3098C56.4201 35.7071 65.0417 43.5192 65.4039 43.853C65.5999 44.0334 65.7585 44.2507 65.8705 44.4924C65.9825 44.7341 66.0458 44.9956 66.0567 45.2617C66.0677 45.5279 66.026 45.7937 65.9342 46.0437C65.8424 46.2938 65.7021 46.5234 65.5216 46.7192C65.341 46.9151 65.1235 47.0734 64.8817 47.1852C64.6399 47.297 64.3784 47.36 64.1122 47.3707C63.846 47.3814 63.5803 47.3395 63.3303 47.2474C63.0803 47.1553 62.8509 47.0149 62.6553 46.8341C62.5836 46.7679 55.0539 39.9922 46.2242 41.3246C40.2404 42.2274 34.8904 46.6341 30.3215 54.4219C30.1425 54.727 29.8868 54.98 29.5798 55.1556C29.2728 55.3313 28.9252 55.4236 28.5715 55.4233ZM52.7755 69.3098C50.1647 69.3098 47.208 68.8746 43.9404 67.7368C43.4362 67.5565 43.0238 67.1842 42.7931 66.701C42.5625 66.2178 42.5322 65.663 42.709 65.1576C42.8858 64.6523 43.2553 64.2373 43.7368 64.0033C44.2184 63.7692 44.773 63.7351 45.2796 63.9084C58.2309 68.4165 65.2052 60.1598 65.2796 60.076C65.4437 59.8571 65.6504 59.6737 65.8873 59.5368C66.1242 59.3999 66.3863 59.3124 66.6579 59.2796C66.9295 59.2467 67.2049 59.2691 67.4676 59.3456C67.7303 59.422 67.9748 59.5508 68.1864 59.7242C68.398 59.8976 68.5723 60.1121 68.6988 60.3547C68.8253 60.5973 68.9014 60.863 68.9224 61.1357C68.9435 61.4085 68.9092 61.6827 68.8214 61.9419C68.7337 62.201 68.5944 62.4397 68.412 62.6436C68.3201 62.7544 66.1242 65.3936 61.9998 67.3098C59.1085 68.6434 55.9596 69.3261 52.7755 69.3098ZM34.7039 37.8544C34.5316 37.854 34.36 37.8323 34.1931 37.7895C33.9354 37.7226 33.6934 37.6056 33.4809 37.4452C33.2685 37.2848 33.0897 37.0841 32.9548 36.8546C32.8199 36.6251 32.7315 36.3712 32.6947 36.1076C32.6579 35.8439 32.6735 35.5756 32.7404 35.3179L37.8755 15.5665C37.9315 15.2978 38.0416 15.0432 38.1989 14.8183C38.3563 14.5933 38.5577 14.4027 38.791 14.2579C39.0242 14.1131 39.2845 14.0172 39.5559 13.9761C39.8273 13.9349 40.1043 13.9493 40.37 14.0183C40.6357 14.0874 40.8846 14.2098 41.1016 14.3779C41.3186 14.5461 41.4991 14.7566 41.6323 14.9966C41.7655 15.2367 41.8486 15.5013 41.8765 15.7744C41.9043 16.0475 41.8764 16.3235 41.7944 16.5855L36.6593 36.3368C36.5468 36.7702 36.2939 37.1542 35.9401 37.4287C35.5864 37.7032 35.1517 37.8529 34.7039 37.8544Z" fill="#2EB4FF"/>
<path d="M46.9587 80.0037C36.6614 80.0037 28.0587 76.9307 22.5249 74.2591C18.7257 72.4401 14.7086 71.1167 10.5722 70.3213C5.86001 69.401 2.55325 67.3185 1.01136 64.2983C-0.55891 61.2253 -0.28864 57.3388 1.81271 52.7469C6.65866 37.9145 17.9397 20.0645 26.5614 7.68881C27.7433 5.99477 29.2675 4.56747 31.0354 3.49906C32.8032 2.43066 34.7755 1.74491 36.8249 1.4861L48.1168 0.0631317C50.1451 -0.193808 52.1944 0.339591 53.8401 1.55276C55.4857 2.76593 56.6015 4.56582 56.956 6.57935L57.9614 12.2739C58.1644 13.4263 58.0784 14.6111 57.7111 15.7221C57.3438 16.8331 56.7066 17.8356 55.8567 18.6399C55.0068 19.4442 53.9706 20.0251 52.841 20.3305C51.7115 20.636 50.5238 20.6565 49.3843 20.3902L39.3681 18.051C39.1073 17.9919 38.8608 17.8819 38.6428 17.7272C38.4247 17.5725 38.2394 17.3761 38.0975 17.1495C37.9556 16.9229 37.8599 16.6705 37.816 16.4067C37.7721 16.143 37.7808 15.8732 37.8415 15.6128C37.9023 15.3524 38.014 15.1066 38.1701 14.8896C38.3263 14.6725 38.5238 14.4885 38.7513 14.3481C38.9789 14.2078 39.232 14.1138 39.496 14.0716C39.76 14.0294 40.0298 14.0398 40.2897 14.1023L50.306 16.4415C50.7928 16.5567 51.3007 16.5491 51.7839 16.4193C52.2671 16.2896 52.7105 16.0417 53.0742 15.6982C53.4378 15.3546 53.7104 14.926 53.8674 14.4509C54.0244 13.9759 54.0609 13.4693 53.9735 12.9766L52.9681 7.28205C52.7936 6.29326 52.2454 5.40949 51.4371 4.81379C50.6288 4.21808 49.6224 3.95608 48.6262 4.08205L37.3303 5.50232C35.8438 5.69035 34.4133 6.18813 33.1312 6.96349C31.8491 7.73885 30.7439 8.77455 29.887 10.0037C21.4005 22.1875 10.3033 39.7334 5.63028 54.1118C5.60582 54.1888 5.57648 54.2642 5.54244 54.3375C3.94379 57.7902 3.63433 60.5199 4.62217 62.4537C5.82893 64.8158 8.9465 65.8726 11.3506 66.3415C15.8279 67.2038 20.176 68.6371 24.2884 70.6064C33.5722 75.0902 52.1857 80.7929 72.5316 68.6104C72.76 68.4737 73.0131 68.3833 73.2765 68.3444C73.5398 68.3054 73.8082 68.3188 74.0664 68.3836C74.3246 68.4484 74.5675 68.5634 74.7812 68.7221C74.9949 68.8808 75.1753 69.08 75.312 69.3084C75.4488 69.5368 75.5392 69.7899 75.5781 70.0532C75.617 70.3166 75.6037 70.585 75.5389 70.8432C75.4741 71.1013 75.359 71.3442 75.2004 71.558C75.0417 71.7717 74.8425 71.9521 74.6141 72.0888C64.7749 77.9767 55.3087 80.0037 46.9587 80.0037Z" fill="#2EB4FF"/>
</g>
<defs>
<clipPath id="clip0_77_1327">
<rect width="80" height="80" fill="white"/>
</clipPath>
</defs>
</svg>
