<svg width="80" height="80" viewBox="0 0 80 80" fill="none" xmlns="http://www.w3.org/2000/svg">
<g clip-path="url(#clip0_75_1308)">
<path d="M75.9962 21.3312H74.663V7.75392C76.7416 7.02181 77.8332 4.74329 77.1011 2.66459C76.8262 1.88432 76.3156 1.20876 75.64 0.731397C74.9643 0.254029 74.157 -0.00155453 73.3297 7.46913e-06H41.3329C39.1292 -0.00421086 37.3393 1.77889 37.335 3.98274C37.3335 4.80999 37.589 5.61729 38.0664 6.29291C38.5438 6.96854 39.2193 7.47909 39.9996 7.75392V21.3312H38.6665C36.4576 21.3312 34.6669 23.1219 34.6669 25.3308V31.4049C33.8598 30.925 32.9393 30.6691 32.0004 30.6635H24.0012C21.056 30.6635 18.6685 33.0511 18.6685 35.9963V38.6627H15.6314C15.3993 38.2587 15.065 37.9228 14.662 37.6889C14.2591 37.4549 13.8017 37.331 13.3357 37.3296H8.00295C7.537 37.331 7.07959 37.4549 6.67665 37.6889C6.2737 37.9228 5.93939 38.2587 5.70724 38.6627H5.33666C2.39148 38.6627 0.00390625 41.0503 0.00390625 43.9955V73.3258C0.00390625 76.271 2.39148 78.6586 5.33666 78.6586H5.70724C5.93939 79.0626 6.2737 79.3985 6.67665 79.6324C7.07959 79.8664 7.537 79.9903 8.00295 79.9917H13.3357C13.8017 79.9903 14.2591 79.8664 14.662 79.6324C15.065 79.3985 15.3993 79.0626 15.6314 78.6586H40.3704C40.6025 79.0626 40.9368 79.3985 41.3398 79.6324C41.7427 79.8664 42.2001 79.9903 42.6661 79.9917H47.9988C48.4648 79.9903 48.9222 79.8664 49.3251 79.6324C49.7281 79.3985 50.0624 79.0626 50.2945 78.6586H50.6651C53.0894 78.6495 55.2025 77.0064 55.8087 74.659H62.7973C63.5299 78.2669 67.0486 80.5978 70.6566 79.8652C71.9398 79.6046 73.1178 78.972 74.0437 78.0461C74.9695 77.1202 75.6022 75.9422 75.8628 74.659H75.996C78.2049 74.659 79.9956 72.8682 79.9956 70.6594V25.3308C79.9958 23.1219 78.205 21.3312 75.9962 21.3312ZM2.67005 73.326V43.9956C2.67005 42.523 3.86383 41.3292 5.3365 41.3292V75.9924C3.86383 75.9924 2.67005 74.7987 2.67005 73.326ZM13.3357 77.3256H8.00295V39.996H13.3357V77.3256ZM47.999 21.3312V7.99921H66.6638V21.3312H47.999ZM69.3301 7.99921H71.9966V21.3312H69.3301V7.99921ZM41.3329 2.66646H73.3297C73.6833 2.66646 74.0224 2.80692 74.2724 3.05693C74.5224 3.30694 74.6629 3.64604 74.6629 3.99961C74.6629 4.35318 74.5224 4.69227 74.2724 4.94229C74.0224 5.1923 73.6833 5.33276 73.3297 5.33276H41.3329C40.9793 5.33276 40.6403 5.1923 40.3902 4.94229C40.1402 4.69227 39.9998 4.35318 39.9998 3.99961C39.9998 3.64604 40.1402 3.30694 40.3902 3.05693C40.6403 2.80692 40.9793 2.66646 41.3329 2.66646ZM42.6661 7.99921H45.3325V21.3312H42.6661V7.99921ZM39.9998 41.3292V75.9924H16.0022V41.3292H39.9998ZM21.3349 35.9964C21.3349 34.5238 22.5287 33.33 24.0014 33.33H32.0006C33.4732 33.33 34.667 34.5238 34.667 35.9964V38.6629H21.3351L21.3349 35.9964ZM46.6657 37.3296H43.9992V30.6635C43.9992 30.3099 44.1397 29.9709 44.3897 29.7208C44.6397 29.4708 44.9788 29.3304 45.3324 29.3304C45.6859 29.3304 46.025 29.4708 46.275 29.7208C46.5251 29.9709 46.6655 30.3099 46.6655 30.6635L46.6657 37.3296ZM47.999 77.3256H42.6662V39.996H47.999V77.3256ZM53.3317 73.326C53.3317 74.7987 52.1379 75.9924 50.6653 75.9924V41.3292C52.1379 41.3292 53.3317 42.523 53.3317 43.9956V73.326ZM55.9982 43.9956V30.6637C55.9982 30.3101 56.1386 29.971 56.3886 29.721C56.6387 29.471 56.9778 29.3305 57.3313 29.3305C57.6849 29.3305 58.024 29.471 58.274 29.721C58.524 29.971 58.6645 30.3101 58.6645 30.6637V65.3269C58.6645 65.6805 58.524 66.0196 58.274 66.2696C58.024 66.5196 57.6849 66.6601 57.3313 66.6601C56.9778 66.6601 56.6387 66.5196 56.3886 66.2696C56.1386 66.0196 55.9982 65.6805 55.9982 65.3269V43.9956ZM69.3301 77.3256C68.5059 77.3222 67.7028 77.0642 67.0307 76.5869C66.3587 76.1096 65.8506 75.4363 65.5758 74.6591H73.0844C72.8098 75.4363 72.3016 76.1096 71.6296 76.587C70.9575 77.0643 70.1544 77.3222 69.3301 77.3256ZM77.3293 70.6597C77.3293 70.8348 77.2949 71.0081 77.2279 71.1699C77.1609 71.3316 77.0627 71.4786 76.9389 71.6024C76.8151 71.7262 76.6681 71.8244 76.5064 71.8914C76.3446 71.9584 76.1712 71.9928 75.9962 71.9928H55.9982V69.0811C56.4251 69.239 56.8761 69.322 57.3313 69.3264C59.5402 69.3264 61.3309 67.5356 61.3309 65.3268V30.6637C61.3309 28.4548 59.5402 26.6641 57.3313 26.6641C55.1225 26.6641 53.3317 28.4548 53.3317 30.6637V39.4042C52.5246 38.9244 51.6042 38.6685 50.6653 38.6629H50.2947C50.0618 38.2647 49.7303 37.9332 49.3321 37.7003V30.6637C49.3321 28.4548 47.5414 26.6641 45.3325 26.6641C43.1237 26.6641 41.3329 28.4548 41.3329 30.6637V37.7003C40.9347 37.9332 40.6032 38.2647 40.3704 38.6629H37.3333V25.3309C37.3333 24.9774 37.4738 24.6383 37.7238 24.3882C37.9738 24.1382 38.3129 23.9978 38.6665 23.9978H75.996C76.3496 23.9978 76.6887 24.1382 76.9387 24.3882C77.1887 24.6383 77.3292 24.9774 77.3292 25.3309V70.6597H77.3293Z" fill="#2EB4FF"/>
<path d="M69.3297 26.6641C67.1208 26.6641 65.3301 28.4548 65.3301 30.6637V65.3269C65.3301 67.5358 67.1208 69.3265 69.3297 69.3265C71.5385 69.3265 73.3293 67.5358 73.3293 65.3269V30.6637C73.3293 28.4547 71.5385 26.6641 69.3297 26.6641ZM70.6628 65.3268C70.6628 65.6803 70.5224 66.0194 70.2724 66.2695C70.0223 66.5195 69.6833 66.6599 69.3297 66.6599C68.9761 66.6599 68.637 66.5195 68.387 66.2695C68.137 66.0194 67.9965 65.6803 67.9965 65.3268V30.6637C67.9965 30.3101 68.137 29.971 68.387 29.721C68.637 29.471 68.9761 29.3305 69.3297 29.3305C69.6833 29.3305 70.0223 29.471 70.2724 29.721C70.5224 29.971 70.6628 30.3101 70.6628 30.6637V65.3268Z" fill="#2EB4FF"/>
</g>
<defs>
<clipPath id="clip0_75_1308">
<rect width="80" height="80" fill="white"/>
</clipPath>
</defs>
</svg>
