<svg width="80" height="70" viewBox="0 0 80 70" fill="none" xmlns="http://www.w3.org/2000/svg">
<g clip-path="url(#clip0_77_1312)">
<path d="M7.5 10C7.5 10.6904 6.94036 11.25 6.25 11.25C5.55964 11.25 5 10.6904 5 10V8.125C5 6.39911 6.39911 5 8.125 5H10C10.6904 5 11.25 5.55964 11.25 6.25C11.25 6.94036 10.6904 7.5 10 7.5H9.375C8.33947 7.5 7.5 8.33947 7.5 9.375V10ZM52.5 58.75C52.5 59.4404 51.9404 60 51.25 60C50.5596 60 50 59.4404 50 58.75C50 58.0596 50.5596 57.5 51.25 57.5C51.9404 57.5 52.5 58.0596 52.5 58.75ZM47.5 58.75C47.5 59.4404 46.9404 60 46.25 60C45.5596 60 45 59.4404 45 58.75C45 58.0596 45.5596 57.5 46.25 57.5C46.9404 57.5 47.5 58.0596 47.5 58.75ZM42.5 58.75C42.5 59.4404 41.9404 60 41.25 60C40.5596 60 40 59.4404 40 58.75C40 58.0596 40.5596 57.5 41.25 57.5C41.9404 57.5 42.5 58.0596 42.5 58.75ZM37.5 58.75C37.5 59.4404 36.9404 60 36.25 60C35.5596 60 35 59.4404 35 58.75C35 58.0596 35.5596 57.5 36.25 57.5C36.9404 57.5 37.5 58.0596 37.5 58.75ZM32.5 58.75C32.5 59.4404 31.9404 60 31.25 60C30.5596 60 30 59.4404 30 58.75C30 58.0596 30.5596 57.5 31.25 57.5C31.9404 57.5 32.5 58.0596 32.5 58.75ZM27.5 58.75C27.5 59.4404 26.9404 60 26.25 60C25.5596 60 25 59.4404 25 58.75C25 58.0596 25.5596 57.5 26.25 57.5C26.9404 57.5 27.5 58.0596 27.5 58.75ZM22.5 58.75C22.5 59.4404 21.9404 60 21.25 60C20.5596 60 20 59.4404 20 58.75C20 58.0596 20.5596 57.5 21.25 57.5C21.9404 57.5 22.5 58.0596 22.5 58.75ZM17.5 58.75C17.5 59.4404 16.9404 60 16.25 60C15.5596 60 15 59.4404 15 58.75C15 58.0596 15.5596 57.5 16.25 57.5C16.9404 57.5 17.5 58.0596 17.5 58.75ZM12.5 58.75C12.5 59.4404 11.9404 60 11.25 60C10.5596 60 10 59.4404 10 58.75C10 58.0596 10.5596 57.5 11.25 57.5C11.9404 57.5 12.5 58.0596 12.5 58.75ZM7.5 58.75C7.5 59.4404 6.94036 60 6.25 60C5.55964 60 5 59.4404 5 58.75C5 58.0596 5.55964 57.5 6.25 57.5C6.94036 57.5 7.5 58.0596 7.5 58.75ZM52.5 63.75C52.5 64.4404 51.9404 65 51.25 65C50.5596 65 50 64.4404 50 63.75C50 63.0596 50.5596 62.5 51.25 62.5C51.9404 62.5 52.5 63.0596 52.5 63.75ZM47.5 63.75C47.5 64.4404 46.9404 65 46.25 65C45.5596 65 45 64.4404 45 63.75C45 63.0596 45.5596 62.5 46.25 62.5C46.9404 62.5 47.5 63.0596 47.5 63.75ZM42.5 63.75C42.5 64.4404 41.9404 65 41.25 65C40.5596 65 40 64.4404 40 63.75C40 63.0596 40.5596 62.5 41.25 62.5C41.9404 62.5 42.5 63.0596 42.5 63.75ZM37.5 63.75C37.5 64.4404 36.9404 65 36.25 65C35.5596 65 35 64.4404 35 63.75C35 63.0596 35.5596 62.5 36.25 62.5C36.9404 62.5 37.5 63.0596 37.5 63.75ZM32.5 63.75C32.5 64.4404 31.9404 65 31.25 65C30.5596 65 30 64.4404 30 63.75C30 63.0596 30.5596 62.5 31.25 62.5C31.9404 62.5 32.5 63.0596 32.5 63.75ZM27.5 63.75C27.5 64.4404 26.9404 65 26.25 65C25.5596 65 25 64.4404 25 63.75C25 63.0596 25.5596 62.5 26.25 62.5C26.9404 62.5 27.5 63.0596 27.5 63.75ZM22.5 63.75C22.5 64.4404 21.9404 65 21.25 65C20.5596 65 20 64.4404 20 63.75C20 63.0596 20.5596 62.5 21.25 62.5C21.9404 62.5 22.5 63.0596 22.5 63.75ZM17.5 63.75C17.5 64.4404 16.9404 65 16.25 65C15.5596 65 15 64.4404 15 63.75C15 63.0596 15.5596 62.5 16.25 62.5C16.9404 62.5 17.5 63.0596 17.5 63.75ZM12.5 63.75C12.5 64.4404 11.9404 65 11.25 65C10.5596 65 10 64.4404 10 63.75C10 63.0596 10.5596 62.5 11.25 62.5C11.9404 62.5 12.5 63.0596 12.5 63.75ZM7.5 63.75C7.5 64.4404 6.94036 65 6.25 65C5.55964 65 5 64.4404 5 63.75C5 63.0596 5.55964 62.5 6.25 62.5C6.94036 62.5 7.5 63.0596 7.5 63.75ZM65 6.25C65 5.55964 65.5596 5 66.25 5H73.75C74.4404 5 75 5.55964 75 6.25C75 6.94036 74.4404 7.5 73.75 7.5H66.25C65.5596 7.5 65 6.94036 65 6.25ZM65 11.25C65 10.5596 65.5596 10 66.25 10H73.75C74.4404 10 75 10.5596 75 11.25C75 11.9404 74.4404 12.5 73.75 12.5H66.25C65.5596 12.5 65 11.9404 65 11.25ZM65 16.25C65 15.5596 65.5596 15 66.25 15H73.75C74.4404 15 75 15.5596 75 16.25C75 16.9404 74.4404 17.5 73.75 17.5H66.25C65.5596 17.5 65 16.9404 65 16.25ZM52.5 19.375C52.5 21.1009 51.1009 22.5 49.375 22.5H47.5C46.8096 22.5 46.25 21.9404 46.25 21.25C46.25 20.5596 46.8096 20 47.5 20H48.125C49.1605 20 50 19.1605 50 18.125V17.5C50 16.8096 50.5596 16.25 51.25 16.25C51.9404 16.25 52.5 16.8096 52.5 17.5V19.375Z" fill="#2EB4FF"/>
<path d="M76.25 0H63.75C61.6791 0 60 1.67906 60 3.75V46.5C60 47.0523 60.4477 47.5 61 47.5H79C79.5523 47.5 80 47.0523 80 46.5V3.75C80 1.67906 78.3209 0 76.25 0ZM77.5 44C77.5 44.5523 77.0523 45 76.5 45H63.5C62.9477 45 62.5 44.5523 62.5 44V3.75C62.5 3.41848 62.6317 3.10054 62.8661 2.86612C63.1005 2.6317 63.4185 2.5 63.75 2.5H76.25C76.5815 2.5 76.8995 2.6317 77.1339 2.86612C77.3683 3.10054 77.5 3.41848 77.5 3.75V44ZM53.75 52.5H3.75C1.67906 52.5 0 54.1791 0 56.25V66.25C0 68.3209 1.67906 70 3.75 70H53.75C55.8209 70 57.5 68.3209 57.5 66.25V56.25C57.5 54.1791 55.8209 52.5 53.75 52.5ZM55 66.25C55 66.5815 54.8683 66.8995 54.6339 67.1339C54.3995 67.3683 54.0815 67.5 53.75 67.5H3.75C3.41848 67.5 3.10054 67.3683 2.86612 67.1339C2.6317 66.8995 2.5 66.5815 2.5 66.25V56.25C2.5 55.9185 2.6317 55.6005 2.86612 55.3661C3.10054 55.1317 3.41848 55 3.75 55H53.75C54.0815 55 54.3995 55.1317 54.6339 55.3661C54.8683 55.6005 55 55.9185 55 56.25V66.25ZM68.75 52.5C65.2997 52.5042 62.5042 55.2997 62.5 58.75V63.75C62.5 67.2016 65.2984 70 68.75 70C72.2016 70 75 67.2016 75 63.75V58.75C74.9958 55.2997 72.2003 52.5042 68.75 52.5ZM72.5 63.75C72.5 65.8209 70.8209 67.5 68.75 67.5C66.6791 67.5 65 65.8209 65 63.75V58.75C65.0033 57.9772 65.2452 57.2243 65.6927 56.5943C65.8649 56.3519 66.0642 56.1323 66.2858 55.9391C66.8061 55.4855 67.5 55.9543 67.5 56.6445V59C67.5 59.5523 67.9477 60 68.5 60H69C69.5523 60 70 59.5523 70 59V56.6445C70 55.9543 70.6939 55.4855 71.2142 55.9391C71.4358 56.1323 71.6351 56.3519 71.8073 56.5943C72.2548 57.2243 72.4967 57.9772 72.5 58.75V63.75ZM53.75 0H3.75C1.67906 0 0 1.67906 0 3.75V33.75C0 35.8209 1.67906 37.5 3.75 37.5H20.25C20.8023 37.5 21.25 37.9477 21.25 38.5V42.7087C21.2488 43.9734 20.2234 44.9987 18.9587 45H16C15.4477 45 15 45.4477 15 46V46.5C15 47.0523 15.4477 47.5 16 47.5H39C39.5523 47.5 40 47.0523 40 46.5V46C40 45.4477 39.5523 45 39 45H36.0413C34.7766 44.9987 33.7513 43.9734 33.75 42.7087V38.5C33.75 37.9477 34.1977 37.5 34.75 37.5H53.75C55.8209 37.5 57.5 35.8209 57.5 33.75V3.75C57.5 1.67906 55.8209 0 53.75 0ZM24.8531 45C24.0933 45 23.5885 44.1599 23.6992 43.4082C23.7332 43.1774 23.7503 42.9436 23.75 42.7087V38.5C23.75 37.9477 24.1977 37.5 24.75 37.5H25.25C25.8023 37.5 26.25 37.9477 26.25 38.5V41.8125C26.25 42.3648 26.6977 42.8125 27.25 42.8125H27.75C28.3023 42.8125 28.75 42.3648 28.75 41.8125V38.5C28.75 37.9477 29.1977 37.5 29.75 37.5H30.25C30.8023 37.5 31.25 37.9477 31.25 38.5V42.7087C31.2497 42.9436 31.2668 43.1774 31.3008 43.4082C31.4115 44.1599 30.9067 45 30.1469 45H24.8531ZM55 33.75C55 34.0815 54.8683 34.3995 54.6339 34.6339C54.3995 34.8683 54.0815 35 53.75 35H3.75C3.41848 35 3.10054 34.8683 2.86612 34.6339C2.6317 34.3995 2.5 34.0815 2.5 33.75V28.5C2.5 27.9477 2.94772 27.5 3.5 27.5H54C54.5523 27.5 55 27.9477 55 28.5V33.75ZM55 24C55 24.5523 54.5523 25 54 25H3.5C2.94772 25 2.5 24.5523 2.5 24V3.75C2.5 3.41848 2.6317 3.10054 2.86612 2.86612C3.10054 2.6317 3.41848 2.5 3.75 2.5H53.75C54.0815 2.5 54.3995 2.6317 54.6339 2.86612C54.8683 3.10054 55 3.41848 55 3.75V24Z" fill="#2EB4FF"/>
<path d="M71.9825 32.9281C71.5637 32.7477 71.25 32.359 71.25 31.903V31C71.25 30.4477 70.8023 30 70.25 30H69.75C69.1977 30 68.75 30.4477 68.75 31V31.903C68.75 32.359 68.4363 32.7477 68.0175 32.9281C66.0019 33.7966 64.7554 35.9112 65.0397 38.1487C65.357 40.6462 67.4823 42.5191 70 42.5191C72.5177 42.5191 74.643 40.6464 74.9603 38.1487C75.2446 35.9111 73.9981 33.7966 71.9825 32.9281ZM70 40C68.8703 40.0031 67.8797 39.2456 67.5867 38.1542C67.4157 37.5171 67.5072 36.8595 67.8077 36.3102C68.0989 35.778 68.75 36.1049 68.75 36.7115C68.75 37.147 69.103 37.5 69.5385 37.5H70.4615C70.897 37.5 71.25 37.147 71.25 36.7115C71.25 36.1048 71.9011 35.778 72.1923 36.3102C72.4929 36.8595 72.5843 37.5171 72.4133 38.1542C72.1203 39.2455 71.1297 40.0031 70 40ZM26.25 31C26.25 30.4477 26.6977 30 27.25 30H27.75C28.3023 30 28.75 30.4477 28.75 31V31.5C28.75 32.0523 28.3023 32.5 27.75 32.5H27.25C26.6977 32.5 26.25 32.0523 26.25 31.5V31Z" fill="#2EB4FF"/>
</g>
<defs>
<clipPath id="clip0_77_1312">
<rect width="80" height="70" fill="white"/>
</clipPath>
</defs>
</svg>
