<svg width="80" height="80" viewBox="0 0 80 80" fill="none" xmlns="http://www.w3.org/2000/svg">
<path d="M32.032 9.65234H29.2852C29.1826 9.65234 29.081 9.67255 28.9863 9.71181C28.8915 9.75107 28.8054 9.80862 28.7328 9.88117C28.6603 9.95371 28.6027 10.0398 28.5635 10.1346C28.5242 10.2294 28.504 10.331 28.504 10.4336V44.5833C28.504 44.7905 28.5863 44.9892 28.7328 45.1357C28.8793 45.2822 29.078 45.3645 29.2852 45.3645H34.6251C34.8323 45.3645 35.031 45.2822 35.1775 45.1357C35.324 44.9892 35.4063 44.7905 35.4063 44.5833V32.0931H42.2179C48.4395 32.0931 53.4945 27.0033 53.4377 20.7689C53.3815 14.588 48.2491 9.65234 42.068 9.65234H37.5007M31.1634 71.4223V60.3125H35.919C36.8527 60.3125 37.6098 61.0695 37.6098 62.0033V64.1767C37.6098 65.1105 36.8527 65.8675 35.919 65.8675H31.1634M27.499 60.3125H21.0527V71.4225M21.1626 65.8675H27.499M47.961 60.3125H41.5148V71.4225H47.961M41.6246 65.8675H47.961M58.9487 60.3125H52.5024V71.4225H58.9487M52.6123 65.8675H58.9487M34.2184 66.1164L37.6098 71.4223M42.2179 25.1908H35.4063V16.5547H42.2179C44.5988 16.5547 46.536 18.4917 46.536 20.8727C46.5359 23.2536 44.5988 25.1908 42.2179 25.1908Z" stroke="#2EB4FF" stroke-width="2.34375" stroke-miterlimit="10" stroke-linecap="round" stroke-linejoin="round"/>
<path d="M13.666 53.8448V73.6233C13.666 76.4978 15.9963 78.8281 18.8709 78.8281H61.1341C64.0087 78.8281 66.339 76.4978 66.339 73.6233V53.8448M13.666 53.8448V22.1875M13.666 53.8448H48.9088M66.339 53.8448H54.3776M66.339 53.8448L66.3391 6.37672C66.3391 3.50219 64.0088 1.17188 61.1343 1.17188H18.8709C15.9963 1.17188 13.666 3.50219 13.666 6.37672V16.7188" stroke="#2EB4FF" stroke-width="2.34375" stroke-miterlimit="10" stroke-linecap="round" stroke-linejoin="round"/>
</svg>
