<svg width="80" height="80" viewBox="0 0 80 80" fill="none" xmlns="http://www.w3.org/2000/svg">
<path d="M5 19.9828C5.10377 19.9943 5.2081 20 5.3125 20H54.6875C54.7919 20 54.8962 19.9943 55 19.9828V21.25H57.5V5.3125C57.4992 4.56683 57.2026 3.85194 56.6753 3.32468C56.1481 2.79741 55.4332 2.50083 54.6875 2.5H5.3125C4.56683 2.50083 3.85194 2.79741 3.32468 3.32468C2.79741 3.85194 2.50083 4.56683 2.5 5.3125V25H5V19.9828ZM5 5.3125C5.00008 5.22965 5.03303 5.15021 5.09162 5.09162C5.15021 5.03303 5.22965 5.00008 5.3125 5H54.6875C54.7704 5.00008 54.8498 5.03303 54.9084 5.09162C54.967 5.15021 54.9999 5.22965 55 5.3125V17.1875C54.9999 17.2704 54.967 17.3498 54.9084 17.4084C54.8498 17.467 54.7704 17.4999 54.6875 17.5H5.3125C5.22965 17.4999 5.15021 17.467 5.09162 17.4084C5.03303 17.3498 5.00008 17.2704 5 17.1875V5.3125ZM48.3353 53.0005C50.2514 48.611 50.5289 43.6796 49.1172 39.1029C47.7055 34.5262 44.6984 30.608 40.6425 28.0605C36.5867 25.5131 31.7514 24.5056 27.0156 25.2212C22.2799 25.9368 17.9582 28.3279 14.836 31.96C11.7139 35.592 9.99876 40.2238 10.0023 45.0133C10.0059 49.8028 11.7279 54.432 14.8554 58.0594C17.9829 61.6868 22.3082 64.0715 27.045 64.78C31.7818 65.4886 36.6156 64.4739 40.6677 61.9205L39.3325 59.8067C35.7918 62.0348 31.5692 62.9187 27.4321 62.2978C23.295 61.6768 19.5179 59.5923 16.7873 56.423C14.0566 53.2536 12.5536 49.2098 12.5514 45.0264C12.5491 40.8429 14.0478 36.7975 16.775 33.6252C19.5022 30.4529 23.277 28.3643 27.4134 27.7389C31.5499 27.1135 35.7734 27.9929 39.3165 30.2171C42.8597 32.4414 45.4873 35.863 46.7219 39.8601C47.9564 43.8572 47.716 48.1646 46.0444 51.9995L48.3353 53.0005Z" fill="#2EB4FF"/>
<path d="M30 16.25C30.9889 16.25 31.9556 15.9568 32.7779 15.4074C33.6001 14.8579 34.241 14.0771 34.6194 13.1634C34.9978 12.2498 35.0969 11.2445 34.9039 10.2746C34.711 9.30465 34.2348 8.41373 33.5355 7.71447C32.8363 7.01521 31.9454 6.539 30.9755 6.34608C30.0055 6.15315 29.0002 6.25217 28.0866 6.6306C27.173 7.00904 26.3921 7.64991 25.8427 8.47215C25.2932 9.2944 25 10.2611 25 11.25C25.0015 12.5756 25.5288 13.8465 26.4661 14.7839C27.4035 15.7213 28.6744 16.2485 30 16.25ZM30 8.75C30.4945 8.75 30.9778 8.89662 31.3889 9.17133C31.8 9.44603 32.1205 9.83648 32.3097 10.2933C32.4989 10.7501 32.5484 11.2528 32.452 11.7377C32.3555 12.2227 32.1174 12.6681 31.7678 13.0178C31.4181 13.3674 30.9727 13.6055 30.4877 13.702C30.0028 13.7984 29.5001 13.7489 29.0433 13.5597C28.5865 13.3705 28.196 13.0501 27.9213 12.6389C27.6466 12.2278 27.5 11.7445 27.5 11.25C27.5007 10.5872 27.7644 9.95174 28.2331 9.48306C28.7017 9.01438 29.3372 8.75075 30 8.75ZM21.25 12.5H23.75V15H21.25V12.5ZM21.25 7.5H23.75V10H21.25V7.5ZM36.25 12.5H38.75V15H36.25V12.5ZM36.25 7.5H38.75V10H36.25V7.5ZM41.25 16.25H52.5C52.8315 16.25 53.1495 16.1183 53.3839 15.8839C53.6183 15.6495 53.75 15.3315 53.75 15V7.5C53.75 7.16848 53.6183 6.85054 53.3839 6.61612C53.1495 6.3817 52.8315 6.25 52.5 6.25H41.25C40.9185 6.25 40.6005 6.3817 40.3661 6.61612C40.1317 6.85054 40 7.16848 40 7.5V15C40 15.3315 40.1317 15.6495 40.3661 15.8839C40.6005 16.1183 40.9185 16.25 41.25 16.25ZM42.5 8.75H51.25V13.75H42.5V8.75ZM11.875 15H15.625C16.7849 14.9987 17.897 14.5374 18.7172 13.7172C19.5374 12.897 19.9987 11.7849 20 10.625V8.75C20 8.41848 19.8683 8.10054 19.6339 7.86612C19.3995 7.6317 19.0815 7.5 18.75 7.5H8.75C8.41848 7.5 8.10054 7.6317 7.86612 7.86612C7.6317 8.10054 7.5 8.41848 7.5 8.75V10.625C7.50128 11.7849 7.96263 12.897 8.78282 13.7172C9.60302 14.5374 10.7151 14.9987 11.875 15ZM10 10H17.5V10.625C17.4995 11.1221 17.3017 11.5987 16.9502 11.9502C16.5987 12.3017 16.1221 12.4995 15.625 12.5H11.875C11.3779 12.4995 10.9013 12.3017 10.5498 11.9502C10.1983 11.5987 10.0005 11.1221 10 10.625V10ZM46.25 22.5H52.5V25H46.25V22.5ZM35 47.5H37.5V50H35V47.5ZM31.25 52.5H33.75V55H31.25V52.5ZM23.75 51.25H26.25V53.75H23.75V51.25Z" fill="#2EB4FF"/>
<path d="M30 30C27.0333 30 24.1332 30.8797 21.6665 32.528C19.1997 34.1762 17.2771 36.5189 16.1418 39.2597C15.0065 42.0006 14.7094 45.0166 15.2882 47.9264C15.867 50.8361 17.2956 53.5088 19.3934 55.6066C21.4912 57.7044 24.1639 59.133 27.0737 59.7118C29.9834 60.2906 32.9994 59.9935 35.7403 58.8582C38.4811 57.7229 40.8238 55.8003 42.472 53.3336C44.1203 50.8668 45 47.9667 45 45C44.9955 41.0231 43.4137 37.2104 40.6016 34.3984C37.7896 31.5863 33.9769 30.0045 30 30ZM30 32.5C32.6915 32.5033 35.3104 33.3738 37.4684 34.9823C39.6264 36.5909 41.2087 38.8519 41.9808 41.4303C41.0398 41.2412 40.0811 41.1539 39.1214 41.1698C34.7295 41.2144 32.4639 43.0406 30.4652 44.6517C28.5397 46.2041 26.8767 47.5445 23.3524 47.5803C20.5495 47.6092 18.8963 46.76 17.5255 45.8016C17.5086 45.5366 17.5001 45.2694 17.5 45C17.5037 41.6859 18.8219 38.5087 21.1653 36.1653C23.5087 33.8219 26.6859 32.5037 30 32.5ZM30 57.5C27.3952 57.4969 24.8562 56.6816 22.7366 55.1676C20.617 53.6536 19.0223 51.5163 18.1745 49.0533C19.5167 49.665 21.1291 50.0811 23.2163 50.0811C23.2697 50.0811 23.3238 50.0808 23.3777 50.0802C27.7699 50.0356 30.0355 48.2094 32.0342 46.5981C33.9599 45.0459 35.6227 43.7055 39.1469 43.6697C40.2739 43.641 41.3976 43.8022 42.4711 44.1466C42.4904 44.4286 42.5 44.7131 42.5 45C42.4963 48.3141 41.1781 51.4913 38.8347 53.8347C36.4913 56.1781 33.3141 57.4963 30 57.5Z" fill="#2EB4FF"/>
<path d="M73.125 55.0001H69.9828C69.9943 54.8963 70 54.792 70 54.6876V34.6876C69.9982 33.2758 69.4942 31.9107 68.5782 30.8365C67.6621 29.7622 66.3938 29.0489 65 28.8242V26.5626C64.9992 25.8169 64.7026 25.102 64.1753 24.5748C63.6481 24.0475 62.9332 23.7509 62.1875 23.7501H57.8125C57.0668 23.7509 56.3519 24.0475 55.8247 24.5748C55.2974 25.102 55.0008 25.8169 55 26.5626V29.7051L53.2916 33.1215C52.7723 34.1634 52.5014 35.3114 52.5 36.4756V54.6876C52.5 54.792 52.5057 54.8963 52.5172 55.0001H46.875C45.7151 55.0014 44.603 55.4627 43.7828 56.2829C42.9626 57.1031 42.5013 58.2152 42.5 59.3751V63.1251C42.4997 63.7075 42.6159 64.284 42.842 64.8207C43.068 65.3574 43.3992 65.8434 43.8161 66.2501C43.3992 66.6567 43.068 67.1428 42.842 67.6795C42.6159 68.2162 42.4997 68.7927 42.5 69.3751V73.1251C42.4992 73.7738 42.6436 74.4144 42.9225 75.0001H22.5V68.7501C22.5 68.4186 22.3683 68.1006 22.1339 67.8662C21.8995 67.6318 21.5815 67.5001 21.25 67.5001H8.75C8.41848 67.5001 8.10054 67.6318 7.86612 67.8662C7.6317 68.1006 7.5 68.4186 7.5 68.7501V75.0001H5.3125C5.22965 75 5.15021 74.9671 5.09162 74.9085C5.03303 74.8499 5.00008 74.7704 5 74.6876V27.5001H2.5V74.6876C2.50083 75.4333 2.79741 76.1481 3.32468 76.6754C3.85194 77.2027 4.56683 77.4993 5.3125 77.5001H67.5V75.0001H46.875C46.3779 74.9995 45.9013 74.8018 45.5498 74.4503C45.1983 74.0988 45.0005 73.6222 45 73.1251V69.3751C45.0005 68.878 45.1983 68.4014 45.5498 68.0499C45.9013 67.6983 46.3779 67.5006 46.875 67.5001H73.125C73.6221 67.5006 74.0987 67.6983 74.4502 68.0499C74.8017 68.4014 74.9995 68.878 75 69.3751V73.1251C74.9995 73.6222 74.8017 74.0988 74.4502 74.4503C74.0987 74.8018 73.6221 74.9995 73.125 75.0001H70V77.5001H73.125C74.2849 77.4988 75.397 77.0375 76.2172 76.2173C77.0374 75.3971 77.4987 74.285 77.5 73.1251V69.3751C77.5003 68.7927 77.3841 68.2162 77.158 67.6795C76.932 67.1428 76.6008 66.6567 76.1839 66.2501C76.6008 65.8434 76.932 65.3574 77.158 64.8207C77.3841 64.284 77.5003 63.7075 77.5 63.1251V59.3751C77.4987 58.2152 77.0374 57.1031 76.2172 56.2829C75.397 55.4627 74.2849 55.0014 73.125 55.0001ZM10 75.0001V70.0001H13.75V72.5001H16.25V70.0001H20V75.0001H10ZM55 45.0001H67.5V50.0001H55V45.0001ZM67.5 34.6876V37.5001H66.875C66.3779 37.4995 65.9013 37.3018 65.5498 36.9503C65.1983 36.5988 65.0005 36.1222 65 35.6251V31.3799C65.7194 31.5849 66.3525 32.0186 66.8036 32.6154C67.2546 33.2121 67.4991 33.9395 67.5 34.6876ZM57.5 26.5626C57.5001 26.4797 57.533 26.4003 57.5916 26.3417C57.6502 26.2831 57.7296 26.2502 57.8125 26.2501H62.1875C62.2704 26.2502 62.3498 26.2831 62.4084 26.3417C62.467 26.4003 62.4999 26.4797 62.5 26.5626V28.7501H57.5V26.5626ZM55.5278 34.2395L57.0225 31.2501H62.5V35.6251C62.5013 36.785 62.9626 37.8971 63.7828 38.7173C64.603 39.5375 65.7151 39.9988 66.875 40.0001H67.5V42.5001H55V36.4756C55.0009 35.6994 55.1816 34.9341 55.5278 34.2395ZM55 54.6876V52.5001H67.5V54.6876C67.4999 54.7704 67.467 54.8499 67.4084 54.9085C67.3498 54.9671 67.2704 55 67.1875 55.0001H55.3125C55.2296 55 55.1502 54.9671 55.0916 54.9085C55.033 54.8499 55.0001 54.7704 55 54.6876ZM46.875 65.0001C46.3779 64.9995 45.9013 64.8018 45.5498 64.4503C45.1983 64.0988 45.0005 63.6222 45 63.1251V59.3751C45.0005 58.878 45.1983 58.4014 45.5498 58.0499C45.9013 57.6983 46.3779 57.5006 46.875 57.5001H73.125C73.6221 57.5006 74.0987 57.6983 74.4502 58.0499C74.8017 58.4014 74.9995 58.878 75 59.3751V63.1251C74.9995 63.6222 74.8017 64.0988 74.4502 64.4503C74.0987 64.8018 73.6221 64.9995 73.125 65.0001H46.875ZM60.6502 9.22181L63.1572 10.5929L64.5283 13.0999C64.6359 13.2968 64.7945 13.461 64.9875 13.5754C65.1805 13.6898 65.4007 13.7502 65.625 13.7502C65.8493 13.7502 66.0695 13.6898 66.2625 13.5754C66.4555 13.461 66.6141 13.2968 66.7217 13.0999L68.0928 10.5929L70.5998 9.22181C70.7967 9.11417 70.9609 8.95555 71.0753 8.76258C71.1897 8.56962 71.2501 8.34942 71.2501 8.12509C71.2501 7.90075 71.1897 7.68056 71.0753 7.48759C70.9609 7.29462 70.7967 7.136 70.5998 7.02837L68.0928 5.65727L66.7217 3.15024C66.6141 2.95342 66.4555 2.78919 66.2625 2.67478C66.0695 2.56037 65.8493 2.5 65.625 2.5C65.4007 2.5 65.1805 2.56037 64.9875 2.67478C64.7945 2.78919 64.6359 2.95342 64.5283 3.15024L63.1572 5.65727L60.6502 7.02837C60.4533 7.136 60.2891 7.29462 60.1747 7.48759C60.0603 7.68056 59.9999 7.90075 59.9999 8.12509C59.9999 8.34942 60.0603 8.56962 60.1747 8.76258C60.2891 8.95555 60.4533 9.11417 60.6502 9.22181ZM64.6781 7.67509C64.8879 7.56038 65.0603 7.38794 65.175 7.17821L65.625 6.35509L66.075 7.17806C66.1897 7.38778 66.3621 7.56022 66.5719 7.67493L67.3952 8.12509L66.5722 8.57509C66.3625 8.68979 66.19 8.86223 66.0753 9.07196L65.625 9.89509L65.175 9.07196C65.0603 8.86223 64.8879 8.68979 64.6781 8.57509L63.8548 8.12509L64.6781 7.67509ZM70.7783 15.6502L69.4072 18.1573L66.9002 19.5284C66.7033 19.636 66.5391 19.7946 66.4247 19.9876C66.3103 20.1806 66.2499 20.4008 66.2499 20.6251C66.2499 20.8494 66.3103 21.0696 66.4247 21.2626C66.5391 21.4556 66.7033 21.6142 66.9002 21.7218L69.4072 23.0929L70.7783 25.5999C70.8859 25.7968 71.0445 25.961 71.2375 26.0754C71.4305 26.1898 71.6507 26.2502 71.875 26.2502C72.0993 26.2502 72.3195 26.1898 72.5125 26.0754C72.7055 25.961 72.8641 25.7968 72.9717 25.5999L74.3428 23.0929L76.8498 21.7218C77.0467 21.6142 77.2109 21.4556 77.3253 21.2626C77.4397 21.0696 77.5001 20.8494 77.5001 20.6251C77.5001 20.4008 77.4397 20.1806 77.3253 19.9876C77.2109 19.7946 77.0467 19.636 76.8498 19.5284L74.3428 18.1573L72.9717 15.6502C72.8641 15.4534 72.7055 15.2892 72.5125 15.1748C72.3195 15.0604 72.0993 15 71.875 15C71.6507 15 71.4305 15.0604 71.2375 15.1748C71.0445 15.2892 70.8859 15.4534 70.7783 15.6502ZM71.4248 19.6782L71.875 18.8551L72.325 19.6782C72.4397 19.8879 72.6121 20.0604 72.8219 20.1751L73.6452 20.6251L72.822 21.0751C72.6123 21.1898 72.4399 21.3622 72.3252 21.572L71.875 22.3951L71.425 21.5721C71.3103 21.3624 71.1379 21.1899 70.9281 21.0752L70.1048 20.6251L70.9278 20.1751C71.1375 20.0604 71.3101 19.8879 71.4248 19.6782Z" fill="#2EB4FF"/>
</svg>
