<svg width="80" height="80" viewBox="0 0 80 80" fill="none" xmlns="http://www.w3.org/2000/svg">
<g clip-path="url(#clip0_75_1213)">
<path d="M13.6676 40.28C13.0578 39.6697 12.0684 39.6697 11.4581 40.28C10.8478 40.8897 10.8478 41.8791 11.4581 42.4894L22.1343 53.1657C22.2792 53.3111 22.4514 53.4263 22.641 53.5049C22.8305 53.5834 23.0338 53.6238 23.239 53.6235C23.4442 53.6238 23.6475 53.5835 23.8371 53.505C24.0266 53.4264 24.1988 53.3111 24.3437 53.1657C24.9541 52.5559 24.9541 51.5665 24.3437 50.9564L13.6676 40.28ZM29.8962 56.5079C29.2859 55.8976 28.2965 55.8976 27.6868 56.5073C27.0759 57.1171 27.0759 58.1065 27.6855 58.7168L27.7819 58.8132C27.9268 58.9588 28.0991 59.0742 28.2888 59.1529C28.4785 59.2316 28.6819 59.272 28.8873 59.2716C29.0923 59.2719 29.2954 59.2317 29.4849 59.1532C29.6744 59.0747 29.8465 58.9596 29.9913 58.8145C30.6023 58.2041 30.6023 57.2154 29.9926 56.6045L29.8962 56.5079ZM8.71093 76.8741C8.29843 76.8741 7.89687 77.0395 7.60625 77.33C7.31436 77.6237 7.14989 78.0206 7.14844 78.4347C7.14844 78.8474 7.31562 79.2489 7.60625 79.5394C7.89687 79.8319 8.30015 79.9984 8.71093 79.9984C9.12171 79.9984 9.52499 79.8319 9.81561 79.5395C10.1062 79.2489 10.2734 78.8473 10.2734 78.4348C10.2734 78.0239 10.1062 77.6205 9.81561 77.3302C9.52172 77.0387 9.12482 76.8749 8.71093 76.8741ZM71.3987 0H42.3369C37.5982 0 33.7432 3.85498 33.7432 8.59372V26.2493C33.7432 30.988 37.5982 34.843 42.3369 34.843H45.9306V36.4836C45.9306 36.7499 45.9986 37.0118 46.1283 37.2443C46.258 37.4769 46.445 37.6724 46.6716 37.8124C46.898 37.9527 47.1567 38.0326 47.4228 38.0446C47.6889 38.0566 47.9537 38.0002 48.1919 37.8808L54.2679 34.843H71.3987C76.1374 34.843 79.9924 30.988 79.9924 26.2493V8.59372C79.9924 3.85498 76.1374 0 71.3987 0ZM76.8674 26.2493C76.8674 29.2649 74.4138 31.718 71.3987 31.718H53.8993C53.6564 31.718 53.4172 31.7743 53.2004 31.8828L49.0556 33.9555V33.2805C49.0556 32.4175 48.3561 31.718 47.4931 31.718H42.3369C39.3213 31.718 36.8682 29.2649 36.8682 26.2493V8.59372C36.8682 5.5781 39.3213 3.12499 42.3369 3.12499H71.3987C74.4138 3.12499 76.8674 5.5781 76.8674 8.59372V26.2493Z" fill="#2EB4FF"/>
<path d="M71.3986 11.9559C70.5356 11.9559 69.8361 12.6553 69.8361 13.5184V20.7876C69.8361 21.6501 70.5356 22.3501 71.3986 22.3501C72.2616 22.3501 72.9611 21.6501 72.9611 20.7876V13.5184C72.9611 12.6553 72.2617 11.9559 71.3986 11.9559ZM47.1806 11.9559H43.0272C42.1642 11.9559 41.4647 12.6553 41.4647 13.5184C41.4647 14.3813 42.1642 15.0809 43.0272 15.0809H43.5412V20.7876C43.5412 21.6501 44.2406 22.3501 45.1037 22.3501C45.9665 22.3501 46.6662 21.6501 46.6662 20.7876V15.0809H47.1806C48.0435 15.0809 48.7431 14.3813 48.7431 13.5184C48.7431 12.6553 48.0435 11.9559 47.1806 11.9559ZM66.6806 12.1689C65.9347 11.7337 64.9783 11.9857 64.5438 12.7309L63.7063 14.1671L62.8683 12.7309C62.434 11.9856 61.4768 11.7337 60.7316 12.1689C59.9863 12.6034 59.7347 13.5604 60.1694 14.3057L61.8974 17.2682L60.1693 20.2309C59.7349 20.9762 59.9865 21.9332 60.7316 22.3677C60.9088 22.4713 61.1047 22.5389 61.3081 22.5666C61.5114 22.5944 61.7183 22.5818 61.9168 22.5295C62.1153 22.4772 62.3015 22.3863 62.4648 22.262C62.6281 22.1377 62.7653 21.9823 62.8685 21.8049L63.7064 20.3694L64.5438 21.8051C64.647 21.9825 64.7842 22.1378 64.9475 22.2621C65.1108 22.3864 65.297 22.4773 65.4955 22.5296C65.694 22.5818 65.9008 22.5944 66.1042 22.5667C66.3076 22.5389 66.5035 22.4713 66.6806 22.3677C67.426 21.9332 67.6774 20.9762 67.2427 20.2309L65.5149 17.2684L67.2427 14.3057C67.6774 13.5604 67.4258 12.6034 66.6806 12.1689ZM55.3185 12.936C55.2024 12.6466 55.0022 12.3985 54.7439 12.2238C54.4855 12.0491 54.1807 11.9558 53.8688 11.9559C53.5569 11.9559 53.2521 12.0492 52.9936 12.2239C52.7351 12.3986 52.5348 12.6466 52.4185 12.936L49.4084 20.436C49.0873 21.2368 49.4756 22.1469 50.2768 22.4679C50.4615 22.5426 50.6589 22.5809 50.8581 22.5808C51.4774 22.5808 52.064 22.2098 52.3087 21.5999L53.8688 17.7132L55.4288 21.5999C55.7505 22.4007 56.6599 22.7894 57.4607 22.4679C58.2615 22.1468 58.6502 21.2368 58.3287 20.436L55.3185 12.936ZM66.2613 66.1963C64.0977 66.1963 62.0633 67.0385 60.5332 68.5688L60.4807 68.6219L57.5033 65.6446C58.1112 65.2407 58.7029 64.8132 59.2771 64.3629C60.0207 63.7788 60.632 63.0438 61.0708 62.2062C61.5096 61.3687 61.7659 60.4476 61.8229 59.5038C61.8792 58.5599 61.7347 57.6148 61.3991 56.7307C61.0635 55.8467 60.5443 55.0439 59.8758 54.3751L50.0815 44.5808C47.4748 41.9734 43.2328 41.9734 40.6248 44.5808L37.4389 47.7667C37.2267 47.9802 36.9743 48.1495 36.6962 48.2648C36.4181 48.3801 36.1199 48.439 35.8189 48.4382C35.518 48.439 35.22 48.38 34.942 48.2647C34.6641 48.1495 34.4118 47.9803 34.1997 47.7668L22.4968 36.0641C22.2834 35.8519 22.1143 35.5995 21.9992 35.3216C21.8841 35.0436 21.8253 34.7456 21.8261 34.4447C21.8261 33.8753 22.0347 33.3388 22.4121 32.9189C22.4377 32.8957 22.464 32.8742 22.489 32.8492C22.5322 32.806 22.5713 32.7602 22.6085 32.7133L25.6835 29.6388C28.2903 27.0315 28.2903 22.7894 25.6835 20.1821L15.8971 10.3957C15.2281 9.72746 14.4251 9.20849 13.541 8.87301C12.6568 8.53752 11.7117 8.39313 10.7677 8.44934C9.82393 8.50628 8.9029 8.76261 8.06536 9.20142C7.22782 9.64023 6.49279 10.2516 5.90871 10.9951C-2.7436 22.0162 -1.79626 37.7986 8.11151 47.7064L22.5658 62.1607C27.9399 67.5349 35.0402 70.2722 42.1739 70.2716C46.4653 70.2716 50.7688 69.2793 54.7141 67.2747L58.2707 70.8313L55.8415 73.2611C53.5112 75.5914 50.4131 76.875 47.1178 76.875H14.7002C13.8373 76.875 13.1377 77.5744 13.1377 78.4375C13.1377 79.3 13.8373 80 14.7002 80H47.1178C51.2479 80 55.1302 78.3917 58.0508 75.4713L60.4861 73.036C61.9822 74.4049 63.9085 75.1544 65.9488 75.1544H66.2613C68.7314 75.1544 70.7406 73.145 70.7406 70.6757C70.7406 68.2057 68.7313 66.1963 66.2613 66.1963ZM47.8721 46.7901L57.6663 56.5846C58.3969 57.3151 58.7651 58.2849 58.7033 59.3165C58.6412 60.3474 58.1596 61.2671 57.3471 61.9049C56.6701 62.4356 55.9658 62.9307 55.2373 63.388L40.7372 48.8881L42.8343 46.7903C44.2234 45.4017 46.4829 45.4017 47.8721 46.7903V46.7901ZM8.36666 12.9246C9.00447 12.1121 9.92369 11.6306 10.9551 11.5684C11.0296 11.5642 11.104 11.5617 11.1779 11.5617C12.1252 11.5617 13.0096 11.9279 13.6871 12.6054L23.4733 22.3918C24.8625 23.7802 24.8625 26.0404 23.4733 27.429L21.3757 29.5268L6.88355 15.0346C7.34055 14.3058 7.83561 13.6014 8.36666 12.9246ZM24.7754 59.9507L10.321 45.4964C2.937 38.1123 1.16388 27.0516 5.33433 17.9049L19.3315 31.9027C18.9194 32.676 18.701 33.5433 18.701 34.4449C18.701 35.8913 19.2637 37.2511 20.2866 38.2734L31.9894 49.9764C33.0123 50.9992 34.3722 51.5626 35.8187 51.5626C36.7197 51.5626 37.5875 51.3435 38.3609 50.9314L52.366 64.9372C43.2198 69.1077 32.1591 67.3346 24.7752 59.9505L24.7754 59.9507ZM66.2613 72.0296H65.9488C64.7427 72.0296 63.6027 71.603 62.6993 70.8224L62.7433 70.7783C63.6825 69.8385 64.9325 69.3208 66.2613 69.3208C67.0083 69.3208 67.6156 69.9286 67.6156 70.6752C67.6156 71.4218 67.0083 72.0296 66.2613 72.0296Z" fill="#2EB4FF"/>
</g>
<defs>
<clipPath id="clip0_75_1213">
<rect width="80" height="80" fill="white"/>
</clipPath>
</defs>
</svg>
