<svg width="80" height="81" viewBox="0 0 80 81" fill="none" xmlns="http://www.w3.org/2000/svg">
<path d="M31.4757 36.7609C32.1231 36.7609 32.6476 36.2364 32.6476 35.5891C32.6476 34.9417 32.1231 34.4172 31.4757 34.4172H28.4276C28.2737 34.4172 28.1213 34.4475 27.9791 34.5064C27.8369 34.5652 27.7077 34.6516 27.5989 34.7604C27.4901 34.8692 27.4038 34.9984 27.3449 35.1406C27.286 35.2828 27.2557 35.4352 27.2557 35.5891V43.1094C27.2557 43.7567 27.7803 44.2812 28.4276 44.2812C29.0749 44.2812 29.5995 43.7567 29.5995 43.1094V40.4498H31.2335C31.8809 40.4498 32.4054 39.9253 32.4054 39.278C32.4054 38.6306 31.8809 38.1061 31.2335 38.1061H29.5995V36.7609H31.4757ZM45.1728 36.7678C45.8201 36.7678 46.3446 36.2433 46.3446 35.5959C46.3446 34.9486 45.8201 34.4241 45.1728 34.4241H42.0098C41.8559 34.424 41.7035 34.4543 41.5613 34.5132C41.4191 34.5721 41.2899 34.6584 41.1811 34.7673C41.0723 34.8761 40.986 35.0053 40.9271 35.1475C40.8682 35.2896 40.8379 35.442 40.8379 35.5959V43.1025C40.8379 43.7498 41.3624 44.2744 42.0098 44.2744H45.1728C45.8201 44.2744 46.3446 43.7498 46.3446 43.1025C46.3446 42.4552 45.8201 41.9306 45.1728 41.9306H43.1817V40.5211H44.9395C45.5868 40.5211 46.1114 39.9966 46.1114 39.3492C46.1114 38.7019 45.5868 38.1773 44.9395 38.1773H43.1817V36.7678H45.1728ZM51.5737 36.7678C52.221 36.7678 52.7456 36.2433 52.7456 35.5959C52.7456 34.9486 52.221 34.4241 51.5737 34.4241H48.4109C48.257 34.424 48.1046 34.4543 47.9624 34.5132C47.8202 34.5721 47.691 34.6584 47.5822 34.7673C47.4734 34.8761 47.3871 35.0053 47.3282 35.1475C47.2693 35.2896 47.239 35.442 47.239 35.5959V43.1025C47.239 43.7498 47.7635 44.2744 48.4109 44.2744H51.5737C52.221 44.2744 52.7456 43.7498 52.7456 43.1025C52.7456 42.4552 52.221 41.9306 51.5737 41.9306H49.5828V40.5211H51.3406C51.9879 40.5211 52.5124 39.9966 52.5124 39.3492C52.5124 38.7019 51.9879 38.1773 51.3406 38.1773H49.5828V36.7678H51.5737ZM39.9392 37.53C39.9392 35.7981 38.4803 34.3892 36.687 34.3892H34.6714C34.5175 34.3892 34.3651 34.4195 34.2229 34.4784C34.0807 34.5373 33.9515 34.6236 33.8427 34.7324C33.7338 34.8412 33.6475 34.9704 33.5886 35.1126C33.5298 35.2548 33.4995 35.4072 33.4995 35.5611V43.1369C33.4995 43.7842 34.024 44.3088 34.6714 44.3088C35.3187 44.3088 35.8432 43.7842 35.8432 43.1369V41.5883L37.8876 43.9111C37.9975 44.0363 38.1329 44.1365 38.2847 44.2051C38.4365 44.2737 38.6012 44.309 38.7678 44.3088C38.9931 44.3087 39.2137 44.2436 39.403 44.1213C39.5924 43.999 39.7424 43.8247 39.8352 43.6194C39.928 43.414 39.9596 43.1862 39.9262 42.9633C39.8928 42.7404 39.7959 42.5318 39.647 42.3627L37.9429 40.4266C39.1145 39.9513 39.9392 38.832 39.9392 37.53ZM36.687 36.7331C37.171 36.7331 37.5954 37.1056 37.5954 37.5302C37.5954 37.9547 37.1709 38.3272 36.687 38.3272C36.4867 38.3272 36.1732 38.3283 35.8534 38.3298C35.8518 38.0214 35.8507 37.7217 35.8507 37.5303C35.8507 37.3655 35.8501 37.0577 35.8492 36.7333H36.687V36.7331ZM53.527 12.8741C53.7575 12.8739 53.9828 12.8058 54.1747 12.6782C54.3667 12.5507 54.5168 12.3694 54.6063 12.157C54.6958 11.9446 54.7207 11.7106 54.6779 11.4841C54.6351 11.2576 54.5264 11.0488 54.3656 10.8837C50.5554 6.97875 45.4539 4.82812 40.0009 4.82812C34.5479 4.82812 29.4462 6.97875 25.6359 10.8836C25.4188 11.106 25.299 11.4056 25.3028 11.7164C25.3066 12.0272 25.4337 12.3237 25.6562 12.5408C25.8786 12.7578 26.1782 12.8776 26.489 12.8738C26.7998 12.87 27.0963 12.7429 27.3134 12.5205C30.6788 9.07141 35.1846 7.17188 40.0007 7.17188C44.8167 7.17188 49.3224 9.07141 52.6879 12.5205C52.797 12.6326 52.9275 12.7216 53.0716 12.7823C53.2157 12.8431 53.3706 12.8743 53.527 12.8741Z" fill="#2EB4FF"/>
<path d="M23.8971 9.10828C28.1751 4.74609 33.894 2.34375 40.0003 2.34375C46.1065 2.34375 51.8253 4.74609 56.1031 9.10828C56.212 9.2197 56.3422 9.30819 56.4858 9.36854C56.6295 9.42889 56.7838 9.45988 56.9396 9.45969C57.2466 9.46009 57.5413 9.33963 57.7601 9.12437C57.87 9.01665 57.9576 8.88834 58.0179 8.74675C58.0782 8.60517 58.11 8.4531 58.1115 8.29922C58.113 8.14535 58.0842 7.99268 58.0267 7.84995C57.9692 7.70721 57.8841 7.5772 57.7764 7.46734C53.0542 2.65203 46.7412 0 40.0003 0C33.2592 0 26.9462 2.65203 22.2239 7.46734C22.1161 7.5772 22.031 7.70721 21.9735 7.84995C21.916 7.99268 21.8872 8.14535 21.8887 8.29922C21.8902 8.4531 21.922 8.60517 21.9823 8.74675C22.0426 8.88834 22.1302 9.01665 22.2401 9.12437C22.7021 9.5775 23.4443 9.57078 23.8971 9.10828ZM49.7578 16.6425C49.9878 16.6425 50.2128 16.5747 50.4046 16.4477C50.5964 16.3207 50.7466 16.1401 50.8364 15.9283C50.9263 15.7166 50.9518 15.483 50.9098 15.2569C50.8679 15.0307 50.7603 14.8218 50.6004 14.6564C47.7953 11.7534 44.0307 10.1547 40.0003 10.1547C35.9698 10.1547 32.2051 11.7533 29.3998 14.6562C29.2924 14.7668 29.2078 14.8975 29.151 15.0408C29.0941 15.1841 29.0661 15.3372 29.0686 15.4914C29.071 15.6455 29.1038 15.7977 29.1652 15.9391C29.2265 16.0805 29.3151 16.2085 29.426 16.3156C29.5369 16.4227 29.6678 16.5069 29.8112 16.5634C29.9547 16.6198 30.1079 16.6474 30.262 16.6445C30.4162 16.6417 30.5682 16.6084 30.7095 16.5467C30.8507 16.485 30.9785 16.396 31.0853 16.2848C33.445 13.843 36.6109 12.4983 40.0003 12.4983C43.3893 12.4983 46.5554 13.843 48.915 16.2848C49.0241 16.3981 49.155 16.4882 49.2999 16.5497C49.4447 16.6111 49.6004 16.6427 49.7578 16.6425Z" fill="#2EB4FF"/>
<path d="M45.2737 19.9079C45.4885 20.1287 45.7816 20.2561 46.0896 20.2625C46.3976 20.2688 46.6957 20.1537 46.9194 19.9419C47.1432 19.7302 47.2746 19.4388 47.2851 19.131C47.2957 18.8231 47.1847 18.5234 46.976 18.2968C45.1416 16.3585 42.6641 15.291 40.0001 15.291C37.3359 15.291 34.8584 16.3585 33.024 18.297C32.8665 18.4633 32.7613 18.6721 32.7212 18.8976C32.6811 19.1231 32.708 19.3554 32.7986 19.5658C32.8891 19.7762 33.0393 19.9554 33.2306 20.0814C33.4219 20.2073 33.6459 20.2744 33.8749 20.2745C34.0343 20.2747 34.192 20.2423 34.3384 20.1793C34.4848 20.1163 34.6168 20.024 34.7262 19.908C36.1135 18.4421 37.9865 17.6348 40.0001 17.6348C42.0137 17.6348 43.8865 18.442 45.2737 19.9079ZM40.0001 20.3613C39.3515 20.3618 38.7106 20.5014 38.1206 20.7708C37.5305 21.0401 37.0052 21.4329 36.5799 21.9226C36.3759 22.157 36.2734 22.463 36.2949 22.773C36.3165 23.0831 36.4603 23.3718 36.6948 23.5759C36.8108 23.6769 36.9457 23.7541 37.0916 23.803C37.2375 23.8519 37.3917 23.8716 37.5452 23.861C37.6987 23.8503 37.8487 23.8095 37.9864 23.7409C38.1242 23.6722 38.2471 23.5771 38.348 23.461C38.5533 23.2242 38.807 23.0342 39.0919 22.9038C39.3769 22.7734 39.6865 22.7056 39.9999 22.7051C40.3133 22.7056 40.6229 22.7734 40.9078 22.9038C41.1928 23.0342 41.4464 23.2242 41.6516 23.461C41.7616 23.5877 41.8974 23.6892 42.0501 23.7586C42.2027 23.8281 42.3685 23.8639 42.5362 23.8637C42.761 23.8636 42.981 23.7988 43.1701 23.6771C43.3591 23.5554 43.5091 23.3819 43.6023 23.1773C43.6954 22.9727 43.7277 22.7456 43.6954 22.5231C43.663 22.3007 43.5673 22.0922 43.4198 21.9226C42.9946 21.4329 42.4693 21.0401 41.8794 20.7707C41.2895 20.5014 40.6486 20.3618 40.0001 20.3613ZM57.3277 55.7452C57.9751 55.7452 58.4996 55.2207 58.4996 54.5734C58.4996 53.926 57.9751 53.4015 57.3277 53.4015H50.3387C50.1848 53.4015 50.0324 53.4318 49.8902 53.4906C49.748 53.5495 49.6188 53.6359 49.51 53.7447C49.4012 53.8535 49.3148 53.9827 49.256 54.1249C49.1971 54.2671 49.1668 54.4195 49.1668 54.5734V71.8177C49.1668 72.4651 49.6913 72.9896 50.3387 72.9896C50.986 72.9896 51.5105 72.4651 51.5105 71.8177V64.204H56.7726C57.4199 64.204 57.9445 63.6795 57.9445 63.0321C57.9445 62.3848 57.4199 61.8602 56.7726 61.8602H51.5105V55.7451H57.3277V55.7452ZM35.8699 54.313L33.0852 68.3046L28.7293 54.1649C28.3707 53.0009 26.7955 52.968 26.4566 54.3024L22.1226 68.3051L19.3488 54.2826C19.223 53.6477 18.607 53.2343 17.972 53.3604C17.6671 53.4207 17.3987 53.5996 17.2257 53.8579C17.0528 54.1161 16.9895 54.4324 17.0498 54.7373C20.6629 72.9807 20.4252 71.8596 20.4796 72.0129C20.9865 73.4388 23.0079 73.3746 23.4443 71.962L27.6118 58.4979C31.9477 72.5712 31.7585 71.9618 31.7763 72.0129C32.309 73.5107 34.477 73.3299 34.7705 71.8441L38.1687 54.7705C38.1987 54.6196 38.1987 54.4642 38.1687 54.3133C38.1387 54.1624 38.0793 54.0188 37.9938 53.8909C37.9083 53.7629 37.7984 53.653 37.6705 53.5676C37.5425 53.4821 37.399 53.4226 37.248 53.3926C37.0971 53.3624 36.9417 53.3624 36.7908 53.3923C36.6398 53.4223 36.4962 53.4817 36.3682 53.5672C36.2402 53.6527 36.1303 53.7625 36.0448 53.8905C35.9593 54.0185 35.8999 54.1621 35.8699 54.313ZM41.3726 61.0946C41.2187 61.0946 41.0663 61.1249 40.9241 61.1838C40.7819 61.2427 40.6527 61.329 40.5439 61.4378C40.4351 61.5466 40.3487 61.6758 40.2899 61.818C40.231 61.9602 40.2007 62.1126 40.2007 62.2665V71.8815C40.2007 72.5288 40.7252 73.0534 41.3726 73.0534C42.0199 73.0534 42.5445 72.5288 42.5445 71.8815V62.2665C42.5445 61.6191 42.0199 61.0946 41.3726 61.0946ZM42.5445 57.3668C42.5445 56.7195 42.0199 56.1949 41.3726 56.1949C40.7252 56.1949 40.2007 56.7195 40.2007 57.3668V57.9474C40.2007 58.5948 40.7252 59.1193 41.3726 59.1193C42.0199 59.1193 42.5445 58.5948 42.5445 57.9474V57.3668ZM62.9724 62.2665C62.9724 61.6191 62.4479 61.0946 61.8005 61.0946C61.1532 61.0946 60.6287 61.6191 60.6287 62.2665V71.8815C60.6287 72.5288 61.1532 73.0534 61.8005 73.0534C62.4479 73.0534 62.9724 72.5288 62.9724 71.8815V62.2665ZM61.8005 59.1193C62.4479 59.1193 62.9724 58.5948 62.9724 57.9474V57.3668C62.9724 56.7195 62.4479 56.1949 61.8005 56.1949C61.1532 56.1949 60.6287 56.7195 60.6287 57.3668V57.9474C60.6287 58.2582 60.7521 58.5563 60.9719 58.7761C61.1917 58.9958 61.4897 59.1193 61.8005 59.1193ZM27.2551 48.903C27.2551 49.5504 27.7796 50.0749 28.427 50.0749H51.573C52.2204 50.0749 52.7449 49.5504 52.7449 48.903C52.7449 48.2557 52.2204 47.7312 51.573 47.7312H28.427C28.1162 47.7312 27.8181 47.8546 27.5983 48.0744C27.3785 48.2942 27.2551 48.5922 27.2551 48.903ZM6.98242 62.0238C6.33508 62.0238 5.81055 62.5484 5.81055 63.1957C5.81055 63.843 6.33508 64.3676 6.98242 64.3676H9.75695C10.4043 64.3676 10.9288 63.843 10.9288 63.1957C10.9288 62.5484 10.4043 62.0238 9.75695 62.0238H6.98242ZM73.0174 64.3676C73.6648 64.3676 74.1893 63.843 74.1893 63.1957C74.1893 62.5484 73.6648 62.0238 73.0174 62.0238H70.2427C69.5954 62.0238 69.0709 62.5484 69.0709 63.1957C69.0709 63.843 69.5954 64.3676 70.2427 64.3676H73.0174Z" fill="#2EB4FF"/>
<path d="M70.4983 46.395H63.9028C61.6048 46.395 59.7353 44.5253 59.7353 42.2273V36.4867C59.7353 32.0269 56.1069 28.3986 51.647 28.3986H36.2177C35.5703 28.3986 35.0458 28.9231 35.0458 29.5705C35.0458 30.2178 35.5703 30.7423 36.2177 30.7423H51.647C54.8145 30.7423 57.3916 33.3192 57.3916 36.4867V42.2273C57.3916 45.8178 60.3125 48.7387 63.9028 48.7387H70.4983C74.4452 48.7387 77.6562 51.9498 77.6562 55.8969V70.4997C77.6562 74.4466 74.4452 77.6577 70.4983 77.6577H64.1434C63.4961 77.6577 62.9716 78.1822 62.9716 78.8295C62.9716 79.4769 63.4961 80.0014 64.1434 80.0014H70.4983C75.7377 80.0014 80 75.7389 80 70.4995V55.8967C80 50.6575 75.7377 46.395 70.4983 46.395ZM59.458 77.6577H9.50187C5.55484 77.6577 2.34375 74.4466 2.34375 70.4995V55.8967C2.34375 51.9497 5.55484 48.7386 9.50187 48.7386H16.0972C19.6877 48.7386 22.6086 45.8177 22.6086 42.2272V36.4866C22.6086 33.3192 25.1855 30.7422 28.3531 30.7422H31.5327C32.18 30.7422 32.7045 30.2177 32.7045 29.5703C32.7045 28.923 32.18 28.3984 31.5327 28.3984H28.3531C23.8933 28.3984 20.2648 32.0267 20.2648 36.4866V42.2272C20.2648 44.5252 18.3952 46.3948 16.0972 46.3948H9.50187C4.2625 46.395 0 50.6575 0 55.8967V70.4995C0 75.7389 4.2625 80.0014 9.50187 80.0014H59.4581C60.1055 80.0014 60.63 79.4769 60.63 78.8295C60.63 78.1822 60.1053 77.6577 59.458 77.6577Z" fill="#2EB4FF"/>
</svg>
