<svg width="41" height="41" viewBox="0 0 41 41" fill="none" xmlns="http://www.w3.org/2000/svg">
<g clip-path="url(#clip0_257_2592)">
<path d="M34.4568 18.5484V21.1393C36.9929 22.4066 38.4665 23.9751 38.4665 25.5312C38.4665 29.0976 31.2913 31.8992 24.1924 32.4897C23.5443 32.5431 23.0625 33.112 23.1166 33.7593C23.1675 34.3819 23.7043 34.8846 24.3862 34.8359C30.5656 34.3271 40.8206 31.6607 40.8206 25.5312C40.8206 22.1836 37.5451 19.8806 34.4568 18.5484ZM13.6472 28.492C12.9935 27.8267 11.8572 28.1519 11.6577 29.0658L11.1375 31.4478C3.34516 29.3505 -0.396077 24.8395 7.00883 21.1393V18.5484C-2.70776 22.74 -1.18299 30.613 10.6345 33.7508L10.1668 35.8925C9.96621 36.8107 10.8762 37.5874 11.7539 37.2364L17.6389 34.8823C18.4175 34.571 18.6308 33.5646 18.0415 32.9646L13.6472 28.492ZM21.2495 3.39899C21.0711 3.2979 20.8695 3.24516 20.6645 3.24598C20.4595 3.24681 20.2582 3.30117 20.0807 3.4037L10.5395 8.91224L20.7314 14.7965L30.9267 8.88273L21.2495 3.39899Z" fill="white"/>
<path d="M9.36263 21.968C9.36262 22.1747 9.417 22.3776 9.5203 22.5566C9.6236 22.7355 9.77218 22.8841 9.9511 22.9874L19.5558 28.5327V16.836L9.36255 10.9509L9.36263 21.968ZM32.1031 21.968V10.9218L21.9099 16.8344V28.5327L31.5146 22.9874C31.6936 22.8841 31.8422 22.7355 31.9455 22.5566C32.0488 22.3776 32.1031 22.1747 32.1031 21.968Z" fill="white"/>
</g>
<defs>
<clipPath id="clip0_257_2592">
<rect width="40.1895" height="40.1895" fill="white" transform="translate(0.631104 0.189453)"/>
</clipPath>
</defs>
</svg>
