<svg width="22" height="18" viewBox="0 0 22 18" fill="none" xmlns="http://www.w3.org/2000/svg">
<path d="M19 0.5H3C2.20435 0.5 1.44129 0.816071 0.87868 1.37868C0.31607 1.94129 0 2.70435 0 3.5V16.5C0 16.7652 0.105357 17.0196 0.292893 17.2071C0.48043 17.3946 0.734784 17.5 1 17.5H5C5.16471 17.4991 5.32665 17.4576 5.47145 17.3791C5.61625 17.3006 5.73941 17.1876 5.83 17.05L7.54 14.5H14.46L16.17 17.05C16.2606 17.1876 16.3838 17.3006 16.5285 17.3791C16.6733 17.4576 16.8353 17.4991 17 17.5H21C21.2652 17.5 21.5196 17.3946 21.7071 17.2071C21.8946 17.0196 22 16.7652 22 16.5V3.5C22 2.70435 21.6839 1.94129 21.1213 1.37868C20.5587 0.816071 19.7956 0.5 19 0.5ZM20 15.5H17.54L15.83 13C15.7454 12.8531 15.6248 12.7302 15.4796 12.6428C15.3344 12.5553 15.1694 12.5062 15 12.5H7C6.83529 12.5009 6.67335 12.5424 6.52855 12.6209C6.38375 12.6994 6.26059 12.8124 6.17 12.95L4.46 15.5H2V10.5H20V15.5ZM6 8.5V7.5C6 7.23478 6.10536 6.98043 6.29289 6.79289C6.48043 6.60536 6.73478 6.5 7 6.5H9C9.26522 6.5 9.51957 6.60536 9.70711 6.79289C9.89464 6.98043 10 7.23478 10 7.5V8.5H6ZM12 8.5V7.5C12 7.23478 12.1054 6.98043 12.2929 6.79289C12.4804 6.60536 12.7348 6.5 13 6.5H15C15.2652 6.5 15.5196 6.60536 15.7071 6.79289C15.8946 6.98043 16 7.23478 16 7.5V8.5H12ZM20 8.5H18V7.5C18 6.70435 17.6839 5.94129 17.1213 5.37868C16.5587 4.81607 15.7956 4.5 15 4.5H13C12.2599 4.50441 11.5476 4.78221 11 5.28C10.4524 4.78221 9.74006 4.50441 9 4.5H7C6.20435 4.5 5.44129 4.81607 4.87868 5.37868C4.31607 5.94129 4 6.70435 4 7.5V8.5H2V3.5C2 3.23478 2.10536 2.98043 2.29289 2.79289C2.48043 2.60536 2.73478 2.5 3 2.5H19C19.2652 2.5 19.5196 2.60536 19.7071 2.79289C19.8946 2.98043 20 3.23478 20 3.5V8.5Z" fill="#192040"/>
</svg>
