<svg width="20" height="22" viewBox="0 0 20 22" fill="none" xmlns="http://www.w3.org/2000/svg">
<path d="M19.16 15.13L17.16 13.98L18.05 13.74C18.1807 13.7095 18.3039 13.6531 18.4124 13.574C18.5208 13.4949 18.6122 13.3948 18.6811 13.2797C18.7501 13.1645 18.7951 13.0367 18.8136 12.9037C18.832 12.7708 18.8236 12.6355 18.7887 12.5059C18.7537 12.3763 18.6931 12.2551 18.6103 12.1495C18.5276 12.0438 18.4244 11.9559 18.307 11.8909C18.1895 11.826 18.0602 11.7854 17.9267 11.7715C17.7932 11.7576 17.6583 11.7707 17.53 11.81L14.71 12.57L12 11L14.71 9.43L17.53 10.19H17.79C18.0552 10.2245 18.3233 10.1522 18.5352 9.98903C18.7471 9.82587 18.8855 9.58522 18.92 9.32C18.9545 9.05478 18.8822 8.78673 18.719 8.57482C18.5559 8.3629 18.3152 8.22448 18.05 8.19L17.16 8L19.16 6.85C19.2742 6.78434 19.3744 6.69682 19.4549 6.59243C19.5353 6.48805 19.5944 6.36885 19.6287 6.24163C19.6631 6.11441 19.6721 5.98168 19.6551 5.85099C19.6382 5.72031 19.5957 5.59425 19.53 5.48C19.4643 5.36575 19.3768 5.26555 19.2724 5.18513C19.168 5.1047 19.0488 5.04562 18.9216 5.01126C18.7944 4.97691 18.6617 4.96794 18.531 4.98488C18.4003 5.00182 18.2742 5.04434 18.16 5.11L16 6.37L16.3 5.26C16.3393 5.13169 16.3524 4.99677 16.3385 4.86328C16.3246 4.7298 16.284 4.60048 16.219 4.48303C16.1541 4.36558 16.0662 4.2624 15.9605 4.17965C15.8549 4.09689 15.7336 4.03625 15.6041 4.00133C15.4745 3.96642 15.3392 3.95795 15.2063 3.97642C15.0733 3.9949 14.9455 4.03994 14.8303 4.10886C14.7152 4.17779 14.6151 4.26919 14.536 4.37762C14.4569 4.48605 14.4004 4.60929 14.37 4.74L13.55 7.74L11 9.27V6.14L13.07 4.07C13.2562 3.88264 13.3608 3.62919 13.3608 3.365C13.3608 3.10081 13.2562 2.84736 13.07 2.66C12.977 2.56627 12.8664 2.49188 12.7446 2.44111C12.6227 2.39034 12.492 2.3642 12.36 2.3642C12.228 2.3642 12.0973 2.39034 11.9754 2.44111C11.8536 2.49188 11.743 2.56627 11.65 2.66L11 3.31V1C11 0.734784 10.8946 0.48043 10.7071 0.292893C10.5196 0.105357 10.2652 0 9.99999 0C9.73477 0 9.48042 0.105357 9.29288 0.292893C9.10535 0.48043 8.99999 0.734784 8.99999 1V3.47L8.18999 2.66C8.09703 2.56627 7.98643 2.49188 7.86457 2.44111C7.74271 2.39034 7.612 2.3642 7.47999 2.3642C7.34798 2.3642 7.21727 2.39034 7.09542 2.44111C6.97356 2.49188 6.86296 2.56627 6.76999 2.66C6.58374 2.84736 6.4792 3.10081 6.4792 3.365C6.4792 3.62919 6.58374 3.88264 6.76999 4.07L8.99999 6.3V9.3L6.42999 7.78L5.60999 4.78C5.57954 4.64929 5.52309 4.52605 5.444 4.41762C5.36492 4.30919 5.26482 4.21779 5.14966 4.14886C5.03451 4.07994 4.90666 4.03489 4.77373 4.01642C4.6408 3.99795 4.50551 4.00642 4.37592 4.04133C4.24634 4.07625 4.1251 4.13689 4.01945 4.21965C3.91379 4.3024 3.82588 4.40558 3.76094 4.52303C3.696 4.64048 3.65536 4.7698 3.64146 4.90328C3.62755 5.03677 3.64066 5.17169 3.67999 5.3L3.99999 6.37L1.83999 5.13C1.72574 5.06434 1.59968 5.02182 1.469 5.00488C1.33832 4.98794 1.20558 4.99691 1.07836 5.03126C0.951146 5.06562 0.831943 5.1247 0.727558 5.20513C0.623174 5.28555 0.535653 5.38575 0.469992 5.5C0.404331 5.61425 0.361816 5.74031 0.344875 5.871C0.327934 6.00168 0.336898 6.13441 0.371256 6.26163C0.440644 6.51855 0.609253 6.73739 0.839992 6.87L2.83999 8L1.99999 8.26C1.73478 8.29448 1.49412 8.4329 1.33096 8.64482C1.1678 8.85673 1.09551 9.12478 1.12999 9.39C1.16447 9.65522 1.30289 9.89587 1.51481 10.059C1.72672 10.2222 1.99478 10.2945 2.25999 10.26H2.51999L5.33999 9.5L7.99999 11L5.28999 12.57L2.46999 11.81C2.33767 11.7609 2.19645 11.7403 2.05562 11.7497C1.91478 11.759 1.77752 11.7981 1.65286 11.8643C1.52821 11.9305 1.41898 12.0223 1.33235 12.1338C1.24573 12.2452 1.18368 12.3737 1.15029 12.5108C1.11689 12.648 1.1129 12.7906 1.13859 12.9294C1.16427 13.0682 1.21905 13.2 1.29931 13.3161C1.37957 13.4322 1.4835 13.53 1.60427 13.6031C1.72503 13.6761 1.8599 13.7228 1.99999 13.74L2.88999 13.98L0.889992 15.13C0.659254 15.2626 0.490644 15.4814 0.421256 15.7384C0.351867 15.9953 0.387384 16.2693 0.519992 16.5C0.6526 16.7307 0.871438 16.8993 1.12836 16.9687C1.38529 17.0381 1.65925 17.0026 1.88999 16.87L3.99999 15.63L3.69999 16.74C3.66035 16.868 3.64684 17.0027 3.66027 17.136C3.67369 17.2693 3.71378 17.3986 3.77814 17.5161C3.8425 17.6337 3.92983 17.7371 4.03494 17.8202C4.14005 17.9033 4.26079 17.9645 4.38999 18C4.47638 18.0098 4.5636 18.0098 4.64999 18C4.87575 18.0077 5.09748 17.9388 5.27907 17.8044C5.46065 17.6701 5.59139 17.4782 5.64999 17.26L6.46999 14.26L8.99999 12.73V15.86L6.92999 17.93C6.74374 18.1174 6.6392 18.3708 6.6392 18.635C6.6392 18.8992 6.74374 19.1526 6.92999 19.34C7.02261 19.4345 7.13305 19.5097 7.25493 19.5612C7.3768 19.6127 7.50769 19.6395 7.63999 19.64C7.7723 19.6395 7.90318 19.6127 8.02506 19.5612C8.14693 19.5097 8.25738 19.4345 8.34999 19.34L8.99999 18.69V21C8.99999 21.2652 9.10535 21.5196 9.29288 21.7071C9.48042 21.8946 9.73477 22 9.99999 22C10.2652 22 10.5196 21.8946 10.7071 21.7071C10.8946 21.5196 11 21.2652 11 21V18.53L11.81 19.34C11.903 19.4337 12.0136 19.5081 12.1354 19.5589C12.2573 19.6097 12.388 19.6358 12.52 19.6358C12.652 19.6358 12.7827 19.6097 12.9046 19.5589C13.0264 19.5081 13.137 19.4337 13.23 19.34C13.4162 19.1526 13.5208 18.8992 13.5208 18.635C13.5208 18.3708 13.4162 18.1174 13.23 17.93L11 15.7V12.7L13.57 14.19L14.39 17.19C14.4486 17.4082 14.5793 17.6001 14.7609 17.7344C14.9425 17.8688 15.1642 17.9377 15.39 17.93C15.4764 17.9398 15.5636 17.9398 15.65 17.93C15.7777 17.8964 15.8974 17.8378 16.0023 17.7576C16.1073 17.6774 16.1953 17.5773 16.2613 17.4629C16.3273 17.3486 16.37 17.2223 16.3869 17.0913C16.4039 16.9604 16.3947 16.8274 16.36 16.7L16 15.63L18.14 16.87C18.2542 16.9357 18.3803 16.9782 18.511 16.9951C18.6417 17.0121 18.7744 17.0031 18.9016 16.9687C19.0288 16.9344 19.148 16.8753 19.2524 16.7949C19.3568 16.7144 19.4443 16.6143 19.51 16.5C19.5757 16.3857 19.6182 16.2597 19.6351 16.129C19.6521 15.9983 19.6431 15.8656 19.6087 15.7384C19.5744 15.6112 19.5153 15.492 19.4349 15.3876C19.3544 15.2832 19.2542 15.1957 19.14 15.13H19.16Z" fill="#192040"/>
</svg>
