<svg width="17" height="16" viewBox="0 0 17 16" fill="none" xmlns="http://www.w3.org/2000/svg">
<path d="M16.4491 12.0673L15.7001 15.2197C15.6064 15.6879 15.2319 16 14.7637 16C6.89838 15.9688 0.5 9.57041 0.5 1.70508C0.5 1.23691 0.780904 0.86237 1.24908 0.768735L4.40145 0.0196561C4.83841 -0.0739787 5.30659 0.175714 5.49386 0.581465L6.9608 3.98353C7.11686 4.38928 7.02323 4.85746 6.6799 5.10715L4.99447 6.48046C6.05567 8.63406 7.80352 10.3819 9.98833 11.4431L11.3616 9.75768C11.6113 9.44556 12.0795 9.32072 12.4853 9.47677L15.8873 10.9437C16.2931 11.1622 16.5428 11.6304 16.4491 12.0673Z" fill="#192040"/>
</svg>
