<svg width="22" height="19" viewBox="0 0 22 19" fill="none" xmlns="http://www.w3.org/2000/svg">
<path d="M11 13C10.4067 13 9.82668 13.1759 9.33333 13.5056C8.83998 13.8352 8.45546 14.3037 8.2284 14.8519C8.00134 15.4001 7.94193 16.0033 8.05768 16.5852C8.17344 17.1672 8.45916 17.7017 8.87872 18.1213C9.29828 18.5408 9.83282 18.8266 10.4148 18.9423C10.9967 19.0581 11.5999 18.9987 12.1481 18.7716C12.6963 18.5445 13.1648 18.16 13.4944 17.6667C13.8241 17.1733 14 16.5933 14 16C14 15.2043 13.684 14.4412 13.1214 13.8786C12.5588 13.316 11.7957 13 11 13ZM11 17C10.8023 17 10.6089 16.9413 10.4445 16.8314C10.28 16.7216 10.1518 16.5654 10.0762 16.3826C10.0005 16.1999 9.98067 15.9989 10.0193 15.8049C10.0578 15.6109 10.1531 15.4327 10.2929 15.2929C10.4328 15.153 10.611 15.0578 10.8049 15.0192C10.9989 14.9806 11.2 15.0004 11.3827 15.0761C11.5654 15.1518 11.7216 15.2799 11.8315 15.4444C11.9414 15.6088 12 15.8022 12 16C12 16.2652 11.8947 16.5195 11.7071 16.7071C11.5196 16.8946 11.2653 17 11 17ZM11 8.99996C9.14478 9.00635 7.36659 9.74277 6.05004 11.05C5.86379 11.2373 5.75925 11.4908 5.75925 11.755C5.75925 12.0191 5.86379 12.2726 6.05004 12.46C6.2374 12.6462 6.49085 12.7508 6.75504 12.7508C7.01923 12.7508 7.27268 12.6462 7.46004 12.46C7.9245 11.9943 8.47625 11.6249 9.0837 11.3728C9.69115 11.1208 10.3424 10.991 11 10.991C11.6577 10.991 12.3089 11.1208 12.9164 11.3728C13.5238 11.6249 14.0756 11.9943 14.54 12.46C14.7247 12.6484 14.9763 12.7562 15.24 12.76C15.4429 12.7716 15.6446 12.7212 15.8181 12.6154C15.9916 12.5096 16.1288 12.3535 16.2113 12.1678C16.2939 11.982 16.3179 11.7756 16.2801 11.5759C16.2424 11.3762 16.1447 11.1927 16 11.05C15.3421 10.3967 14.5618 9.87938 13.7039 9.52764C12.846 9.17589 11.9272 8.99659 11 8.99996ZM11 4.99996C8.08403 5.00771 5.28862 6.16468 3.22004 8.21996C3.1268 8.3132 3.05284 8.42389 3.00238 8.54571C2.95192 8.66753 2.92595 8.7981 2.92595 8.92996C2.92595 9.19626 3.03173 9.45166 3.22004 9.63996C3.40834 9.82827 3.66374 9.93405 3.93004 9.93405C4.19634 9.93405 4.45173 9.82827 4.64004 9.63996C6.32754 7.95456 8.61503 7.00788 11 7.00788C13.385 7.00788 15.6725 7.95456 17.36 9.63996C17.4535 9.73264 17.5643 9.80597 17.6861 9.85573C17.808 9.9055 17.9384 9.93072 18.07 9.92996C18.2016 9.93072 18.3321 9.9055 18.4539 9.85573C18.5758 9.80597 18.6866 9.73264 18.78 9.63996C18.8738 9.547 18.9482 9.4364 18.9989 9.31454C19.0497 9.19268 19.0758 9.06197 19.0758 8.92996C19.0758 8.79795 19.0497 8.66724 18.9989 8.54539C18.9482 8.42353 18.8738 8.31293 18.78 8.21996C16.7115 6.16468 13.9161 5.00771 11 4.99996ZM21.61 5.38996C20.217 3.99606 18.563 2.89031 16.7425 2.13589C14.922 1.38147 12.9707 0.993164 11 0.993164C9.0294 0.993164 7.07808 1.38147 5.25757 2.13589C3.43706 2.89031 1.78304 3.99606 0.390039 5.38996C0.201735 5.57827 0.0959473 5.83366 0.0959473 6.09996C0.0959473 6.36626 0.201735 6.62166 0.390039 6.80996C0.578343 6.99827 0.833737 7.10405 1.10004 7.10405C1.36634 7.10405 1.62174 6.99827 1.81004 6.80996C4.24782 4.37345 7.55339 3.00474 11 3.00474C14.4467 3.00474 17.7523 4.37345 20.19 6.80996C20.283 6.90369 20.3936 6.97808 20.5155 7.02885C20.6373 7.07962 20.768 7.10576 20.9 7.10576C21.032 7.10576 21.1628 7.07962 21.2846 7.02885C21.4065 6.97808 21.5171 6.90369 21.61 6.80996C21.7038 6.717 21.7782 6.6064 21.8289 6.48454C21.8797 6.36268 21.9058 6.23197 21.9058 6.09996C21.9058 5.96795 21.8797 5.83724 21.8289 5.71539C21.7782 5.59353 21.7038 5.48292 21.61 5.38996Z" fill="#192040"/>
</svg>
