<svg width="80" height="80" viewBox="0 0 80 80" fill="none" xmlns="http://www.w3.org/2000/svg">
<g clip-path="url(#clip0_75_1202)">
<path d="M60 4.92911e-08C56.9413 4.92911e-08 53.7 2.392 50.5707 6.88533L40.748 0.229333C40.5272 0.0798117 40.2667 -7.24405e-05 40 4.92911e-08H18.6667C18.4 -7.24405e-05 18.1395 0.0798117 17.9187 0.229333L1.15467 11.5787C0.624065 11.943 0.243654 12.4875 0.0840286 13.111C-0.0755967 13.7346 -0.00359692 14.3948 0.286667 14.9693L5.83867 26.0853C6.15733 26.7147 6.712 27.1907 7.38267 27.4093C8.036 27.6307 8.74933 27.5827 9.36667 27.276L12 26.076V50.6667C12 51.7275 12.4214 52.7449 13.1716 53.4951C13.9217 54.2452 14.9391 54.6667 16 54.6667H40C40.0021 56.6672 40.458 58.6412 41.3333 60.44V70.6667H34.6667C33.6058 70.6667 32.5884 70.2452 31.8382 69.4951C31.0881 68.7449 30.6667 67.7275 30.6667 66.6667C30.6646 64.8992 29.9615 63.2047 28.7117 61.955C27.4619 60.7052 25.7675 60.0021 24 60H17.3333C15.5659 60.0021 13.8714 60.7052 12.6216 61.955C11.3718 63.2047 10.6688 64.8992 10.6667 66.6667C10.6667 67.7275 10.2452 68.7449 9.49509 69.4951C8.74495 70.2452 7.72753 70.6667 6.66667 70.6667H1.33333C0.979711 70.6667 0.640573 70.8071 0.390524 71.0572C0.140476 71.3072 0 71.6464 0 72C0 72.3536 0.140476 72.6928 0.390524 72.9428C0.640573 73.1929 0.979711 73.3333 1.33333 73.3333H6.66667C8.43413 73.3312 10.1286 72.6282 11.3784 71.3784C12.6282 70.1286 13.3312 68.4341 13.3333 66.6667C13.3333 65.6058 13.7548 64.5884 14.5049 63.8382C15.2551 63.0881 16.2725 62.6667 17.3333 62.6667H24C25.0609 62.6667 26.0783 63.0881 26.8284 63.8382C27.5786 64.5884 28 65.6058 28 66.6667C28.0021 68.4341 28.7052 70.1286 29.955 71.3784C31.2047 72.6282 32.8992 73.3312 34.6667 73.3333H41.3333C41.3355 75.1008 42.0385 76.7953 43.2883 78.045C44.5381 79.2948 46.2325 79.9979 48 80H72C73.7675 79.9979 75.4619 79.2948 76.7117 78.045C77.9615 76.7953 78.6646 75.1008 78.6667 73.3333V60.44C79.542 58.6412 79.9979 56.6672 80 54.6667V45.3333C80 23.3027 69.72 4.92911e-08 60 4.92911e-08ZM29.3333 17.3133L20.964 2.66667H37.7027L29.3333 17.3133ZM18.6667 4.02133L25.7067 16.3413L15.1467 10.1813L18.6667 4.02133ZM43.52 10.1813L32.96 16.3413L40 4.02133L43.52 10.1813ZM14.6667 50.6667V24C14.6668 23.7766 14.6108 23.5567 14.5038 23.3605C14.3968 23.1644 14.2422 22.9983 14.0542 22.8775C13.8662 22.7567 13.6509 22.6851 13.428 22.6692C13.2051 22.6533 12.9819 22.6937 12.7787 22.7867L8.22 24.884L2.65467 13.784L14.6667 5.65467L12.8373 8.85467C12.4888 9.46492 12.3952 10.1881 12.5769 10.867C12.7587 11.5459 13.2011 12.1256 13.808 12.48L28 20.7653V52H16C15.6464 52 15.3072 51.8595 15.0572 51.6095C14.8071 51.3594 14.6667 51.0203 14.6667 50.6667ZM30.6667 52V20.7653L44.864 12.484C45.4709 12.1296 45.9133 11.5499 46.0951 10.871C46.2768 10.1921 46.1832 9.46892 45.8347 8.85867L44.008 5.65867L49.1213 9.12533C46.5414 13.607 44.5337 18.3946 43.1453 23.376C41.0846 30.514 40.026 37.9038 40 45.3333V52H30.6667ZM72 77.3333H48C46.9391 77.3333 45.9217 76.9119 45.1716 76.1618C44.4214 75.4116 44 74.3942 44 73.3333V64.172C46.4867 66.6256 49.8399 68.0009 53.3333 68H66.6667C70.16 68 73.5133 66.6267 76 64.172V73.3333C76 74.3942 75.5786 75.4116 74.8284 76.1618C74.0783 76.9119 73.0609 77.3333 72 77.3333ZM77.3333 45.3333V54.6667C77.3302 57.4947 76.2053 60.2059 74.2056 62.2056C72.2059 64.2053 69.4947 65.3302 66.6667 65.3333H53.3333C50.5053 65.3302 47.7941 64.2053 45.7944 62.2056C43.7947 60.2059 42.6698 57.4947 42.6667 54.6667V45.3333C42.6933 38.1547 43.716 31.0133 45.7067 24.1173C47.1225 18.9562 49.2553 14.0193 52.0427 9.45067C54.8093 5.14 57.7107 2.66667 60 2.66667C63.2853 2.66667 67.6493 7.65733 71.1173 15.38C75.2051 24.8377 77.3202 35.03 77.3333 45.3333Z" fill="#2EB4FF"/>
<path d="M60.0007 13.3346C60.3543 13.3346 60.6934 13.1942 60.9435 12.9441C61.1935 12.6941 61.334 12.3549 61.334 12.0013V8.0013C61.334 7.64768 61.1935 7.30854 60.9435 7.05849C60.6934 6.80844 60.3543 6.66797 60.0007 6.66797C59.647 6.66797 59.3079 6.80844 59.0578 7.05849C58.8078 7.30854 58.6673 7.64768 58.6673 8.0013V12.0013C58.6673 12.3549 58.8078 12.6941 59.0578 12.9441C59.3079 13.1942 59.647 13.3346 60.0007 13.3346ZM58.2767 17.7253L54.2767 13.7253C54.0252 13.4824 53.6884 13.348 53.3388 13.3511C52.9892 13.3541 52.6548 13.4943 52.4076 13.7415C52.1603 13.9888 52.0201 14.3232 52.0171 14.6728C52.014 15.0224 52.1484 15.3592 52.3913 15.6106L56.3913 19.6106C56.6428 19.8535 56.9796 19.9879 57.3292 19.9849C57.6788 19.9818 58.0132 19.8416 58.2604 19.5944C58.5076 19.3472 58.6478 19.0128 58.6509 18.6632C58.6539 18.3136 58.5195 17.9768 58.2767 17.7253ZM61.7247 19.6106C61.9747 19.8606 62.3138 20.001 62.6673 20.001C63.0209 20.001 63.3599 19.8606 63.61 19.6106L67.61 15.6106C67.8529 15.3592 67.9873 15.0224 67.9842 14.6728C67.9812 14.3232 67.841 13.9888 67.5937 13.7415C67.3465 13.4943 67.0121 13.3541 66.6625 13.3511C66.3129 13.348 65.9761 13.4824 65.7247 13.7253L61.7247 17.7253C61.4747 17.9753 61.3343 18.3144 61.3343 18.668C61.3343 19.0215 61.4747 19.3606 61.7247 19.6106ZM50.0713 25.2013L55.4047 27.868C55.7211 28.026 56.0875 28.0519 56.423 27.9399C56.5892 27.8844 56.7428 27.7968 56.8751 27.6819C57.0073 27.5671 57.1157 27.4273 57.194 27.2706C57.2723 27.1139 57.3189 26.9433 57.3312 26.7686C57.3436 26.5939 57.3214 26.4184 57.2659 26.2523C57.2104 26.0861 57.1228 25.9325 57.0079 25.8002C56.8931 25.6679 56.7534 25.5596 56.5966 25.4813L51.2633 22.8146C50.9468 22.6566 50.5805 22.6307 50.2449 22.7427C49.9094 22.8547 49.6321 23.0955 49.474 23.412C49.3159 23.7285 49.29 24.0948 49.4021 24.4303C49.5141 24.7659 49.7548 25.0432 50.0713 25.2013ZM62.8073 27.264C62.8855 27.4207 62.9939 27.5605 63.1261 27.6754C63.2584 27.7903 63.412 27.878 63.5782 27.9334C63.7444 27.9889 63.9199 28.0111 64.0946 27.9987C64.2694 27.9863 64.44 27.9396 64.5966 27.8613L69.93 25.1946C70.0867 25.1164 70.2265 25.008 70.3413 24.8757C70.4561 24.7434 70.5438 24.5898 70.5992 24.4237C70.6547 24.2575 70.6769 24.0821 70.6646 23.9073C70.6522 23.7326 70.6056 23.562 70.5273 23.4053C70.4491 23.2486 70.3407 23.1088 70.2084 22.994C70.0761 22.8792 69.9225 22.7915 69.7564 22.7361C69.5902 22.6806 69.4148 22.6584 69.24 22.6707C69.0653 22.6831 68.8947 22.7297 68.738 22.808L63.4047 25.4746C63.2479 25.5528 63.1081 25.6612 62.9932 25.7935C62.8783 25.9257 62.7907 26.0793 62.7352 26.2455C62.6797 26.4117 62.6575 26.5872 62.6699 26.7619C62.6823 26.9367 62.729 27.1073 62.8073 27.264ZM47.5046 33.24L54.1713 35.9066C54.334 35.9718 54.5079 36.0042 54.6831 36.0022C54.8583 36.0001 55.0314 35.9635 55.1925 35.8946C55.3535 35.8256 55.4995 35.7256 55.6219 35.6002C55.7443 35.4749 55.8408 35.3266 55.906 35.164C55.9711 35.0013 56.0036 34.8274 56.0015 34.6522C55.9994 34.477 55.9629 34.3039 55.8939 34.1428C55.8249 33.9817 55.7249 33.8358 55.5996 33.7134C55.4742 33.591 55.326 33.4944 55.1633 33.4293L48.4967 30.7626C48.1681 30.6311 47.8008 30.6354 47.4755 30.7747C47.1502 30.914 46.8935 31.1768 46.762 31.5053C46.6304 31.8338 46.6348 32.2011 46.7741 32.5264C46.9133 32.8518 47.1761 33.1084 47.5046 33.24ZM64.0953 35.164C64.1604 35.3267 64.2568 35.475 64.3792 35.6005C64.5016 35.7259 64.6476 35.8259 64.8087 35.8949C64.9698 35.9639 65.1429 36.0004 65.3182 36.0024C65.4934 36.0045 65.6673 35.9719 65.83 35.9066L72.4967 33.24C72.6593 33.1748 72.8076 33.0783 72.9329 32.9559C73.0583 32.8334 73.1583 32.6875 73.2272 32.5264C73.2962 32.3654 73.3328 32.1923 73.3348 32.0171C73.3369 31.8419 73.3045 31.668 73.2393 31.5053C73.1742 31.3426 73.0776 31.1944 72.9552 31.069C72.8328 30.9437 72.6869 30.8437 72.5258 30.7747C72.3647 30.7057 72.1916 30.6692 72.0164 30.6671C71.8412 30.665 71.6673 30.6975 71.5047 30.7626L64.838 33.4293C64.6752 33.4943 64.5269 33.5908 64.4015 33.7132C64.2761 33.8356 64.176 33.9816 64.107 34.1427C64.0381 34.3038 64.0015 34.4769 63.9995 34.6522C63.9975 34.8274 64.0301 35.0013 64.0953 35.164ZM56.0007 41.3346C56.0007 40.981 55.8602 40.6419 55.6101 40.3918C55.3601 40.1418 55.0209 40.0013 54.6673 40.0013H46.6673C46.3137 40.0013 45.9746 40.1418 45.7245 40.3918C45.4745 40.6419 45.334 40.981 45.334 41.3346C45.334 41.6883 45.4745 42.0274 45.7245 42.2774C45.9746 42.5275 46.3137 42.668 46.6673 42.668H54.6673C55.0209 42.668 55.3601 42.5275 55.6101 42.2774C55.8602 42.0274 56.0007 41.6883 56.0007 41.3346ZM65.334 40.0013C64.9804 40.0013 64.6412 40.1418 64.3912 40.3918C64.1411 40.6419 64.0007 40.981 64.0007 41.3346C64.0007 41.6883 64.1411 42.0274 64.3912 42.2774C64.6412 42.5275 64.9804 42.668 65.334 42.668H73.334C73.6876 42.668 74.0267 42.5275 74.2768 42.2774C74.5268 42.0274 74.6673 41.6883 74.6673 41.3346C74.6673 40.981 74.5268 40.6419 74.2768 40.3918C74.0267 40.1418 73.6876 40.0013 73.334 40.0013H65.334Z" fill="#2EB4FF"/>
<path d="M59.9993 47.9987C60.7357 47.9987 61.3327 47.4017 61.3327 46.6654C61.3327 45.929 60.7357 45.332 59.9993 45.332C59.263 45.332 58.666 45.929 58.666 46.6654C58.666 47.4017 59.263 47.9987 59.9993 47.9987Z" fill="#2EB4FF"/>
<path d="M55.9993 53.3346C56.7357 53.3346 57.3327 52.7377 57.3327 52.0013C57.3327 51.2649 56.7357 50.668 55.9993 50.668C55.263 50.668 54.666 51.2649 54.666 52.0013C54.666 52.7377 55.263 53.3346 55.9993 53.3346Z" fill="#2EB4FF"/>
<path d="M51.9993 58.6667C52.7357 58.6667 53.3327 58.0697 53.3327 57.3333C53.3327 56.597 52.7357 56 51.9993 56C51.263 56 50.666 56.597 50.666 57.3333C50.666 58.0697 51.263 58.6667 51.9993 58.6667Z" fill="#2EB4FF"/>
<path d="M59.9993 58.6667C60.7357 58.6667 61.3327 58.0697 61.3327 57.3333C61.3327 56.597 60.7357 56 59.9993 56C59.263 56 58.666 56.597 58.666 57.3333C58.666 58.0697 59.263 58.6667 59.9993 58.6667Z" fill="#2EB4FF"/>
<path d="M67.9993 58.6667C68.7357 58.6667 69.3327 58.0697 69.3327 57.3333C69.3327 56.597 68.7357 56 67.9993 56C67.263 56 66.666 56.597 66.666 57.3333C66.666 58.0697 67.263 58.6667 67.9993 58.6667Z" fill="#2EB4FF"/>
<path d="M63.9993 53.3346C64.7357 53.3346 65.3327 52.7377 65.3327 52.0013C65.3327 51.2649 64.7357 50.668 63.9993 50.668C63.263 50.668 62.666 51.2649 62.666 52.0013C62.666 52.7377 63.263 53.3346 63.9993 53.3346Z" fill="#2EB4FF"/>
</g>
<defs>
<clipPath id="clip0_75_1202">
<rect width="80" height="80" fill="white"/>
</clipPath>
</defs>
</svg>
