<svg width="80" height="80" viewBox="0 0 80 80" fill="none" xmlns="http://www.w3.org/2000/svg">
<path d="M56.875 50.625C56.875 49.5125 57.2049 48.4249 57.823 47.4999C58.4411 46.5749 59.3196 45.8539 60.3474 45.4282C61.3752 45.0024 62.5062 44.891 63.5974 45.1081C64.6885 45.3251 65.6908 45.8609 66.4775 46.6475C67.2641 47.4342 67.7999 48.4365 68.0169 49.5276C68.234 50.6188 68.1226 51.7498 67.6968 52.7776C67.2711 53.8054 66.5501 54.6839 65.6251 55.302C64.7001 55.9201 63.6125 56.25 62.5 56.25C61.0087 56.2483 59.5789 55.6552 58.5243 54.6007C57.4698 53.5461 56.8767 52.1163 56.875 50.625ZM65.625 50.625C65.625 50.0069 65.4417 49.4027 65.0983 48.8888C64.755 48.3749 64.2669 47.9744 63.6959 47.7379C63.1249 47.5014 62.4965 47.4395 61.8903 47.56C61.2841 47.6806 60.7273 47.9783 60.2903 48.4153C59.8532 48.8523 59.5556 49.4092 59.435 50.0153C59.3145 50.6215 59.3764 51.2499 59.6129 51.8209C59.8494 52.3919 60.2499 52.88 60.7638 53.2233C61.2777 53.5667 61.8819 53.75 62.5 53.75C63.3285 53.749 64.1228 53.4195 64.7086 52.8336C65.2944 52.2478 65.624 51.4535 65.625 50.625ZM41.875 50.625C41.875 49.5125 42.2049 48.4249 42.823 47.4999C43.4411 46.5749 44.3196 45.8539 45.3474 45.4282C46.3752 45.0024 47.5062 44.891 48.5974 45.1081C49.6885 45.3251 50.6908 45.8609 51.4775 46.6475C52.2641 47.4342 52.7999 48.4365 53.0169 49.5276C53.234 50.6188 53.1226 51.7498 52.6968 52.7776C52.2711 53.8054 51.5501 54.6839 50.6251 55.302C49.7001 55.9201 48.6125 56.25 47.5 56.25C46.0087 56.2483 44.5789 55.6552 43.5243 54.6007C42.4698 53.5461 41.8767 52.1163 41.875 50.625ZM50.625 50.625C50.625 50.0069 50.4417 49.4027 50.0983 48.8888C49.755 48.3749 49.2669 47.9744 48.6959 47.7379C48.1249 47.5014 47.4965 47.4395 46.8903 47.56C46.2841 47.6806 45.7273 47.9783 45.2903 48.4153C44.8533 48.8523 44.5556 49.4092 44.435 50.0153C44.3145 50.6215 44.3764 51.2499 44.6129 51.8209C44.8494 52.3919 45.2499 52.88 45.7638 53.2233C46.2777 53.5667 46.8819 53.75 47.5 53.75C48.3285 53.749 49.1228 53.4195 49.7086 52.8336C50.2944 52.2478 50.624 51.4535 50.625 50.625ZM26.875 50.625C26.875 49.5125 27.2049 48.4249 27.823 47.4999C28.4411 46.5749 29.3196 45.8539 30.3474 45.4282C31.3752 45.0024 32.5062 44.891 33.5974 45.1081C34.6885 45.3251 35.6908 45.8609 36.4775 46.6475C37.2641 47.4342 37.7999 48.4365 38.0169 49.5276C38.234 50.6188 38.1226 51.7498 37.6968 52.7776C37.2711 53.8054 36.5501 54.6839 35.6251 55.302C34.7001 55.9201 33.6125 56.25 32.5 56.25C31.0087 56.2483 29.5789 55.6552 28.5243 54.6007C27.4698 53.5461 26.8766 52.1163 26.875 50.625ZM35.625 50.625C35.625 50.0069 35.4417 49.4027 35.0983 48.8888C34.755 48.3749 34.2669 47.9744 33.6959 47.7379C33.1249 47.5014 32.4965 47.4395 31.8903 47.56C31.2842 47.6806 30.7273 47.9783 30.2903 48.4153C29.8532 48.8523 29.5556 49.4092 29.435 50.0153C29.3145 50.6215 29.3764 51.2499 29.6129 51.8209C29.8494 52.3919 30.2499 52.88 30.7638 53.2233C31.2777 53.5667 31.8819 53.75 32.5 53.75C33.3285 53.749 34.1228 53.4195 34.7086 52.8336C35.2944 52.2478 35.624 51.4535 35.625 50.625ZM11.875 50.625C11.875 49.5125 12.2049 48.4249 12.823 47.4999C13.4411 46.5749 14.3196 45.8539 15.3474 45.4282C16.3752 45.0024 17.5062 44.891 18.5974 45.1081C19.6885 45.3251 20.6908 45.8609 21.4775 46.6475C22.2641 47.4342 22.7999 48.4365 23.0169 49.5276C23.234 50.6188 23.1226 51.7498 22.6968 52.7776C22.2711 53.8054 21.5501 54.6839 20.6251 55.302C19.7001 55.9201 18.6125 56.25 17.5 56.25C16.0087 56.2483 14.5789 55.6552 13.5243 54.6007C12.4698 53.5461 11.8766 52.1163 11.875 50.625ZM20.625 50.625C20.625 50.0069 20.4417 49.4027 20.0983 48.8888C19.755 48.3749 19.2669 47.9744 18.6959 47.7379C18.1249 47.5014 17.4965 47.4395 16.8903 47.56C16.2841 47.6806 15.7273 47.9783 15.2903 48.4153C14.8532 48.8523 14.5556 49.4092 14.435 50.0153C14.3145 50.6215 14.3763 51.2499 14.6129 51.8209C14.8494 52.3919 15.2499 52.88 15.7638 53.2233C16.2777 53.5667 16.8819 53.75 17.5 53.75C18.3285 53.749 19.1228 53.4195 19.7086 52.8336C20.2944 52.2478 20.624 51.4535 20.625 50.625Z" fill="#2EB4FF"/>
<path d="M5.59375 64.0788C4.80971 63.0978 4.38022 61.8807 4.375 60.625C4.375 59.1332 4.96764 57.7024 6.02252 56.6475C7.07742 55.5926 8.50816 55 10 55C11.4918 55 12.9226 55.5926 13.9775 56.6475C15.0324 57.7024 15.625 59.1332 15.625 60.625C15.6198 61.8807 15.1903 63.0978 14.4062 64.0788C15.6423 64.4757 16.7237 65.2482 17.5 66.2887C18.2763 65.2482 19.3577 64.4757 20.5938 64.0788C19.8097 63.0978 19.3802 61.8807 19.375 60.625C19.375 59.1332 19.9676 57.7024 21.0225 56.6475C22.0774 55.5926 23.5082 55 25 55C26.4918 55 27.9226 55.5926 28.9775 56.6475C30.0324 57.7024 30.625 59.1332 30.625 60.625C30.6198 61.8807 30.1903 63.0978 29.4062 64.0788C30.6423 64.4757 31.7237 65.2482 32.5 66.2887C33.2763 65.2482 34.3577 64.4757 35.5938 64.0788C34.8097 63.0978 34.3802 61.8807 34.375 60.625C34.375 59.1332 34.9676 57.7024 36.0225 56.6475C37.0774 55.5926 38.5082 55 40 55C41.4918 55 42.9226 55.5926 43.9775 56.6475C45.0324 57.7024 45.625 59.1332 45.625 60.625C45.6198 61.8807 45.1903 63.0978 44.4062 64.0788C45.6423 64.4757 46.7237 65.2482 47.5 66.2887C48.2763 65.2482 49.3577 64.4757 50.5938 64.0788C49.8097 63.0978 49.3802 61.8807 49.375 60.625C49.375 59.1332 49.9676 57.7024 51.0225 56.6475C52.0774 55.5926 53.5082 55 55 55C56.4918 55 57.9226 55.5926 58.9775 56.6475C60.0324 57.7024 60.625 59.1332 60.625 60.625C60.6198 61.8807 60.1903 63.0978 59.4062 64.0788C60.6423 64.4757 61.7237 65.2482 62.5 66.2887C63.2763 65.2482 64.3577 64.4757 65.5938 64.0788C64.8097 63.0978 64.3802 61.8807 64.375 60.625C64.375 59.1332 64.9676 57.7024 66.0225 56.6475C67.0774 55.5926 68.5082 55 70 55C71.4918 55 72.9226 55.5926 73.9775 56.6475C75.0324 57.7024 75.625 59.1332 75.625 60.625C75.6198 61.8807 75.1903 63.0978 74.4062 64.0788C75.6635 64.4794 76.7614 65.2684 77.5419 66.3324C78.3224 67.3963 78.7454 68.6804 78.75 70V77.5C78.75 77.8315 78.6183 78.1495 78.3839 78.3839C78.1495 78.6183 77.8315 78.75 77.5 78.75H2.5C2.16848 78.75 1.85053 78.6183 1.61612 78.3839C1.3817 78.1495 1.25 77.8315 1.25 77.5V70C1.25462 68.6804 1.6776 67.3963 2.45812 66.3324C3.23864 65.2684 4.33647 64.4794 5.59375 64.0788ZM70 57.5C69.3819 57.5 68.7777 57.6833 68.2638 58.0267C67.7499 58.37 67.3494 58.8581 67.1129 59.4291C66.8764 60.0001 66.8145 60.6285 66.935 61.2347C67.0556 61.8408 67.3533 62.3977 67.7903 62.8347C68.2273 63.2718 68.7842 63.5694 69.3903 63.69C69.9965 63.8105 70.6249 63.7486 71.1959 63.5121C71.7669 63.2756 72.255 62.8751 72.5983 62.3612C72.9417 61.8473 73.125 61.2431 73.125 60.625C73.124 59.7965 72.7944 59.0022 72.2086 58.4164C71.6228 57.8306 70.8285 57.501 70 57.5ZM63.75 76.25H76.25V70C76.249 69.0057 75.8536 68.0525 75.1506 67.3494C74.4475 66.6464 73.4943 66.251 72.5 66.25H67.5C66.5057 66.251 65.5525 66.6464 64.8494 67.3494C64.1464 68.0525 63.751 69.0057 63.75 70V76.25ZM55 57.5C54.3819 57.5 53.7777 57.6833 53.2638 58.0267C52.7499 58.37 52.3494 58.8581 52.1129 59.4291C51.8764 60.0001 51.8145 60.6285 51.935 61.2347C52.0556 61.8408 52.3533 62.3977 52.7903 62.8347C53.2273 63.2718 53.7842 63.5694 54.3903 63.69C54.9965 63.8105 55.6249 63.7486 56.1959 63.5121C56.7669 63.2756 57.255 62.8751 57.5983 62.3612C57.9417 61.8473 58.125 61.2431 58.125 60.625C58.124 59.7965 57.7944 59.0022 57.2086 58.4164C56.6228 57.8306 55.8285 57.501 55 57.5ZM48.75 76.25H61.25V70C61.249 69.0057 60.8536 68.0525 60.1506 67.3494C59.4475 66.6464 58.4943 66.251 57.5 66.25H52.5C51.5057 66.251 50.5525 66.6464 49.8494 67.3494C49.1464 68.0525 48.751 69.0057 48.75 70V76.25ZM40 57.5C39.3819 57.5 38.7777 57.6833 38.2638 58.0267C37.7499 58.37 37.3494 58.8581 37.1129 59.4291C36.8764 60.0001 36.8145 60.6285 36.935 61.2347C37.0556 61.8408 37.3532 62.3977 37.7903 62.8347C38.2273 63.2718 38.7842 63.5694 39.3903 63.69C39.9965 63.8105 40.6249 63.7486 41.1959 63.5121C41.7669 63.2756 42.255 62.8751 42.5983 62.3612C42.9417 61.8473 43.125 61.2431 43.125 60.625C43.124 59.7965 42.7944 59.0022 42.2086 58.4164C41.6228 57.8306 40.8285 57.501 40 57.5ZM33.75 76.25H46.25V70C46.249 69.0057 45.8536 68.0525 45.1506 67.3494C44.4475 66.6464 43.4943 66.251 42.5 66.25H37.5C36.5057 66.251 35.5525 66.6464 34.8494 67.3494C34.1464 68.0525 33.751 69.0057 33.75 70V76.25ZM25 57.5C24.3819 57.5 23.7777 57.6833 23.2638 58.0267C22.7499 58.37 22.3494 58.8581 22.1129 59.4291C21.8764 60.0001 21.8145 60.6285 21.935 61.2347C22.0556 61.8408 22.3532 62.3977 22.7903 62.8347C23.2273 63.2718 23.7842 63.5694 24.3903 63.69C24.9965 63.8105 25.6249 63.7486 26.1959 63.5121C26.7669 63.2756 27.255 62.8751 27.5983 62.3612C27.9417 61.8473 28.125 61.2431 28.125 60.625C28.124 59.7965 27.7944 59.0022 27.2086 58.4164C26.6228 57.8306 25.8285 57.501 25 57.5ZM18.75 76.25H31.25V70C31.249 69.0057 30.8536 68.0525 30.1506 67.3494C29.4475 66.6464 28.4943 66.251 27.5 66.25H22.5C21.5057 66.251 20.5525 66.6464 19.8494 67.3494C19.1464 68.0525 18.751 69.0057 18.75 70V76.25ZM10 57.5C9.38194 57.5 8.77774 57.6833 8.26384 58.0267C7.74994 58.37 7.3494 58.8581 7.11288 59.4291C6.87635 60.0001 6.81447 60.6285 6.93505 61.2347C7.05563 61.8408 7.35325 62.3977 7.79029 62.8347C8.22733 63.2718 8.78416 63.5694 9.39034 63.69C9.99654 63.8105 10.6249 63.7486 11.1959 63.5121C11.7669 63.2756 12.255 62.8751 12.5983 62.3612C12.9417 61.8473 13.125 61.2431 13.125 60.625C13.124 59.7965 12.7944 59.0022 12.2086 58.4164C11.6228 57.8306 10.8285 57.501 10 57.5ZM3.75 76.25H16.25V70C16.249 69.0057 15.8536 68.0525 15.1506 67.3494C14.4475 66.6464 13.4943 66.251 12.5 66.25H7.5C6.50574 66.251 5.5525 66.6464 4.84945 67.3494C4.1464 68.0525 3.75099 69.0057 3.75 70V76.25ZM31.25 28.75H13.75C12.4244 28.7483 11.1536 28.221 10.2163 27.2837C9.27897 26.3464 8.75166 25.0756 8.75 23.75V11.25C8.75166 9.92443 9.27897 8.65362 10.2163 7.71629C11.1536 6.77897 12.4244 6.25165 13.75 6.25H31.25C32.5756 6.25165 33.8464 6.77897 34.7837 7.71629C35.721 8.65362 36.2483 9.92443 36.25 11.25V23.75C36.2483 25.0756 35.721 26.3464 34.7837 27.2837C33.8464 28.221 32.5756 28.7483 31.25 28.75ZM33.75 11.25C33.7493 10.5872 33.4857 9.95166 33.017 9.48296C32.5483 9.01427 31.9128 8.75066 31.25 8.75H13.75C13.0872 8.75066 12.4517 9.01427 11.983 9.48296C11.5143 9.95166 11.2507 10.5872 11.25 11.25V23.75C11.2507 24.4128 11.5143 25.0483 11.983 25.517C12.4517 25.9857 13.0872 26.2493 13.75 26.25H31.25C31.9128 26.2493 32.5483 25.9857 33.017 25.517C33.4857 25.0483 33.7493 24.4128 33.75 23.75V11.25Z" fill="#2EB4FF"/>
<path d="M31.25 11.25H28.75V13.75H31.25V11.25ZM26.25 11.25H13.75V13.75H26.25V11.25ZM31.25 16.25H28.75V18.75H31.25V16.25ZM26.25 16.25H13.75V18.75H26.25V16.25ZM31.25 21.25H28.75V23.75H31.25V21.25ZM26.25 21.25H13.75V23.75H26.25V21.25Z" fill="#2EB4FF"/>
<path d="M50 33.75H5C4.66848 33.75 4.35053 33.6183 4.11612 33.3839C3.8817 33.1495 3.75 32.8315 3.75 32.5V2.5C3.75 2.16848 3.8817 1.85054 4.11612 1.61612C4.35053 1.3817 4.66848 1.25 5 1.25H75C75.3315 1.25 75.6495 1.3817 75.8839 1.61612C76.1183 1.85054 76.25 2.16848 76.25 2.5V32.5C76.25 32.8315 76.1183 33.1495 75.8839 33.3839C75.6495 33.6183 75.3315 33.75 75 33.75H70V38.75H78.75V41.25H1.25V38.75H50V33.75ZM52.5 38.75H67.5V27.5H52.5V38.75ZM57.5 18.75C56.8372 18.7507 56.2017 19.0143 55.733 19.483C55.2643 19.9517 55.0007 20.5872 55 21.25V25H65V21.25C64.9993 20.5872 64.7357 19.9517 64.267 19.483C63.7983 19.0143 63.1628 18.7507 62.5 18.75H57.5ZM62.5 13.75C62.5 13.2555 62.3534 12.7722 62.0787 12.3611C61.804 11.95 61.4135 11.6295 60.9567 11.4403C60.4999 11.2511 59.9972 11.2016 59.5123 11.298C59.0273 11.3945 58.5819 11.6326 58.2322 11.9822C57.8826 12.3319 57.6445 12.7773 57.548 13.2623C57.4516 13.7472 57.5011 14.2499 57.6903 14.7067C57.8795 15.1635 58.2 15.554 58.6111 15.8287C59.0222 16.1034 59.5055 16.25 60 16.25C60.6628 16.2493 61.2983 15.9857 61.767 15.517C62.2357 15.0483 62.4993 14.4128 62.5 13.75ZM51.25 25H52.5V21.25C52.5036 20.2149 52.8289 19.2065 53.4308 18.3644C54.0328 17.5224 54.8817 16.8883 55.86 16.55C55.3508 15.7981 55.056 14.9217 55.0072 14.015C54.9584 13.1082 55.1575 12.2053 55.5831 11.4031C56.0087 10.6009 56.6447 9.92977 57.4228 9.46172C58.201 8.99366 59.0919 8.74636 60 8.74636C60.9081 8.74636 61.799 8.99366 62.5772 9.46172C63.3553 9.92977 63.9913 10.6009 64.4169 11.4031C64.8425 12.2053 65.0416 13.1082 64.9928 14.015C64.944 14.9217 64.6492 15.7981 64.14 16.55C65.1183 16.8883 65.9672 17.5224 66.5692 18.3644C67.1711 19.2065 67.4964 20.2149 67.5 21.25V25H68.75C69.0815 25 69.3995 25.1317 69.6339 25.3661C69.8683 25.6005 70 25.9185 70 26.25V31.25H73.75V3.75H6.25V31.25H50V26.25C50 25.9185 50.1317 25.6005 50.3661 25.3661C50.6005 25.1317 50.9185 25 51.25 25Z" fill="#2EB4FF"/>
</svg>
