<svg width="80" height="80" viewBox="0 0 80 80" fill="none" xmlns="http://www.w3.org/2000/svg">
<g clip-path="url(#clip0_77_1323)">
<path d="M73.8379 27.6486C75.6084 25.9739 76.7218 23.6093 76.7218 20.985C76.7218 15.9227 72.6038 11.8047 67.5415 11.8047C62.4792 11.8047 58.3612 15.9227 58.3612 20.985C58.3612 24.206 60.032 27.0401 62.5487 28.6781C60.8149 29.8598 59.6726 31.848 59.6726 34.0998V43.2801H54.4267V36.7227C54.4267 32.0303 50.8858 28.1535 46.3349 27.6132C48.0844 25.9411 49.1808 23.5909 49.1808 20.985C49.1808 15.9227 45.0628 11.8047 40.0005 11.8047C34.9382 11.8047 30.8202 15.9227 30.8202 20.985C30.8202 23.5909 31.9166 25.9411 33.6661 27.6132C29.1153 28.1535 25.5743 32.0303 25.5743 36.7227V43.2801H20.3284V34.0998C20.3284 31.848 19.1861 29.8598 17.4523 28.6781C19.969 27.0401 21.6399 24.206 21.6399 20.985C21.6399 15.9227 17.5218 11.8047 12.4595 11.8047C7.39723 11.8047 3.2792 15.9227 3.2792 20.985C3.2792 23.6093 4.39264 25.9739 6.16314 27.6486C3.04838 28.1548 0.65625 30.8434 0.65625 34.0998V53.7719C0.65625 56.9378 2.9133 59.587 5.90215 60.1968V80.0014H8.5251V60.3293H20.3284V78.6899C20.3284 79.4139 20.9159 80.0014 21.6399 80.0014H29.5087C30.2326 80.0014 30.8202 79.4139 30.8202 78.6899V57.7063H38.689V77.3784H33.4431V80.0014H46.5579V77.3784H41.312V57.7063H49.1808V78.6899C49.1808 79.4139 49.7684 80.0014 50.4923 80.0014H58.3612C59.0851 80.0014 59.6726 79.4139 59.6726 78.6899V60.3293H71.4759V80.0014H74.0989V60.1968C77.0877 59.587 79.3448 56.9391 79.3448 53.7719V34.0998C79.3448 30.8434 76.9526 28.1548 73.8379 27.6486ZM60.9841 20.985C60.9841 17.3693 63.9258 14.4276 67.5415 14.4276C71.1572 14.4276 74.0989 17.3693 74.0989 20.985C74.0989 24.6008 71.1572 27.5424 67.5415 27.5424C63.9258 27.5424 60.9841 24.6008 60.9841 20.985ZM33.4431 20.985C33.4431 17.3693 36.3848 14.4276 40.0005 14.4276C43.6162 14.4276 46.5579 17.3693 46.5579 20.985C46.5579 24.6008 43.6162 27.5424 40.0005 27.5424C36.3848 27.5424 33.4431 24.6008 33.4431 20.985ZM42.0425 30.1653L40.0005 35.6106L37.9585 30.1653H42.0425ZM28.1972 36.7227C28.1972 33.107 31.1389 30.1653 34.7546 30.1653H35.1572L38.773 39.806C38.9644 40.3175 39.4536 40.6571 40.0005 40.6571C40.5474 40.6571 41.0366 40.3175 41.2294 39.806L44.8438 30.1653H45.2464C48.8622 30.1653 51.8038 33.107 51.8038 36.7227V43.2801H46.5579C45.834 43.2801 45.2464 43.8676 45.2464 44.5916V49.8375H34.7546V44.5916C34.7546 43.8676 34.1671 43.2801 33.4431 43.2801H28.1972V36.7227ZM5.90215 20.985C5.90215 17.3693 8.84379 14.4276 12.4595 14.4276C16.0753 14.4276 19.0169 17.3693 19.0169 20.985C19.0169 24.6008 16.0753 27.5424 12.4595 27.5424C8.84379 27.5424 5.90215 24.6008 5.90215 20.985ZM28.1972 77.3784H22.9513V59.0178C22.9513 58.2939 22.3638 57.7063 21.6399 57.7063H7.21363C5.04445 57.7063 3.2792 55.9411 3.2792 53.7719V34.0998C3.2792 31.9306 5.04445 30.1653 7.21363 30.1653H13.771C15.9402 30.1653 17.7054 31.9306 17.7054 34.0998V44.5916C17.7054 45.3155 18.293 45.903 19.0169 45.903H32.1317V49.8375H13.771V38.0342H11.1481V51.1489C11.1481 51.8729 11.7356 52.4604 12.4595 52.4604H24.2628C26.432 52.4604 28.1972 54.2257 28.1972 56.3948V77.3784ZM49.3277 55.0834H30.6733C30.4753 54.1168 30.0779 53.2224 29.5061 52.4604H50.4949C49.9231 53.2224 49.5258 54.1168 49.3277 55.0834ZM76.7218 53.7719C76.7218 55.9411 74.9566 57.7063 72.7874 57.7063H58.3612C57.6372 57.7063 57.0497 58.2939 57.0497 59.0178V77.3784H51.8038V56.3948C51.8038 54.2257 53.569 52.4604 55.7382 52.4604H67.5415C68.2654 52.4604 68.853 51.8729 68.853 51.1489V38.0342H66.23V49.8375H47.8694V45.903H60.9841C61.7081 45.903 62.2956 45.3155 62.2956 44.5916V34.0998C62.2956 31.9306 64.0608 30.1653 66.23 30.1653H72.7874C74.9566 30.1653 76.7218 31.9306 76.7218 34.0998V53.7719Z" fill="#2EB4FF"/>
<path d="M38.6895 43.2787H41.3125V45.9016H38.6895V43.2787ZM33.4436 0H15.083C14.359 0 13.7715 0.587541 13.7715 1.31148V7.86885C13.7715 8.59279 14.359 9.18033 15.083 9.18033H20.3289V11.8033C20.3289 12.3003 20.6095 12.7541 21.0541 12.977C21.239 13.0689 21.441 13.1148 21.6403 13.1148C21.924 13.1144 22.2 13.0224 22.4272 12.8525L27.323 9.18033H33.4436C34.1675 9.18033 34.7551 8.59279 34.7551 7.86885V1.31148C34.7551 0.587541 34.1675 0 33.4436 0ZM32.1321 6.55738H26.8862C26.603 6.55738 26.3262 6.64918 26.0994 6.81967L22.9518 9.18033V7.86885C22.9518 7.14492 22.3643 6.55738 21.6403 6.55738H16.3944V2.62295H32.1321V6.55738ZM46.5584 3.93443H49.1813V6.55738H46.5584V3.93443ZM51.8043 3.93443H54.4272V6.55738H51.8043V3.93443ZM57.0502 3.93443H59.6731V6.55738H57.0502V3.93443Z" fill="#2EB4FF"/>
</g>
<defs>
<clipPath id="clip0_77_1323">
<rect width="80" height="80" fill="white"/>
</clipPath>
</defs>
</svg>
