<svg width="209" height="199" viewBox="0 0 209 199" fill="none" xmlns="http://www.w3.org/2000/svg">
<g clip-path="url(#clip0_334_3807)">
<path d="M140.418 80.5133C140.64 80.5191 140.864 80.5275 141.082 80.5498C141.302 80.5687 141.51 80.5971 141.749 80.6295C142.215 80.6913 142.682 80.7465 143.152 80.7668C143.563 80.7874 143.986 80.8171 144.408 80.8689C144.827 80.9214 145.247 80.9863 145.645 81.088C145.995 81.1718 146.234 80.9332 146.299 80.6445C146.365 80.3558 146.25 80.0193 145.89 79.9322C145.009 79.7168 144.106 79.6043 143.2 79.5202L141.844 79.4046C141.624 79.3859 141.372 79.3632 141.139 79.3542C140.902 79.3429 140.667 79.3407 140.432 79.3382C140.051 79.3346 139.873 79.6347 139.88 79.9288C139.89 80.2219 140.074 80.5091 140.418 80.5133Z" fill="#CACEDB"/>
<path d="M149.713 82.3858C150.155 82.532 150.59 82.6987 151.026 82.8589C151.461 83.0192 151.898 83.1823 152.345 83.3147C152.736 83.434 153.136 83.5663 153.539 83.72C153.939 83.8712 154.331 84.0337 154.704 84.2169C155.356 84.5405 155.852 83.4603 155.195 83.1383C154.793 82.941 154.383 82.7614 153.969 82.5921C153.559 82.4219 153.127 82.2637 152.696 82.1115L152.044 81.891L151.392 81.6798L150.089 81.2632C149.739 81.1424 149.471 81.3763 149.384 81.6579C149.291 81.9383 149.374 82.2713 149.713 82.3858Z" fill="#CACEDB"/>
<path d="M121.146 80.3263C121.607 80.2634 122.071 80.2217 122.533 80.1736C122.995 80.126 123.459 80.0802 123.918 80.0025C124.322 79.9375 124.74 79.8801 125.169 79.841C125.594 79.8009 126.018 79.774 126.434 79.7743C127.162 79.7782 127.132 78.5899 126.4 78.5899C125.952 78.5896 125.505 78.6089 125.059 78.6388C124.615 78.6667 124.158 78.7147 123.704 78.7676L123.022 78.8564L122.343 78.9539L120.99 79.153C120.622 79.1987 120.484 79.5267 120.531 79.8175C120.571 80.1103 120.791 80.373 121.146 80.3263Z" fill="#CACEDB"/>
<path d="M158.504 86.2413C158.92 86.4536 159.33 86.6829 159.742 86.9056C160.149 87.1328 160.568 87.3443 160.988 87.5398C161.174 87.627 161.364 87.71 161.55 87.8066C161.735 87.9033 161.92 88.003 162.104 88.1033C162.475 88.3027 162.817 88.5442 163.149 88.782C163.432 88.9989 163.746 88.8773 163.925 88.6393C164.102 88.4048 164.139 88.0429 163.841 87.8146C163.472 87.5458 163.098 87.2788 162.703 87.0515C162.507 86.9359 162.307 86.8182 162.109 86.7064L161.5 86.3901C161.096 86.1747 160.679 85.9907 160.27 85.7827C159.86 85.5876 159.45 85.3862 159.045 85.1801C158.387 84.8553 157.862 85.9182 158.504 86.2413Z" fill="#CACEDB"/>
<path d="M130.737 79.9201C131.204 79.9277 131.673 79.9529 132.141 79.9717C132.607 79.9965 133.076 80.0022 133.539 79.9927C133.745 79.9892 133.952 79.9801 134.161 79.9854C134.37 79.9906 134.58 79.9986 134.789 80.008C135.21 80.0236 135.623 80.09 136.026 80.1572C136.376 80.2276 136.604 79.9805 136.66 79.688C136.716 79.3992 136.59 79.0583 136.221 78.9844C135.773 78.905 135.319 78.8301 134.864 78.7997C134.637 78.782 134.406 78.7644 134.179 78.7514L133.493 78.7351C133.035 78.7198 132.58 78.7379 132.121 78.7309C131.667 78.7364 131.21 78.736 130.756 78.7289C130.022 78.7267 130.018 79.9123 130.737 79.9201Z" fill="#CACEDB"/>
<path d="M166.202 91.6816L166.652 92.1962L166.877 92.4536L167.107 92.7283C167.413 93.0915 167.729 93.4457 168.071 93.7747C168.671 94.3517 169.287 94.9744 169.786 95.6349C170.221 96.2126 171.153 95.4766 170.711 94.888C170.169 94.1708 169.556 93.513 168.935 92.8603L168.008 91.882C167.707 91.5515 167.373 91.2145 167.07 90.8723C166.539 90.3327 165.712 91.1901 166.202 91.6816Z" fill="#CACEDB"/>
<path d="M172.193 99.1589C172.68 99.9036 173.035 100.74 173.478 101.552C173.869 102.266 174.24 103.064 174.514 103.853C174.635 104.201 174.976 104.265 175.252 104.153C175.528 104.042 175.74 103.764 175.624 103.424C175.336 102.595 174.984 101.761 174.578 100.933C174.371 100.521 174.157 100.108 173.924 99.7067C173.694 99.3012 173.45 98.9028 173.192 98.5109C172.98 98.1878 172.63 98.2164 172.389 98.3871C172.141 98.5594 172.01 98.8813 172.193 99.1589Z" fill="#CACEDB"/>
<path d="M176.069 107.832C176.187 108.214 176.234 108.635 176.269 109.077L176.299 109.433C176.31 109.555 176.325 109.679 176.341 109.799C176.375 110.042 176.417 110.28 176.47 110.512C176.657 111.334 176.852 112.179 176.855 112.982C176.859 113.333 177.15 113.507 177.448 113.505C177.744 113.503 178.05 113.309 178.045 112.927C178.041 112.461 177.992 111.997 177.927 111.548C177.858 111.096 177.776 110.657 177.698 110.22C177.659 110.003 177.622 109.785 177.589 109.57C177.555 109.349 177.53 109.15 177.503 108.908C177.443 108.441 177.359 107.956 177.212 107.478C177.088 107.088 176.727 107.032 176.457 107.151C176.178 107.276 175.979 107.544 176.069 107.832Z" fill="#CACEDB"/>
<path d="M176.378 117.162C176.3 117.616 176.203 118.066 176.098 118.515C175.999 118.965 175.894 119.411 175.812 119.862C175.737 120.259 175.651 120.669 175.53 121.066C175.413 121.465 175.25 121.848 175.086 122.213C174.921 122.525 175.104 122.812 175.37 122.944C175.636 123.075 175.992 123.041 176.17 122.704C176.269 122.493 176.358 122.28 176.447 122.066C176.536 121.852 176.621 121.633 176.689 121.412C176.836 120.971 176.949 120.523 177.056 120.074C177.156 119.62 177.247 119.169 177.322 118.716C177.406 118.263 177.475 117.809 177.553 117.358C177.614 116.99 177.343 116.763 177.051 116.72C176.753 116.679 176.437 116.813 176.378 117.162Z" fill="#CACEDB"/>
<path d="M172.765 125.726C172.482 126.091 172.205 126.462 171.907 126.816C171.758 126.996 171.617 127.18 171.476 127.361C171.331 127.541 171.191 127.728 171.058 127.916C170.828 128.255 170.559 128.58 170.294 128.906C170.022 129.228 169.729 129.531 169.43 129.811C168.893 130.285 169.705 131.161 170.261 130.666C170.593 130.355 170.915 130.035 171.219 129.692C171.52 129.347 171.819 129.001 172.095 128.634L172.517 128.091L172.923 127.534C173.202 127.169 173.451 126.785 173.731 126.423C173.95 126.121 173.809 125.795 173.564 125.627C173.314 125.46 172.974 125.439 172.765 125.726Z" fill="#CACEDB"/>
<path d="M166.085 132.488C165.717 132.777 165.345 133.064 164.972 133.348C164.603 133.634 164.232 133.927 163.885 134.247C163.273 134.804 162.608 135.378 161.913 135.823C161.611 136.02 161.624 136.362 161.79 136.607C161.958 136.852 162.283 137.004 162.591 136.803C163.349 136.316 164.051 135.747 164.746 135.168L165.786 134.288C166.135 133.998 166.479 133.697 166.835 133.421C167.404 132.951 166.64 132.034 166.085 132.488Z" fill="#CACEDB"/>
<path d="M158.199 137.989C157.8 138.234 157.385 138.456 156.981 138.693C156.571 138.922 156.172 139.165 155.784 139.425C155.444 139.66 155.086 139.881 154.723 140.096C154.354 140.302 153.98 140.501 153.599 140.651C152.937 140.922 153.399 142.019 154.09 141.737C154.513 141.567 154.919 141.362 155.321 141.151C155.72 140.931 156.115 140.704 156.502 140.463C156.894 140.227 157.272 139.976 157.66 139.735C158.042 139.486 158.427 139.248 158.816 139.01C159.133 138.822 159.132 138.471 158.977 138.217C158.818 137.963 158.508 137.804 158.199 137.989Z" fill="#CACEDB"/>
<path d="M149.535 142.154C148.66 142.533 147.766 142.887 146.947 143.375C146.587 143.59 146.218 143.807 145.839 144.012C145.458 144.22 145.092 144.409 144.709 144.552C144.379 144.681 144.319 145.015 144.431 145.294C144.542 145.569 144.828 145.788 145.178 145.648C145.393 145.568 145.604 145.471 145.812 145.374C146.02 145.278 146.215 145.179 146.416 145.079C146.813 144.876 147.208 144.663 147.601 144.452C148.391 144.028 149.181 143.604 150.005 143.246C150.677 142.96 150.21 141.861 149.535 142.154Z" fill="#CACEDB"/>
<path d="M140.605 145.859C139.705 146.185 138.77 146.505 137.934 147.025C137.549 147.265 137.242 147.476 136.87 147.65C136.503 147.826 136.114 147.968 135.719 148.077C135.022 148.267 135.363 149.41 136.075 149.215C136.513 149.094 136.955 148.941 137.392 148.744C137.609 148.647 137.825 148.536 138.04 148.416L138.613 148.089C138.993 147.878 139.381 147.674 139.783 147.488C140.182 147.303 140.594 147.13 141.012 146.977C141.692 146.736 141.303 145.61 140.605 145.859Z" fill="#CACEDB"/>
<path d="M131.556 149.491C131.131 149.676 130.705 149.841 130.281 149.992L129.641 150.213C129.431 150.289 129.219 150.358 128.986 150.445C128.591 150.598 128.184 150.757 127.779 150.916C127.374 151.071 126.968 151.221 126.565 151.344C125.86 151.568 126.273 152.688 126.957 152.47C127.378 152.341 127.791 152.196 128.207 152.05C128.62 151.902 129.036 151.756 129.451 151.62C129.882 151.479 130.336 151.313 130.765 151.136C131.198 150.957 131.617 150.767 132.039 150.582C132.717 150.276 132.203 149.199 131.556 149.491Z" fill="#CACEDB"/>
<path d="M122.426 152.655C121.984 152.81 121.538 152.958 121.097 153.102C120.651 153.256 120.186 153.418 119.756 153.627C119.374 153.807 118.985 153.996 118.591 154.177C118.195 154.351 117.803 154.528 117.407 154.668C116.716 154.929 117.184 156.024 117.856 155.772C118.271 155.623 118.677 155.452 119.087 155.283C119.493 155.109 119.901 154.934 120.311 154.762C120.722 154.589 121.124 154.425 121.551 154.26C121.978 154.098 122.401 153.933 122.828 153.78C123.521 153.526 123.106 152.41 122.426 152.655Z" fill="#CACEDB"/>
<path d="M113.339 156.249C112.475 156.653 111.595 157.035 110.789 157.541C110.082 157.986 109.328 158.441 108.571 158.781C107.905 159.078 108.427 160.149 109.096 159.852C110.727 159.122 112.225 158.09 113.848 157.331C114.5 157.021 114.003 155.937 113.339 156.249Z" fill="#CACEDB"/>
<path d="M104.58 160.526C103.729 160.97 102.859 161.4 102.088 161.978C101.41 162.487 100.701 163.022 99.9911 163.484C99.681 163.685 99.7019 164.032 99.8793 164.274C100.056 164.513 100.377 164.654 100.675 164.462C102.134 163.519 103.545 162.408 105.132 161.584C105.772 161.253 105.237 160.185 104.58 160.526Z" fill="#CACEDB"/>
<path d="M96.4937 166.205C95.8122 166.883 95.1232 167.548 94.5412 168.283C94.2845 168.605 94.0135 168.932 93.7294 169.242C93.4462 169.558 93.1456 169.832 92.8255 170.127C92.2646 170.63 93.1208 171.462 93.6413 170.995C93.949 170.713 94.309 170.392 94.6177 170.066C94.9349 169.738 95.2368 169.398 95.5344 169.057C96.1276 168.372 96.702 167.679 97.3347 167.05C97.8459 166.549 97.0236 165.682 96.4937 166.205Z" fill="#CACEDB"/>
<path d="M89.7359 173.317C89.4517 173.711 89.1608 174.103 88.8917 174.505C88.7625 174.709 88.6342 174.918 88.5123 175.125C88.3875 175.333 88.2735 175.547 88.176 175.766C87.9956 176.151 87.8109 176.543 87.6264 176.936C87.4416 177.328 87.2383 177.709 87.0411 178.077C86.6785 178.726 87.752 179.25 88.0988 178.625C88.3097 178.238 88.5216 177.854 88.7184 177.462C88.9113 177.064 89.127 176.683 89.3221 176.284C89.5252 175.89 89.7478 175.51 89.9654 175.124C90.198 174.75 90.4344 174.375 90.6946 174.018C91.1284 173.463 90.1977 172.716 89.7359 173.317Z" fill="#CACEDB"/>
<path d="M123.504 59.1602C123.401 54.1009 119.222 50.0831 114.168 50.1853C109.115 50.2876 105.102 54.4712 105.204 59.5304C105.204 59.5304 105.12 59.9954 105.371 61.1054C105.492 61.7231 105.673 62.3221 105.91 62.8898C106.907 65.6166 109.251 70.2229 114.72 77.4652C119.893 70.0075 122.048 65.3102 122.934 62.5454C123.148 61.9685 123.308 61.3656 123.4 60.7406C123.606 59.6185 123.504 59.1602 123.504 59.1602ZM114.463 64.9007C111.398 64.9627 108.863 62.5259 108.801 59.4576C108.739 56.3887 111.173 53.8513 114.238 53.7893C117.303 53.7273 119.838 56.1641 119.9 59.2331C119.965 62.3012 117.528 64.8387 114.463 64.9007Z" fill="#CACEDB"/>
<path d="M115.002 83.6462C113.908 83.9398 112.783 83.2917 112.49 82.1992C112.197 81.1067 112.846 79.9824 113.94 79.6888C115.033 79.3952 116.158 80.0433 116.451 81.1358C116.745 82.2283 116.096 83.3526 115.002 83.6462Z" fill="#CACEDB"/>
</g>
<defs>
<clipPath id="clip0_334_3807">
<rect width="164.073" height="143.275" fill="white" transform="matrix(-0.910825 -0.412792 -0.412792 0.910825 208.585 67.728)"/>
</clipPath>
</defs>
</svg>
