<svg width="123" height="120" viewBox="0 0 123 120" fill="none" xmlns="http://www.w3.org/2000/svg">
<path d="M122.438 15.2299C121.948 16.0226 121.472 16.8292 120.879 17.5405C120.359 18.1639 119.815 18.8294 119.382 19.5088C119.002 20.1069 118.043 19.4542 118.424 18.8562C119.354 17.3936 120.541 16.1004 121.45 14.6207C121.634 14.3234 121.971 14.3215 122.22 14.4696C122.469 14.6177 122.626 14.9245 122.438 15.2299Z" fill="#CACEDB"/>
<path d="M117.203 23.1022C116.948 23.4893 116.692 23.877 116.437 24.2648C116.182 24.6525 115.897 25.0191 115.593 25.3709C115.325 25.6772 115.055 25.9947 114.793 26.3226C114.534 26.6481 114.275 26.9764 114.048 27.3119C113.648 27.9016 112.715 27.2106 113.109 26.6293C113.348 26.2718 113.612 25.9297 113.871 25.5834C114.132 25.2382 114.399 24.8986 114.671 24.5577C114.944 24.2197 115.219 23.882 115.475 23.5297C115.735 23.1805 115.99 22.8288 116.231 22.4656C116.625 21.878 117.598 22.5054 117.203 23.1022Z" fill="#CACEDB"/>
<path d="M111.665 30.8017C111.38 31.1675 111.095 31.5333 110.811 31.8971C110.523 32.2625 110.219 32.6115 109.89 32.9362C109.601 33.2218 109.304 33.5185 109.022 33.8229C108.742 34.1311 108.459 34.4383 108.21 34.7558C107.769 35.3136 106.887 34.5624 107.32 34.0094C107.587 33.6706 107.872 33.3458 108.155 33.0178C108.44 32.6929 108.734 32.3721 109.033 32.0556C109.332 31.7383 109.626 31.4175 109.912 31.0898C110.197 30.7621 110.48 30.4313 110.75 30.0901C111.184 29.5343 112.106 30.2382 111.665 30.8017Z" fill="#CACEDB"/>
<path d="M105.594 38.0797C104.975 38.7638 104.391 39.4936 103.693 40.0997C103.079 40.6344 102.455 41.2181 101.914 41.8214C101.444 42.3544 100.6 41.5581 101.066 41.0268C101.642 40.3842 102.255 39.7696 102.887 39.1699C103.516 38.5696 104.138 37.9562 104.723 37.3085C104.958 37.0482 105.29 37.101 105.51 37.2954C105.729 37.487 105.834 37.8134 105.594 38.0797Z" fill="#CACEDB"/>
<path d="M99.1413 45.0026C98.4935 45.6592 97.8722 46.3546 97.1517 46.9311C96.5172 47.4394 95.8652 47.9927 95.3063 48.5757C94.8162 49.0888 94.0054 48.261 94.4921 47.751C95.0891 47.1257 95.7336 46.5419 96.3911 45.9692C96.7188 45.6823 97.0444 45.3895 97.3666 45.0961C97.6894 44.8029 98.0066 44.5031 98.3112 44.1902C98.8001 43.6856 99.6349 44.49 99.1413 45.0026Z" fill="#CACEDB"/>
<path d="M92.4222 51.6566C92.0899 51.9781 91.7548 52.2991 91.4231 52.6207C91.0855 52.9385 90.7399 53.2467 90.37 53.5215C89.7209 54.0098 89.0452 54.5363 88.4623 55.0988C87.9538 55.5944 87.1769 54.733 87.6819 54.2427C88.3018 53.6442 88.9694 53.0872 89.6417 52.5373C90.3178 51.9871 90.9889 51.4249 91.6205 50.825C92.1234 50.3287 92.9308 51.1611 92.4222 51.6566Z" fill="#CACEDB"/>
<path d="M85.4219 58.0413C85.0715 58.3424 84.7258 58.6563 84.368 58.9477C84.0105 59.2421 83.6439 59.5296 83.2621 59.7855C82.9221 60.0082 82.57 60.2358 82.2308 60.4794C81.889 60.7206 81.5624 60.9774 81.2502 61.234C80.7022 61.692 79.9924 60.7742 80.5301 60.3241C80.8618 60.05 81.1965 59.7756 81.544 59.5187C81.8883 59.2578 82.246 59.0101 82.5964 58.7529L83.6471 57.9789C83.9978 57.7188 84.3352 57.4454 84.6654 57.1618C85.1986 56.7018 85.9619 57.5736 85.4219 58.0413Z" fill="#CACEDB"/>
<path d="M77.9951 63.9441C77.6191 64.2159 77.2435 64.4899 76.8671 64.7646C76.4888 65.0325 76.0905 65.2769 75.6862 65.4975C75.3245 65.6886 74.9655 65.8973 74.5967 66.0989C74.2324 66.3041 73.8758 66.5217 73.5438 66.7548C72.9578 67.1632 72.3424 66.1789 72.9181 65.7777C73.2696 65.5329 73.6338 65.3012 74.0033 65.0788C74.3719 64.857 74.7445 64.6322 75.1168 64.4101C75.4886 64.1859 75.8682 63.9735 76.2338 63.7362C76.5984 63.5017 76.9609 63.2612 77.3166 63.0075C77.6037 62.8043 77.9172 62.9316 78.0897 63.1636C78.2567 63.3985 78.2847 63.7384 77.9951 63.9441Z" fill="#CACEDB"/>
<path d="M70.012 69.113C69.6116 69.3522 69.1985 69.568 68.7906 69.7939C68.3781 70.0106 67.9653 70.2293 67.5284 70.3867C67.1457 70.5304 66.7542 70.6816 66.3688 70.8459C65.9893 71.0138 65.592 71.1814 65.2231 71.3565C64.8959 71.5105 64.6208 71.3151 64.5121 71.047C64.4027 70.7788 64.4506 70.4404 64.7627 70.293C65.1471 70.1142 65.5308 69.9354 65.9147 69.7559C66.3076 69.5783 66.7019 69.4066 67.1021 69.2387C67.5023 69.0714 67.8912 68.881 68.2873 68.701C68.6783 68.5109 69.0744 68.3309 69.4463 68.1059C70.0487 67.7529 70.6324 68.7538 70.012 69.113Z" fill="#CACEDB"/>
<path d="M61.3325 73.0421C60.9098 73.2007 60.4791 73.3761 60.0937 73.5461C59.6979 73.7233 59.3062 73.919 58.8924 74.0967C58.1689 74.4106 57.4097 74.8138 56.7061 75.2418C56.395 75.431 56.0982 75.2643 55.967 75.0083C55.8331 74.7512 55.8482 74.417 56.1372 74.2371C56.8515 73.7991 57.6086 73.3625 58.4143 72.9661C58.8184 72.7692 59.2359 72.5855 59.663 72.4154C60.0986 72.2463 60.5063 72.1088 60.923 71.9523C61.596 71.7057 61.9882 72.796 61.3325 73.0421Z" fill="#CACEDB"/>
<path d="M52.7214 76.9497C51.8212 77.1927 50.9106 77.4487 49.973 77.53C49.5584 77.5632 49.1312 77.5983 48.7042 77.6327C48.237 77.6617 47.8152 77.6408 47.4039 77.6485C47.0454 77.654 46.8764 77.3743 46.8801 77.0982C46.885 76.8186 47.073 76.5398 47.4195 76.5327C47.8424 76.5244 48.2612 76.5298 48.6172 76.4946C49.0306 76.4491 49.4568 76.3937 49.8808 76.3388C50.7285 76.221 51.5838 76.0727 52.4226 75.8481C53.0974 75.6577 53.417 76.7593 52.7214 76.9497Z" fill="#CACEDB"/>
<path d="M44.9174 110.382L36.6772 103.936L34.0861 104.862C33.5807 105.043 33.0114 104.749 32.818 104.21L31.9878 101.887C31.8095 101.386 32.017 100.847 32.45 100.628L28.5844 97.6035L26.5575 98.328C26.0181 98.5213 25.4178 98.2381 25.2242 97.6958L24.3938 95.3739C24.2752 95.0456 24.3371 94.6939 24.526 94.4245L20.3878 91.1866C16.5626 92.5532 13.8629 93.5179 13.7703 93.5501C9.83735 94.9548 2.66024 95.2674 1.78093 92.8061C0.898085 90.3443 6.64596 86.0402 10.579 84.6348C10.6722 84.6034 13.3684 83.6382 17.1963 82.272L18.3393 77.1458C18.0236 77.0564 17.7532 76.8264 17.635 76.4945L16.8047 74.1726C16.6106 73.6338 16.8937 73.0343 17.4366 72.8415L19.4634 72.1177L20.5316 67.3321C20.0571 67.4371 19.5548 67.1518 19.3734 66.6528L18.543 64.3309C18.349 63.7914 18.6044 63.2003 19.1094 63.0233L21.7005 62.0973L23.9767 51.8961C24.2267 50.7734 25.0776 49.8809 26.1867 49.5745L26.3984 49.5171C28.3595 48.9793 30.3027 50.432 30.337 52.4626L30.4604 59.9163C31.6817 59.8576 32.6277 60.0482 32.8682 60.7023C33.1869 61.5681 32.0549 62.5317 30.5193 63.3977L30.6202 69.4504C31.3912 69.5092 31.9437 69.73 32.1145 70.1953C32.3554 70.8524 31.7113 71.5835 30.6663 72.2936L30.7505 77.4301C37.7519 74.9295 43.92 72.7253 44.0595 72.6756C45.4751 72.1715 47.3845 71.7798 49.2918 71.6026L51.9957 60.6925C52.1041 60.2558 52.4034 59.8911 52.8095 59.7009C53.7985 59.2334 54.9404 59.9487 54.9516 61.0414L55.0446 71.7406C58.358 70.9316 62.2484 70.2023 62.4454 71.1833C62.6389 72.1473 59.315 73.9636 56.3527 75.374L63.0651 83.6897C63.752 84.542 63.3257 85.8179 62.2629 86.0838C61.8258 86.1937 61.3627 86.0998 61.0034 85.8306L51.9823 79.1093C50.3961 80.1776 48.669 81.0893 47.2555 81.5937C47.1167 81.6435 40.9486 83.8477 33.9465 86.3482L37.1425 90.3709C38.4004 90.2582 39.3657 90.4168 39.5935 91.0751C39.7554 91.5421 39.4676 92.0634 38.9095 92.5969L42.6773 97.3387C44.4156 97.0334 45.8988 97.0628 46.2054 97.9327C46.4367 98.5914 45.8268 99.3357 44.8438 100.066L49.4833 105.906C50.7477 107.499 50.1683 109.855 48.3107 110.678L48.11 110.766C47.0457 111.244 45.8236 111.092 44.9174 110.382Z" fill="#CACEDB"/>
</svg>
