<svg width="266" height="34" viewBox="0 0 266 34" fill="none" xmlns="http://www.w3.org/2000/svg">
<g clip-path="url(#clip0_481_1499)">
<path d="M181.995 14.132L173.989 1.91696L176.804 0L184.256 11.3383L191.679 0L194.465 1.88724L186.458 14.132H181.995Z" fill="#297BFF"/>
<path d="M181.995 19.8828L173.989 32.083L176.804 33.9999L184.256 22.6765L191.679 33.9999L194.465 32.1127L186.458 19.8828H181.995Z" fill="#297BFF"/>
<path d="M187.042 14.7266L199.03 6.56836L200.911 9.45123L189.783 17.0299L200.911 24.6086L199.059 27.432L187.042 19.2738V14.7266Z" fill="#FF0000"/>
<path d="M181.398 14.7266L169.424 6.56836L167.543 9.45123L178.656 17.0299L167.543 24.6086L169.395 27.432L181.398 19.2738V14.7266Z" fill="#FF0000"/>
<path d="M216.88 14.4293H215.685V12.1854V10.5656V9.07963V3.28418H216.88V14.4293ZM215.699 10.6102C215.75 9.84543 215.544 9.08583 215.116 8.45551C214.901 8.20621 214.633 8.0108 214.332 7.8845C214.031 7.7582 213.705 7.70443 213.38 7.72736C213.051 7.70088 212.72 7.75289 212.414 7.87928C212.107 8.00566 211.834 8.20294 211.616 8.45551C211.188 9.08583 210.982 9.84543 211.032 10.6102C210.982 11.3797 211.188 12.1439 211.616 12.7798C211.836 13.0297 212.11 13.2251 212.416 13.3513C212.721 13.4774 213.051 13.531 213.38 13.508C213.706 13.5279 214.032 13.4713 214.333 13.3425C214.634 13.2137 214.902 13.0161 215.116 12.7649C215.542 12.1336 215.747 11.3748 215.699 10.6102ZM216.005 10.6102C216.009 11.1081 215.97 11.6054 215.889 12.0962C215.811 12.5431 215.653 12.9715 215.422 13.3594C215.199 13.7304 214.881 14.0333 214.503 14.2361C214.05 14.4637 213.55 14.5759 213.045 14.563C212.611 14.565 212.183 14.4686 211.791 14.2807C211.399 14.1019 211.055 13.8322 210.784 13.4931C210.484 13.1191 210.257 12.6905 210.113 12.23C209.948 11.6967 209.869 11.1396 209.88 10.5805C209.861 10.0182 209.93 9.45641 210.084 8.91617C210.224 8.46332 210.453 8.04386 210.755 7.68278C211.026 7.34369 211.37 7.07393 211.761 6.89519C212.152 6.70228 212.582 6.60557 213.016 6.61285C213.521 6.59103 214.024 6.7037 214.474 6.93977C214.852 7.13667 215.169 7.43464 215.393 7.80166C215.624 8.18954 215.782 8.61787 215.86 9.06477C215.955 9.57429 216.003 10.0916 216.005 10.6102Z" fill="#180047"/>
<path d="M221.474 5.94402H222.933V4.45801H221.474V5.94402ZM222.86 13.8348V9.16867C222.895 8.54141 222.703 7.92293 222.32 7.43004C222.102 7.22314 221.845 7.06475 221.564 6.96497C221.282 6.86519 220.984 6.8262 220.687 6.85049H218.762V8.02444H221.445C221.506 7.99885 221.574 7.99885 221.635 8.02444C221.681 8.07169 221.708 8.13583 221.708 8.20276C221.716 8.31652 221.716 8.43079 221.708 8.54455V13.8793L222.86 13.8348ZM218.762 14.4292H225.806V13.2552H218.762V14.4292Z" fill="#180047"/>
<path d="M227.629 10.6106C227.579 11.38 227.784 12.1443 228.213 12.7802C228.433 13.0301 228.707 13.2255 229.012 13.3517C229.318 13.4778 229.648 13.5314 229.977 13.5083C230.302 13.5313 230.628 13.4775 230.929 13.3512C231.23 13.2249 231.498 13.0295 231.713 12.7802C232.147 12.1473 232.353 11.3807 232.296 10.6106C232.354 9.84507 232.147 9.08307 231.713 8.45588C231.498 8.20658 231.23 8.01117 230.929 7.88488C230.628 7.75858 230.302 7.7048 229.977 7.72773C229.648 7.70126 229.317 7.75327 229.011 7.87965C228.704 8.00603 228.431 8.20331 228.213 8.45588C227.785 9.0862 227.579 9.8458 227.629 10.6106ZM226.448 10.6106C226.438 10.0358 226.522 9.46339 226.696 8.91655C226.831 8.4601 227.054 8.03572 227.352 7.66829C227.623 7.3292 227.967 7.05945 228.358 6.88071C228.754 6.68657 229.188 6.58986 229.627 6.59836C230.133 6.57655 230.636 6.68921 231.086 6.92529C231.463 7.1228 231.78 7.42063 232.004 7.78717C232.235 8.18047 232.394 8.61364 232.471 9.06515C232.571 9.55382 232.62 10.052 232.617 10.5512C232.618 11.0495 232.574 11.5469 232.486 12.0372C232.41 12.4868 232.246 12.9164 232.004 13.3003C231.785 13.6748 231.467 13.9787 231.086 14.177C230.633 14.4052 230.132 14.5174 229.627 14.504C229.189 14.5052 228.756 14.4089 228.358 14.2216C227.967 14.0429 227.623 13.7731 227.352 13.434C227.054 13.0666 226.831 12.6422 226.696 12.1858C226.534 11.677 226.45 11.1456 226.448 10.6106ZM232.282 12.2006V10.7146V9.09487V6.79155H233.477V14.9795C233.535 15.6229 233.353 16.2649 232.967 16.7776C232.753 16.9802 232.5 17.1352 232.223 17.2324C231.947 17.3296 231.654 17.367 231.363 17.3422H227.192V16.1089H232.019C232.085 16.1087 232.148 16.082 232.194 16.0346C232.213 15.9716 232.213 15.9043 232.194 15.8414C232.203 15.7375 232.203 15.6331 232.194 15.5293L232.282 12.2006Z" fill="#180047"/>
<path d="M237.94 5.94402H239.399V4.45801H237.94V5.94402ZM239.326 13.8348V9.16867C239.36 8.54141 239.168 7.92293 238.786 7.43004C238.568 7.22314 238.311 7.06475 238.029 6.96497C237.748 6.86519 237.45 6.8262 237.153 6.85049H235.155V8.02444H237.838C237.899 8.00173 237.967 8.00173 238.028 8.02444C238.049 8.08191 238.049 8.1453 238.028 8.20276C238.036 8.31652 238.036 8.43079 238.028 8.54455V13.8793L239.326 13.8348ZM235.155 14.3846H242.199V13.2552H235.155V14.3846Z" fill="#180047"/>
<path d="M248.791 6.79105H241.732V7.97986H248.791V6.79105ZM244.066 4.45801V12.0664C244.011 12.7095 244.193 13.3504 244.576 13.8645C244.792 14.0691 245.047 14.2251 245.326 14.3224C245.605 14.4197 245.901 14.4561 246.195 14.4292H248.791V13.2106H245.524C245.46 13.2044 245.399 13.1785 245.349 13.1363C245.338 13.0774 245.338 13.0169 245.349 12.958C245.34 12.8443 245.34 12.73 245.349 12.6162V4.45801H244.066Z" fill="#180047"/>
<path d="M256.156 9.67389H255.339H254.552H253.735C253.294 9.68985 252.855 9.74454 252.422 9.83735C252.027 9.91704 251.644 10.0521 251.285 10.2386C250.963 10.4111 250.688 10.6611 250.483 10.9667C250.267 11.3068 250.16 11.7065 250.177 12.1109C250.154 12.7215 250.363 13.3175 250.76 13.7753C250.987 14.0036 251.259 14.18 251.559 14.2928C251.858 14.4055 252.177 14.452 252.495 14.4291C253.109 14.4462 253.72 14.3349 254.289 14.1022C254.722 13.9104 255.102 13.6147 255.398 13.2403C255.671 12.8969 255.865 12.4959 255.966 12.0664C256.066 11.6329 256.115 11.189 256.112 10.7438H255.529C255.528 11.053 255.499 11.3615 255.441 11.6651C255.376 11.9718 255.246 12.2606 255.062 12.5122C254.847 12.7724 254.578 12.9805 254.275 13.1214C253.858 13.2906 253.411 13.3715 252.962 13.3592C252.556 13.3814 252.153 13.2888 251.795 13.0917C251.649 12.9788 251.535 12.8289 251.463 12.6568C251.391 12.4847 251.365 12.2965 251.387 12.1109C251.38 11.8848 251.441 11.6619 251.562 11.472C251.703 11.2939 251.883 11.1515 252.087 11.0559C252.331 10.9565 252.586 10.8867 252.845 10.8478C253.145 10.796 253.447 10.7613 253.75 10.7438H254.493H255.281H255.908H256.156V9.67389ZM255.529 9.67389V12.6459C255.512 12.9082 255.512 13.1713 255.529 13.4335C255.549 13.6206 255.603 13.8021 255.689 13.9685C255.776 14.109 255.903 14.2182 256.054 14.2805C256.276 14.3483 256.508 14.3785 256.739 14.3697H257.162V13.2106H256.681V9.95623C256.682 9.50343 256.618 9.05293 256.491 8.61882C256.389 8.23121 256.205 7.87109 255.952 7.56375C255.701 7.26464 255.38 7.03469 255.018 6.89504C254.136 6.54801 253.159 6.54801 252.277 6.89504C251.903 7.04302 251.565 7.27106 251.285 7.56375C251.029 7.82613 250.822 8.13315 250.672 8.47021C250.543 8.78605 250.474 9.12384 250.468 9.46584H251.664C251.662 9.2328 251.717 9.00291 251.825 8.79714C251.934 8.59959 252.083 8.42752 252.262 8.29189C252.45 8.14539 252.663 8.03464 252.889 7.96497C253.125 7.88825 253.371 7.84818 253.618 7.84609C253.868 7.82946 254.117 7.86432 254.353 7.94859C254.589 8.03287 254.805 8.1648 254.989 8.33647C255.171 8.51711 255.313 8.73504 255.406 8.97585C255.499 9.21665 255.541 9.47484 255.529 9.73333V9.67389Z" fill="#180047"/>
<path d="M263.083 13.8796V5.64705C263.126 4.99568 262.922 4.35233 262.514 3.84898C262.3 3.64706 262.046 3.49263 261.77 3.39544C261.494 3.29826 261.201 3.26041 260.91 3.28429H258.591V4.45824H261.508C261.561 4.44743 261.616 4.44743 261.669 4.45824C261.693 4.48337 261.713 4.51358 261.725 4.54687C261.738 4.58017 261.743 4.6158 261.741 4.65142C261.75 4.76022 261.75 4.86955 261.741 4.97835V13.7458L263.083 13.8796ZM258.956 14.4294H266V13.2554H258.956V14.4294Z" fill="#180047"/>
<path d="M215.845 23.0484H215.029L214.241 23.1227H213.424C212.984 23.1412 212.545 23.1908 212.112 23.2713C211.708 23.3463 211.319 23.4868 210.96 23.6874C210.638 23.8594 210.362 24.1095 210.157 24.4155C209.954 24.7602 209.852 25.1576 209.866 25.5598C209.838 26.171 210.048 26.7687 210.449 27.2241C210.675 27.4486 210.946 27.6216 211.242 27.7318C211.539 27.8419 211.855 27.8867 212.17 27.8631C212.789 27.8857 213.405 27.7743 213.978 27.5362C214.411 27.3523 214.792 27.0612 215.087 26.6891C215.354 26.3444 215.544 25.9434 215.641 25.5152C215.746 25.0823 215.799 24.6384 215.801 24.1926H215.218C215.219 24.5027 215.185 24.8119 215.116 25.1139C215.058 25.416 214.934 25.7006 214.751 25.9461C214.544 26.2146 214.273 26.4244 213.964 26.5554C213.549 26.7319 213.101 26.8131 212.651 26.7931C212.241 26.8173 211.832 26.7247 211.47 26.5257C211.326 26.4141 211.213 26.2666 211.141 26.0974C211.07 25.9281 211.042 25.743 211.062 25.5598C211.053 25.3312 211.12 25.1063 211.251 24.9208C211.384 24.74 211.559 24.5967 211.762 24.5047C212.004 24.3974 212.259 24.3224 212.52 24.2818C212.825 24.2359 213.131 24.2062 213.439 24.1926H214.183H214.97H215.597H215.845V23.0484ZM215.218 23.0484V26.0204C215.218 26.3325 215.218 26.5851 215.218 26.7931C215.238 26.9802 215.292 27.1617 215.379 27.3281C215.46 27.4732 215.589 27.5839 215.743 27.6402C215.963 27.7199 216.196 27.7552 216.429 27.7442H216.866V26.6H216.385V23.3456C216.389 22.8887 216.33 22.4335 216.21 21.9933C216.1 21.6134 215.916 21.2597 215.67 20.9531C215.413 20.6571 215.094 20.4235 214.737 20.2695C214.305 20.0988 213.844 20.018 213.38 20.0318C212.907 20.0243 212.437 20.11 211.995 20.2844C211.623 20.4432 211.286 20.6755 211.003 20.968C210.743 21.2265 210.535 21.5345 210.391 21.8744C210.255 22.1881 210.186 22.5273 210.187 22.8701H211.382C211.382 22.6324 211.437 22.398 211.543 22.1865C211.66 21.9947 211.808 21.8239 211.98 21.6813C212.169 21.5395 212.382 21.4337 212.608 21.3692C212.838 21.2924 213.079 21.2523 213.322 21.2503C213.828 21.2154 214.326 21.3864 214.708 21.7258C214.875 21.9113 215.004 22.1294 215.087 22.3668C215.169 22.6043 215.204 22.8563 215.189 23.1078L215.218 23.0484Z" fill="#180047"/>
<path d="M219.243 23.9994C219.186 24.7695 219.392 25.5361 219.827 26.1689C220.046 26.415 220.318 26.607 220.621 26.7305C220.924 26.8541 221.251 26.9059 221.577 26.8822C221.903 26.9082 222.23 26.8573 222.534 26.7336C222.837 26.61 223.108 26.4167 223.327 26.1689C223.761 25.5361 223.968 24.7695 223.91 23.9994C223.961 23.2346 223.755 22.475 223.327 21.8446C222.86 21.3764 222.232 21.1139 221.577 21.1139C220.922 21.1139 220.293 21.3764 219.827 21.8446C219.392 22.4718 219.186 23.2338 219.243 23.9994ZM218.062 23.9994C218.052 23.4403 218.131 22.8834 218.295 22.3499C218.435 21.8926 218.664 21.4682 218.966 21.1016C219.235 20.7634 219.574 20.4894 219.958 20.2992C220.393 20.1082 220.862 20.0098 221.336 20.0098C221.81 20.0098 222.279 20.1082 222.714 20.2992C223.087 20.5102 223.402 20.8113 223.633 21.1759C223.862 21.565 224.02 21.9929 224.1 22.439C224.187 22.9294 224.231 23.4267 224.231 23.9251C224.229 24.4227 224.19 24.9195 224.114 25.4111C224.039 25.8607 223.875 26.2903 223.633 26.6742C223.402 27.0388 223.087 27.3399 222.714 27.5509C222.279 27.7419 221.81 27.8403 221.336 27.8403C220.862 27.8403 220.393 27.7419 219.958 27.5509C219.573 27.368 219.234 27.0987 218.966 26.7633C218.664 26.3967 218.435 25.9724 218.295 25.5151C218.145 25.0243 218.066 24.5135 218.062 23.9994ZM223.896 25.5894V24.1034V22.4836V20.1803H225.092V28.3682C225.144 29.0065 224.962 29.642 224.581 30.1515C224.369 30.3573 224.116 30.5143 223.839 30.6117C223.563 30.7091 223.268 30.7448 222.977 30.7161H218.762V29.4976H223.589C223.654 29.4914 223.715 29.4655 223.764 29.4233C223.773 29.3592 223.773 29.2942 223.764 29.2301C223.764 29.1558 223.764 29.0518 223.764 28.9181L223.896 25.5894Z" fill="#180047"/>
<path d="M232.165 25.2618C232.073 25.7633 231.803 26.2129 231.406 26.5249C230.98 26.826 230.466 26.9725 229.948 26.941C229.622 26.9647 229.296 26.9128 228.993 26.7893C228.689 26.6657 228.418 26.4737 228.198 26.2277C227.77 25.5918 227.564 24.8275 227.615 24.0581C227.564 23.2933 227.77 22.5337 228.198 21.9034C228.415 21.6529 228.686 21.4569 228.989 21.3306C229.293 21.2043 229.621 21.1511 229.948 21.1752C230.275 21.1476 230.605 21.1991 230.909 21.3257C231.213 21.4522 231.483 21.6501 231.698 21.9034C232.133 22.5306 232.339 23.2926 232.282 24.0581H233.463C233.539 22.9819 233.205 21.9174 232.529 21.0861C231.835 20.4085 230.91 20.0303 229.948 20.0303C228.986 20.0303 228.062 20.4085 227.367 21.0861C226.692 21.9174 226.357 22.9819 226.433 24.0581C226.353 25.1348 226.688 26.2011 227.367 27.0301C227.695 27.3879 228.096 27.6678 228.542 27.8501C228.988 28.0324 229.468 28.1127 229.948 28.0852C230.753 28.121 231.545 27.8628 232.179 27.357C232.798 26.8201 233.211 26.0782 233.346 25.2618H232.165ZM227.119 24.385H233.477V24.0581L232.748 23.3448H227.119V24.385Z" fill="#180047"/>
<path d="M235.155 27.8177H236.351V20.1796H235.155V27.8177ZM236.117 23.3597L236.351 24.6971C236.339 24.0911 236.407 23.4862 236.555 22.899C236.67 22.5047 236.858 22.1365 237.109 21.8142C237.309 21.5656 237.571 21.3758 237.867 21.2644C238.139 21.1648 238.425 21.1145 238.713 21.1158C239.079 21.0984 239.444 21.1697 239.778 21.3238C240.067 21.4486 240.315 21.6548 240.492 21.9182C240.69 22.2078 240.824 22.5372 240.886 22.8841C240.965 23.3054 241.004 23.7333 241.003 24.1621V27.892H242.199V23.8798C242.206 23.3533 242.142 22.8283 242.009 22.3195C241.893 21.8791 241.695 21.4655 241.426 21.1009C241.171 20.7642 240.841 20.4942 240.463 20.3133C240.038 20.116 239.574 20.0194 239.107 20.031C238.707 20.0033 238.307 20.0633 237.932 20.2068C237.557 20.3504 237.217 20.5742 236.934 20.8632C236.392 21.5483 236.103 22.4055 236.117 23.2854V23.3597Z" fill="#180047"/>
<path d="M250.599 24.9351C250.487 25.7875 250.091 26.5745 249.476 27.1641C248.824 27.7195 247.992 28.0058 247.143 27.9666C246.665 27.9939 246.187 27.9135 245.744 27.7311C245.3 27.5488 244.901 27.2689 244.576 26.9115C243.897 26.0825 243.562 25.0162 243.643 23.9395C243.567 22.8633 243.901 21.7987 244.576 20.9674C244.903 20.6125 245.302 20.3343 245.745 20.1521C246.189 19.9699 246.665 19.8881 247.143 19.9124C247.973 19.9186 248.773 20.2359 249.389 20.804C250.01 21.3554 250.418 22.1139 250.541 22.9438H249.389C249.315 22.4103 249.05 21.9233 248.645 21.5767C248.227 21.2532 247.711 21.0901 247.187 21.116C246.862 21.092 246.536 21.1452 246.235 21.2716C245.933 21.398 245.665 21.594 245.451 21.8442C245.016 22.4714 244.81 23.2334 244.868 23.9989C244.81 24.7691 245.016 25.5357 245.451 26.1685C245.668 26.4142 245.937 26.6062 246.238 26.7298C246.539 26.8534 246.863 26.9054 247.187 26.8818C247.741 26.9119 248.287 26.7437 248.732 26.4063C249.137 26.0133 249.39 25.4864 249.447 24.9202L250.599 24.9351Z" fill="#180047"/>
<path d="M255.091 27.1194L254.391 28.8877C254.337 29.0647 254.253 29.2306 254.143 29.3781C254.101 29.4196 254.05 29.4515 253.995 29.472C253.94 29.4925 253.881 29.501 253.822 29.497H251.824V30.7155H253.662C253.956 30.7317 254.25 30.6809 254.522 30.5669C254.726 30.4509 254.905 30.2942 255.047 30.1063C255.209 29.8812 255.332 29.63 255.412 29.3633C255.514 29.0661 255.645 28.7243 255.791 28.3528L256.287 27.1194H255.091ZM254.858 27.8178H256.025L259.087 20.1797H257.891L254.858 27.8178ZM254.624 27.8178H255.762L252.743 20.1797H251.547L254.624 27.8178Z" fill="#180047"/>
<path d="M9.23182 27.5355H12.2945L20.5491 7.01367H17.326L9.23182 27.5355ZM8.25468 27.5355H11.3173L3.22315 7.01367H6.10352e-05L8.25468 27.5355Z" fill="#180047"/>
<path d="M30.9039 4.8292H34.8124V0.84668H30.9476L30.9039 4.8292ZM34.6082 26.0495V13.3738C34.7514 11.6325 34.2289 9.90228 33.1498 8.54423C32.5579 8.00656 31.8647 7.59747 31.1124 7.34198C30.3602 7.08648 29.5647 6.98992 28.7746 7.05822H23.4076V10.2977H29.8538L30.6268 10.4017C30.8036 10.4221 30.9708 10.4944 31.108 10.6098C31.2417 10.739 31.3246 10.9133 31.3414 11.1002C31.3414 11.3231 31.3414 11.6203 31.3414 12.0066V26.1238L34.6082 26.0495ZM23.4076 27.5355H42.2941V24.3703H23.3347L23.4076 27.5355Z" fill="#180047"/>
<path d="M58.7741 7.01364H39.8148V10.164H58.7741V7.01364ZM46.0714 0.84668V21.1754C45.9379 22.9201 46.4591 24.6514 47.5298 26.0198C48.1153 26.5674 48.8077 26.9828 49.5616 27.2389C50.3156 27.495 51.1142 27.5859 51.905 27.5058H58.7741V24.2514H50.8258C50.5539 24.2705 50.281 24.2705 50.0091 24.2514C49.834 24.2415 49.6683 24.1676 49.5424 24.0434C49.4234 23.9071 49.3517 23.7348 49.3382 23.553C49.3194 23.2511 49.3194 22.9484 49.3382 22.6465V0.84668H46.0714Z" fill="#180047"/>
<path d="M77.996 14.7267L75.8376 14.8605C75.1959 14.8605 74.4958 14.9794 73.7229 15.0239L71.5352 15.1874C70.3503 15.2459 69.1709 15.3899 68.0059 15.6183C66.9367 15.8265 65.9043 16.1972 64.9432 16.718C64.0503 17.1582 63.2824 17.8231 62.7118 18.6498C62.1432 19.5735 61.8635 20.6514 61.9097 21.7407C61.8424 23.3794 62.4078 24.9798 63.4848 26.1988C64.0888 26.8082 64.814 27.2788 65.6114 27.5787C66.4089 27.8786 67.2602 28.0009 68.108 27.9374C69.7658 27.9943 71.4165 27.6903 72.9499 27.0458C74.0679 26.5666 75.0582 25.8235 75.8391 24.8779C76.6201 23.9324 77.1694 22.8113 77.4418 21.607C77.7206 20.4394 77.8626 19.2422 77.8648 18.0405H76.3043C76.3025 18.8749 76.2145 19.7067 76.0417 20.5222C75.8738 21.3415 75.5302 22.1128 75.0354 22.7809C74.4795 23.5049 73.7517 24.0726 72.9207 24.4304C71.8087 24.9012 70.6092 25.1192 69.406 25.0694C68.3065 25.1362 67.2105 24.8892 66.2412 24.3561C65.8466 24.0584 65.5363 23.6597 65.3417 23.2004C65.147 22.7411 65.075 22.2375 65.1328 21.7407C65.1116 21.1267 65.2856 20.5222 65.6287 20.0169C66.0085 19.523 66.5125 19.143 67.0871 18.9173C67.731 18.6201 68.4138 18.4199 69.1143 18.3229C69.8913 18.1884 70.6753 18.0991 71.4623 18.0554C72.0603 18.0554 72.7311 17.9365 73.4895 17.8919L75.6042 17.7285L77.296 17.5947H77.9814L77.996 14.7267ZM76.3043 14.8605V22.8701C76.2958 23.57 76.3299 24.2698 76.4063 24.9654C76.4447 25.4852 76.5887 25.9913 76.8293 26.4514C77.0512 26.8443 77.4025 27.1444 77.821 27.2984C78.4076 27.5001 79.0254 27.5908 79.644 27.5659H80.8253V24.2521H79.5274V15.4995C79.5391 14.2784 79.377 13.0621 79.0461 11.8884C78.7515 10.8613 78.2553 9.90585 77.5877 9.07988C76.9004 8.28241 76.042 7.65698 75.0792 7.25208C73.9264 6.79777 72.6981 6.57572 71.4623 6.59824C70.194 6.57497 68.9341 6.81251 67.758 7.29666C66.7462 7.70779 65.8242 8.31889 65.0453 9.09474C64.3533 9.80492 63.7991 10.6418 63.4119 11.5615C63.0461 12.4046 62.8526 13.3147 62.8431 14.2364H66.0662C66.0602 13.5976 66.2159 12.9681 66.5183 12.4086C66.8098 11.8794 67.2073 11.4186 67.685 11.0563C68.1914 10.6731 68.7588 10.3815 69.3622 10.1944C69.9934 9.98617 70.653 9.88085 71.3165 9.88233C71.9872 9.83714 72.66 9.92815 73.296 10.1501C73.9319 10.372 74.5182 10.7205 75.0209 11.1752C75.4685 11.6689 75.8132 12.2501 76.0338 12.8836C76.2544 13.5171 76.3464 14.1897 76.3043 14.8605Z" fill="#180047"/>
<path d="M99.493 15.5436L100.222 19.1547C100.198 17.544 100.301 15.934 100.528 14.34C100.651 13.2999 100.963 12.2921 101.447 11.3679C101.773 10.7324 102.282 10.2137 102.906 9.88193C103.65 9.58002 104.447 9.4374 105.247 9.46297C106.047 9.48853 106.834 9.68173 107.558 10.0305C108.158 10.3978 108.608 10.9727 108.827 11.6503C109.156 12.4942 109.343 13.3883 109.381 14.2954C109.381 15.2861 109.381 16.4303 109.381 17.7281V27.7438H112.59V17.1485C112.581 15.7468 112.483 14.347 112.298 12.958C112.178 11.8236 111.857 10.7208 111.35 9.70361C110.91 8.81166 110.226 8.06847 109.381 7.56375C108.343 7.01289 107.181 6.75143 106.012 6.80588C104.964 6.78825 103.924 7.00113 102.964 7.43001C102.176 7.77323 101.503 8.34083 101.024 9.06463C100.496 9.92817 100.135 10.8865 99.9597 11.8881C99.714 13.1179 99.558 14.3646 99.493 15.6179V15.5436ZM87.1694 15.6179L87.8111 19.229C87.7878 17.6173 87.9001 16.0065 88.1465 14.4143C88.3056 13.3786 88.6256 12.3753 89.0945 11.4422C89.4129 10.8013 89.9239 10.2807 90.5529 9.95623C91.1947 9.66457 91.8922 9.52243 92.5947 9.54015C93.4986 9.48916 94.3996 9.68405 95.2053 10.1048C95.8107 10.4694 96.2665 11.0447 96.4887 11.7246C96.7678 12.5621 96.9107 13.4406 96.9116 14.3251C96.9116 15.3158 96.9116 16.46 96.9116 17.7578V27.7735H100.135V17.1485C100.14 15.7477 100.057 14.348 99.8868 12.958C99.7671 11.8236 99.4459 10.7208 98.9388 9.70361C98.499 8.81166 97.8152 8.06847 96.9699 7.56375C95.9322 7.01289 94.7699 6.75143 93.601 6.80588C92.5582 6.7958 91.5248 7.0084 90.5675 7.43001C89.7759 7.77298 89.0976 8.34033 88.6132 9.06463C88.0635 9.92149 87.6867 10.8813 87.5048 11.8881C87.302 13.0961 87.1898 14.3182 87.1694 15.5436V15.6179ZM84.588 27.7438H87.8111V7.22197H84.588V27.7438Z" fill="#180047"/>
<path d="M123.557 4.8292H127.465V0.84668H123.601L123.557 4.8292ZM127.261 26.0495V13.3738C127.397 11.6334 126.875 9.90591 125.803 8.54423C125.211 8.00656 124.518 7.59747 123.765 7.34198C123.013 7.08648 122.218 6.98992 121.428 7.05822H116.061V10.2977H122.507H123.294C123.471 10.3181 123.638 10.3904 123.776 10.5058C123.905 10.6364 123.983 10.8109 123.994 10.9962C124.013 11.298 124.013 11.6008 123.994 11.9026V26.0198L127.261 26.0495ZM116.061 27.5355H135.02V24.3703H116.061V27.5355Z" fill="#180047"/>
<path d="M138.549 27.5356H141.772V7.01377H138.549V27.5356ZM141.131 15.3355L141.772 18.9613C141.729 17.3318 141.921 15.7046 142.341 14.1318C142.618 13.0483 143.115 12.0359 143.8 11.1598C144.339 10.4887 145.043 9.97578 145.841 9.67374C146.574 9.39817 147.35 9.25729 148.131 9.25766C149.132 9.22356 150.129 9.41643 151.048 9.82234C151.816 10.1776 152.476 10.7371 152.958 11.4421C153.483 12.2244 153.841 13.1104 154.008 14.0426C154.21 15.1752 154.308 16.3243 154.3 17.4753V27.491H157.523V16.9403C157.538 15.5255 157.361 14.1154 156.998 12.7498C156.696 11.5728 156.171 10.4674 155.452 9.49542C154.731 8.58794 153.798 7.87803 152.74 7.42986C151.6 6.90534 150.359 6.64644 149.108 6.67199C148.034 6.59943 146.956 6.76363 145.95 7.15341C144.943 7.54318 144.031 8.14938 143.275 8.93073C141.835 10.7423 141.052 13.0043 141.058 15.3355H141.131Z" fill="#180047"/>
</g>
<defs>
<clipPath id="clip0_481_1499">
<rect width="266" height="34" fill="white"/>
</clipPath>
</defs>
</svg>
