<svg width="631" height="260" viewBox="0 0 631 260" fill="none" xmlns="http://www.w3.org/2000/svg">
<g clip-path="url(#clip0_83_1125)">
<path d="M435.712 72.4328C435.339 72.2752 434.962 72.1209 434.582 71.9937C434.204 71.8598 433.839 71.7512 433.417 71.625C432.598 71.3774 431.782 71.1179 430.988 70.7984C430.291 70.5237 429.567 70.255 428.828 70.0236C428.093 69.7955 427.349 69.5878 426.611 69.4571C425.969 69.3333 425.752 68.7582 425.86 68.2299C425.967 67.7016 426.412 67.2302 427.075 67.3566C428.697 67.6612 430.28 68.1539 431.844 68.6947L434.18 69.522C434.559 69.6568 434.994 69.8086 435.388 69.9688C435.789 70.128 436.18 70.301 436.571 70.4731C437.206 70.7535 437.276 71.3852 437.043 71.8677C436.806 72.346 436.286 72.6844 435.712 72.4328Z" fill="#CACEDB"/>
<path d="M418.89 68.5526C418.048 68.4633 417.202 68.413 416.358 68.3508C415.516 68.2895 414.668 68.2316 413.828 68.1153C413.09 68.0193 412.326 67.9377 411.543 67.89C410.767 67.8405 409.994 67.8148 409.237 67.8381C407.914 67.8851 407.902 65.7209 409.234 65.6807C410.049 65.6557 410.864 65.6662 411.677 65.6962C412.486 65.7227 413.321 65.7849 414.15 65.8563L415.397 65.9805L416.638 66.1207L419.111 66.4088C419.783 66.4718 420.051 67.0611 419.982 67.5929C419.926 68.1279 419.539 68.618 418.89 68.5526Z" fill="#CACEDB"/>
<path d="M467.81 86.6069C467.093 86.1562 466.355 85.7385 465.625 85.3115C464.896 84.8857 464.161 84.461 463.457 83.9867C462.837 83.5757 462.187 83.1664 461.505 82.779C460.829 82.393 460.146 82.0296 459.457 81.7176C458.247 81.1773 459.19 79.2291 460.403 79.779C461.146 80.1152 461.874 80.4834 462.59 80.8681C463.305 81.2478 464.028 81.671 464.741 82.1L465.805 82.7602L466.858 83.432L468.952 84.779C469.527 85.1312 469.509 85.7787 469.213 86.2258C468.928 86.6815 468.364 86.9513 467.81 86.6069Z" fill="#CACEDB"/>
<path d="M401.416 68.3391C400.566 68.3784 399.713 68.4501 398.863 68.5098C398.017 68.5806 397.163 68.6167 396.319 68.6249C395.945 68.6298 395.568 68.6246 395.188 68.6456C394.808 68.6666 394.426 68.6926 394.047 68.7213C393.281 68.7726 392.532 68.9163 391.802 69.0607C391.17 69.2078 390.742 68.7707 390.624 68.2415C390.506 67.7191 390.717 67.0917 391.383 66.937C392.195 66.768 393.017 66.6066 393.843 66.5265C394.254 66.4819 394.674 66.4371 395.088 66.4009L396.335 66.3337C397.167 66.2807 397.997 66.2887 398.831 66.2509C399.658 66.2359 400.49 66.2101 401.315 66.1723C402.65 66.128 402.722 68.2853 401.416 68.3391Z" fill="#CACEDB"/>
<path d="M452.212 78.7248C451.432 78.3865 450.634 78.0753 449.844 77.7547C449.054 77.4461 448.272 77.103 447.51 76.7388C447.172 76.5788 446.836 76.408 446.485 76.2597C446.135 76.1113 445.78 75.9665 445.427 75.8253C444.716 75.5344 443.981 75.3341 443.262 75.1425C442.63 74.9965 442.437 74.4154 442.564 73.8883C442.688 73.3672 443.154 72.8969 443.82 73.051C444.624 73.2567 445.433 73.4734 446.21 73.7649C446.599 73.9058 446.996 74.0505 447.383 74.1998L448.532 74.6882C449.303 75.007 450.044 75.3792 450.81 75.7123C451.56 76.063 452.317 76.4056 453.075 76.7349C454.294 77.2826 453.409 79.2516 452.212 78.7248Z" fill="#CACEDB"/>
<path d="M384.561 71.5759L383.428 72.091L382.862 72.3491L382.274 72.6316C381.493 73.0039 380.702 73.3532 379.889 73.6424C378.46 74.1482 376.97 74.7175 375.647 75.4382C374.49 76.0686 373.498 74.1479 374.673 73.504C376.112 72.7222 377.622 72.092 379.142 71.4763L381.415 70.5509C382.162 70.2286 382.969 69.9208 383.73 69.5816C385.016 69.0858 385.743 71.1293 384.561 71.5759Z" fill="#CACEDB"/>
<path d="M369.006 79.4716C367.639 80.3406 366.422 81.4603 365.077 82.475C363.891 83.3653 362.677 84.4096 361.63 85.5124C361.167 85.9973 360.553 85.8473 360.179 85.4551C359.806 85.063 359.663 84.4422 360.111 83.9666C361.211 82.8078 362.422 81.6899 363.718 80.621C364.371 80.0946 365.035 79.5699 365.724 79.0791C366.41 78.5798 367.115 78.1026 367.837 77.6465C368.431 77.27 368.991 77.5809 369.262 78.0451C369.543 78.5167 369.519 79.1493 369.006 79.4716Z" fill="#CACEDB"/>
<path d="M356.061 90.9426C355.577 91.4878 355.183 92.1497 354.794 92.8574L354.476 93.4254C354.366 93.6193 354.249 93.8131 354.131 94.0001C353.892 94.3777 353.644 94.7408 353.381 95.0853C352.454 96.3084 351.495 97.5621 350.887 98.8911C350.616 99.4702 350.004 99.541 349.51 99.313C349.02 99.0876 348.659 98.5354 348.955 97.9064C349.311 97.136 349.741 96.4046 350.186 95.7072C350.64 95.0097 351.107 94.3444 351.564 93.6773C351.792 93.3473 352.017 93.0145 352.233 92.6819C352.457 92.3408 352.648 92.0301 352.875 91.6492C353.325 90.9204 353.829 90.1788 354.431 89.4967C354.929 88.9422 355.57 89.1211 355.929 89.5226C356.297 89.9386 356.425 90.533 356.061 90.9426Z" fill="#CACEDB"/>
<path d="M348.535 106.182C348.323 106.993 348.147 107.812 347.983 108.634C347.81 109.456 347.649 110.274 347.445 111.084C347.271 111.799 347.106 112.543 347.008 113.292C346.903 114.042 346.885 114.8 346.882 115.528C346.921 116.17 346.403 116.509 345.863 116.526C345.324 116.544 344.758 116.221 344.717 115.528C344.71 115.104 344.724 114.683 344.737 114.261C344.75 113.839 344.774 113.413 344.826 112.994C344.914 112.153 345.063 111.325 345.223 110.499C345.398 109.672 345.587 108.856 345.803 108.048C346.004 107.235 346.231 106.43 346.44 105.623C346.617 104.967 347.235 104.794 347.752 104.943C348.277 105.098 348.7 105.558 348.535 106.182Z" fill="#CACEDB"/>
<path d="M348.092 123.099C348.285 123.917 348.467 124.741 348.695 125.552C348.806 125.962 348.901 126.373 348.999 126.78C349.105 127.186 349.197 127.602 349.276 128.014C349.403 128.749 349.605 129.489 349.798 130.229C350.008 130.969 350.266 131.691 350.552 132.379C351.085 133.569 349.081 134.411 348.531 133.172C348.214 132.408 347.92 131.635 347.674 130.837C347.435 130.039 347.198 129.241 347.016 128.426L346.725 127.208L346.471 125.978C346.282 125.164 346.158 124.339 345.965 123.529C345.829 122.864 346.308 122.428 346.84 122.334C347.381 122.246 347.959 122.466 348.092 123.099Z" fill="#CACEDB"/>
<path d="M354.086 139.332C354.479 140.088 354.881 140.843 355.286 141.594C355.683 142.346 356.078 143.11 356.413 143.902C357.009 145.285 357.681 146.738 358.498 147.998C358.852 148.551 358.573 149.108 358.113 149.39C357.65 149.669 356.997 149.678 356.637 149.113C355.747 147.736 355.01 146.265 354.292 144.783L353.23 142.542C352.868 141.798 352.525 141.041 352.142 140.316C351.552 139.108 353.507 138.162 354.086 139.332Z" fill="#CACEDB"/>
<path d="M363.03 154.383C363.508 155.088 364.028 155.769 364.52 156.465C365.028 157.152 365.506 157.856 365.955 158.579C366.342 159.223 366.771 159.858 367.21 160.489C367.668 161.106 368.137 161.718 368.657 162.253C369.552 163.2 367.961 164.672 367.026 163.685C366.453 163.086 365.933 162.44 365.426 161.788C364.928 161.123 364.445 160.45 363.984 159.761C363.512 159.074 363.073 158.373 362.611 157.682C362.165 156.983 361.705 156.299 361.239 155.612C360.854 155.061 361.12 154.48 361.569 154.175C362.022 153.874 362.657 153.843 363.03 154.383Z" fill="#CACEDB"/>
<path d="M374.267 167.801C375.433 169.085 376.649 170.345 377.642 171.77C378.076 172.397 378.525 173.035 378.999 173.66C379.474 174.29 379.941 174.879 380.467 175.404C380.918 175.867 380.766 176.466 380.372 176.843C379.98 177.215 379.341 177.364 378.867 176.869C378.57 176.574 378.292 176.255 378.02 175.938C377.748 175.622 377.499 175.311 377.241 174.994C376.736 174.359 376.24 173.71 375.748 173.064C374.755 171.767 373.763 170.47 372.666 169.258C371.768 168.278 373.368 166.806 374.267 167.801Z" fill="#CACEDB"/>
<path d="M386.29 180.656C387.539 181.872 388.848 183.105 389.844 184.596C390.301 185.283 390.653 185.864 391.138 186.432C391.614 187.001 392.153 187.528 392.726 188.006C393.739 188.845 392.315 190.484 391.281 189.625C390.645 189.096 390.027 188.51 389.452 187.854C389.163 187.531 388.888 187.184 388.623 186.824L387.918 185.85C387.448 185.215 386.956 184.585 386.43 183.975C385.907 183.367 385.354 182.771 384.776 182.204C383.829 181.292 385.321 179.718 386.29 180.656Z" fill="#CACEDB"/>
<path d="M398.568 193.478C399.133 194.105 399.716 194.698 400.306 195.267L401.199 196.115C401.492 196.398 401.792 196.672 402.111 196.992C402.652 197.542 403.207 198.111 403.76 198.68C404.315 199.241 404.875 199.795 405.451 200.303C406.451 201.202 404.925 202.749 403.955 201.874C403.354 201.344 402.777 200.793 402.197 200.238C401.624 199.683 401.044 199.127 400.458 198.59C399.849 198.033 399.221 197.417 398.642 196.8C398.059 196.179 397.507 195.548 396.946 194.925C396.052 193.907 397.714 192.507 398.568 193.478Z" fill="#CACEDB"/>
<path d="M411.33 205.585C411.945 206.175 412.575 206.756 413.198 207.326C413.821 207.915 414.47 208.533 415.026 209.204C415.524 209.79 416.028 210.395 416.546 210.991C417.072 211.579 417.589 212.166 418.139 212.696C419.09 213.648 417.49 215.112 416.566 214.189C415.989 213.63 415.444 213.041 414.891 212.452C414.349 211.859 413.804 211.262 413.254 210.669C412.701 210.073 412.159 209.499 411.574 208.905C410.988 208.316 410.411 207.723 409.817 207.149C408.86 206.207 410.387 204.669 411.33 205.585Z" fill="#CACEDB"/>
<path d="M423.697 218.375C424.828 219.694 425.999 220.988 426.955 222.433C427.792 223.703 428.702 225.024 429.701 226.158C430.582 227.151 428.911 228.534 428.027 227.538C425.87 225.101 424.162 222.266 422.041 219.786C421.191 218.783 422.83 217.357 423.697 218.375Z" fill="#CACEDB"/>
<path d="M435.008 232.052C436.085 233.427 437.206 234.793 438.049 236.331C438.79 237.685 439.565 239.107 440.395 240.405C440.757 240.972 440.462 241.531 439.986 241.8C439.514 242.063 438.874 242.056 438.525 241.513C436.814 238.854 435.31 235.951 433.298 233.391C432.484 232.361 434.175 230.993 435.008 232.052Z" fill="#CACEDB"/>
<path d="M444.15 247.544C444.77 249.181 445.413 250.801 445.826 252.458C446.01 253.184 446.213 253.931 446.451 254.659C446.683 255.396 446.975 256.076 447.285 256.805C447.837 258.061 445.792 258.797 445.28 257.631C444.981 256.933 444.626 256.13 444.358 255.358C444.079 254.576 443.834 253.785 443.597 252.995C443.128 251.413 442.697 249.832 442.119 248.315C441.649 247.099 443.664 246.28 444.15 247.544Z" fill="#CACEDB"/>
<path d="M218.802 267.177C220.441 266.468 222.033 265.819 223.601 265.301C224.292 265.074 224.981 264.796 225.634 264.468C226.346 264.118 227.037 263.736 227.699 263.336C228.891 262.671 229.854 264.618 228.735 265.245C228.056 265.657 227.385 266.042 226.659 266.423C225.896 266.853 225.096 267.187 224.305 267.494C222.716 268.097 221.132 268.539 219.666 269.176C219.075 269.428 218.557 269.081 218.318 268.588C218.087 268.1 218.167 267.449 218.802 267.177Z" fill="#CACEDB"/>
<path d="M234.881 259.733C235.699 259.412 236.535 259.136 237.368 258.847C238.202 258.576 239.056 258.357 239.912 258.188C240.67 258.059 241.447 257.917 242.214 257.761C242.986 257.615 243.747 257.432 244.478 257.225C245.771 256.869 246.262 258.982 245.002 259.335C244.224 259.555 243.45 259.755 242.657 259.925C241.873 260.119 241.082 260.277 240.294 260.459C239.512 260.652 238.718 260.815 237.938 261.039C237.16 261.259 236.38 261.475 235.626 261.77C234.417 262.222 233.605 260.208 234.881 259.733Z" fill="#CACEDB"/>
<path d="M252.123 255.125C253.816 254.764 255.496 254.336 257.207 254.155C257.962 254.072 258.723 253.976 259.498 253.861C260.278 253.75 261.051 253.605 261.797 253.43C263.116 253.146 263.483 255.29 262.209 255.563C261.429 255.744 260.65 255.906 259.858 256.041C259.058 256.185 258.242 256.323 257.432 256.445C255.805 256.689 254.18 256.913 252.582 257.253C251.281 257.522 250.822 255.403 252.123 255.125Z" fill="#CACEDB"/>
<path d="M269.638 251.927C270.506 251.839 271.379 251.734 272.254 251.688C272.691 251.657 273.129 251.635 273.564 251.623C274 251.62 274.437 251.632 274.872 251.656C275.256 251.672 275.642 251.693 276.034 251.717C276.427 251.741 276.818 251.766 277.212 251.777C277.603 251.794 277.997 251.798 278.386 251.799C278.777 251.809 279.161 251.805 279.542 251.792C280.888 251.742 280.857 253.915 279.554 253.964C278.754 253.987 277.948 253.991 277.142 253.988C276.334 253.977 275.528 253.966 274.716 253.952C273.904 253.929 273.098 253.934 272.283 253.951C271.469 253.956 270.661 254.016 269.854 254.091C268.559 254.217 268.292 252.063 269.638 251.927Z" fill="#CACEDB"/>
<path d="M287.505 251.663C288.373 251.709 289.249 251.769 290.115 251.837C290.983 251.911 291.852 252.029 292.701 252.196C293.449 252.357 294.216 252.519 294.988 252.651C295.762 252.789 296.533 252.913 297.292 252.984C298.618 253.114 298.326 255.265 297.008 255.132C295.405 254.977 293.809 254.7 292.209 254.436C291.407 254.315 290.603 254.171 289.798 254.07C288.991 253.975 288.185 253.866 287.372 253.828C286.064 253.753 286.162 251.587 287.505 251.663Z" fill="#CACEDB"/>
<path d="M305.172 253.702C306.881 253.945 308.617 254.122 310.292 254.562C311.763 254.948 313.322 255.33 314.825 255.523C316.146 255.693 315.792 257.834 314.484 257.666C311.27 257.258 308.108 256.313 304.869 255.849C303.555 255.662 303.852 253.511 305.172 253.702Z" fill="#CACEDB"/>
<path d="M322.687 256.487C324.392 256.796 326.134 257.058 327.793 257.613C328.519 257.862 329.266 258.108 330.019 258.35C330.77 258.584 331.525 258.815 332.268 258.999C333.582 259.343 332.918 261.412 331.667 261.086C330.892 260.897 330.128 260.679 329.358 260.458C328.585 260.234 327.811 260.009 327.037 259.785C325.482 259.338 323.907 258.914 322.301 258.623C321.002 258.399 321.367 256.254 322.687 256.487Z" fill="#CACEDB"/>
<path d="M339.956 261.51L341.108 262.052L342.268 262.574C343.043 262.92 343.818 263.28 344.568 263.689C345.888 264.405 347.323 265.103 348.753 265.591C350.011 266.021 349.245 268.05 347.988 267.62C346.448 267.092 344.941 266.421 343.452 265.694C342.708 265.33 341.966 264.955 341.225 264.58C340.483 264.205 339.743 263.816 338.999 263.461C337.841 262.92 338.695 260.921 339.956 261.51Z" fill="#CACEDB"/>
<path d="M461.034 52.6805C461.034 43.4675 468.494 36 477.696 36C486.898 36 494.358 43.4675 494.358 52.6805C494.358 52.6805 494.528 53.5238 494.112 55.5535C493.915 56.6825 493.608 57.7794 493.197 58.8216C491.483 63.8217 487.386 72.2927 477.696 85.6772C468.007 72.2927 463.91 63.8217 462.195 58.8216C461.785 57.7794 461.472 56.6878 461.281 55.5535C460.865 53.5185 461.034 52.6805 461.034 52.6805ZM477.702 62.7969C483.283 62.7969 487.807 58.2678 487.807 52.6805C487.807 47.0919 483.283 42.5628 477.702 42.5628C472.12 42.5628 467.596 47.0919 467.596 52.6805C467.591 58.2678 472.12 62.7969 477.702 62.7969Z" fill="#CACEDB"/>
<path d="M475.505 96.7301C477.098 98.0389 479.45 97.8096 480.757 96.2183C482.065 94.6271 481.833 92.2748 480.24 90.966C478.647 89.6572 476.295 89.8865 474.988 91.4778C473.68 93.069 473.912 95.4213 475.505 96.7301Z" fill="#CACEDB"/>
</g>
<defs>
<clipPath id="clip0_83_1125">
<rect width="631" height="260" fill="white"/>
</clipPath>
</defs>
</svg>
