<svg width="699" height="530" viewBox="0 0 699 530" fill="none" xmlns="http://www.w3.org/2000/svg">
<path d="M578.571 58.5309C578.292 58.2373 578.007 57.9451 577.71 57.6771C577.417 57.403 577.126 57.1577 576.79 56.8736C576.138 56.3195 575.493 55.7556 574.893 55.1453C574.364 54.6153 573.807 54.0798 573.222 53.5725C572.64 53.0698 572.04 52.5819 571.416 52.1676C570.877 51.7974 570.908 51.1837 571.217 50.7424C571.527 50.301 572.123 50.0464 572.68 50.4271C574.045 51.3542 575.3 52.4382 576.518 53.5588L578.329 55.2503C578.623 55.5255 578.961 55.8384 579.258 56.1424C579.562 56.4486 579.852 56.7636 580.141 57.0773C580.611 57.588 580.423 58.1951 580.017 58.5446C579.608 58.8882 578.996 58.9908 578.571 58.5309Z" fill="#CACEDB"/>
<path d="M564.699 48.2529C563.963 47.8347 563.207 47.4505 562.459 47.0566C561.711 46.6638 560.958 46.2723 560.233 45.83C559.595 45.4471 558.928 45.0673 558.229 44.7109C557.537 44.3554 556.838 44.0229 556.135 43.7421C554.903 43.2564 555.758 41.268 556.995 41.7631C557.752 42.0658 558.495 42.401 559.228 42.7533C559.959 43.1007 560.7 43.4912 561.431 43.8878L562.525 44.4997L563.606 45.1238L565.758 46.3758C566.349 46.7019 566.36 47.3496 566.084 47.8095C565.819 48.2775 565.268 48.5722 564.699 48.2529Z" fill="#CACEDB"/>
<path d="M548.764 41.0769C547.97 40.7738 547.159 40.4986 546.356 40.2136C545.552 39.9407 544.755 39.6329 543.978 39.3031C543.634 39.1584 543.29 39.0028 542.933 38.8703C542.576 38.7378 542.215 38.609 541.856 38.4837C541.134 38.2249 540.39 38.0576 539.663 37.8984C539.025 37.7808 538.807 37.2089 538.91 36.6767C539.01 36.1505 539.455 35.6598 540.127 35.7841C540.939 35.9536 541.757 36.1339 542.546 36.3903C542.941 36.5137 543.344 36.6405 543.738 36.7724L544.907 37.2088C545.692 37.4929 546.449 37.8315 547.229 38.1301C547.994 38.4469 548.766 38.7552 549.538 39.0503C550.78 39.5431 549.984 41.5496 548.764 41.0769Z" fill="#CACEDB"/>
<path d="M532.02 37.3114L530.776 37.331L530.154 37.3415L529.502 37.3657C528.638 37.3951 527.773 37.3992 526.912 37.3397C525.4 37.2324 523.806 37.1591 522.306 37.2915C520.993 37.4073 520.851 35.2502 522.185 35.1293C523.817 34.9872 525.453 35.013 527.092 35.0555L529.546 35.1152C530.359 35.118 531.222 35.1583 532.055 35.1511C533.432 35.2105 533.283 37.3742 532.02 37.3114Z" fill="#CACEDB"/>
<path d="M514.606 38.3384C513.005 38.5891 511.442 39.1294 509.804 39.5224C508.362 39.8649 506.832 40.3375 505.431 40.93C504.813 41.1899 504.31 40.807 504.124 40.2981C503.938 39.7893 504.055 39.1632 504.655 38.906C506.127 38.2834 507.683 37.742 509.299 37.2798C510.108 37.0583 510.927 36.8426 511.754 36.6676C512.582 36.4841 513.419 36.3281 514.263 36.1984C514.958 36.0905 515.347 36.5992 515.411 37.1331C515.48 37.6777 515.205 38.248 514.606 38.3384Z" fill="#CACEDB"/>
<path d="M498.158 43.6807C497.496 43.9871 496.871 44.4367 496.231 44.9298L495.712 45.3234C495.535 45.4575 495.349 45.5882 495.167 45.7127C494.797 45.9632 494.424 46.197 494.046 46.408C492.707 47.1589 491.327 47.925 490.239 48.9004C489.759 49.3234 489.17 49.1436 488.809 48.7376C488.449 48.3352 488.338 47.6845 488.861 47.226C489.495 46.6622 490.182 46.1635 490.868 45.7019C491.563 45.2438 492.257 44.8205 492.942 44.3913C493.283 44.1798 493.622 43.9646 493.954 43.7461C494.294 43.5226 494.594 43.3142 494.954 43.0555C495.658 42.5672 496.416 42.0887 497.24 41.7038C497.919 41.3947 498.435 41.8146 498.604 42.3261C498.775 42.8545 498.655 43.4506 498.158 43.6807Z" fill="#CACEDB"/>
<path d="M485.17 54.6465C484.651 55.3053 484.163 55.9864 483.684 56.6744C483.197 57.359 482.723 58.0445 482.212 58.7056C481.766 59.291 481.319 59.9077 480.929 60.5545C480.533 61.2003 480.214 61.8877 479.921 62.5543C479.701 63.1583 479.089 63.2621 478.588 63.0627C478.086 62.8633 477.697 62.3415 477.936 61.6892C478.099 61.2985 478.279 60.9172 478.46 60.5359C478.64 60.1546 478.833 59.773 479.047 59.4103C479.465 58.6742 479.932 57.9744 480.408 57.2816C480.899 56.5933 481.398 55.9204 481.919 55.2664C482.428 54.6006 482.959 53.9535 483.472 53.2973C483.896 52.7662 484.532 52.8551 484.947 53.1977C485.366 53.5498 485.57 54.1411 485.17 54.6465Z" fill="#CACEDB"/>
<path d="M478.006 69.978C477.856 70.8051 477.694 71.6324 477.579 72.4672C477.517 72.8871 477.44 73.3025 477.367 73.7142C477.303 74.1293 477.221 74.5472 477.129 74.9569C476.951 75.6813 476.841 76.4404 476.722 77.1961C476.619 77.9575 476.567 78.7228 476.554 79.4681C476.568 80.7721 474.394 80.7431 474.385 79.3875C474.399 78.5606 474.439 77.7343 474.532 76.9047C474.632 76.0774 474.733 75.2512 474.892 74.4311L475.111 73.1984L475.37 71.9698C475.522 71.1475 475.738 70.3419 475.885 69.5221C476.026 68.8584 476.639 68.6501 477.164 68.7759C477.695 68.9111 478.137 69.3445 478.006 69.978Z" fill="#CACEDB"/>
<path d="M477.017 87.2564C477.076 88.106 477.142 88.959 477.214 89.8095C477.277 90.6566 477.334 91.5147 477.324 92.3751C477.318 93.881 477.354 95.4809 477.6 96.9631C477.704 97.6115 477.225 98.01 476.691 98.085C476.155 98.1563 475.553 97.9036 475.449 97.242C475.183 95.6234 475.095 93.9811 475.029 92.3351L474.95 89.8567C474.916 89.0307 474.903 88.1994 474.842 87.3811C474.784 86.0384 476.954 85.9522 477.017 87.2564Z" fill="#CACEDB"/>
<path d="M479.205 104.625C479.361 105.463 479.566 106.295 479.739 107.129C479.93 107.962 480.088 108.798 480.211 109.641C480.308 110.385 480.447 111.14 480.598 111.893C480.771 112.642 480.957 113.391 481.22 114.088C481.662 115.314 479.615 116.028 479.153 114.749C478.866 113.971 478.648 113.171 478.443 112.371C478.253 111.563 478.079 110.753 477.932 109.937C477.773 109.119 477.65 108.3 477.503 107.483C477.373 106.663 477.224 105.852 477.072 105.037C476.939 104.378 477.415 103.951 477.948 103.851C478.484 103.756 479.078 103.981 479.205 104.625Z" fill="#CACEDB"/>
<path d="M484.147 121.414C484.703 123.057 485.314 124.697 485.655 126.401C485.803 127.149 485.96 127.913 486.145 128.675C486.329 129.443 486.521 130.169 486.794 130.861C487.023 131.465 486.644 131.953 486.132 132.142C485.624 132.326 484.979 132.207 484.742 131.564C484.587 131.176 484.46 130.772 484.337 130.373C484.213 129.975 484.11 129.59 484 129.196C483.79 128.412 483.595 127.619 483.402 126.83C483.01 125.244 482.619 123.66 482.098 122.11C481.666 120.853 483.72 120.143 484.147 121.414Z" fill="#CACEDB"/>
<path d="M490.033 138.002C490.693 139.617 491.4 141.269 491.717 143.034C491.862 143.847 491.953 144.52 492.171 145.234C492.38 145.946 492.663 146.645 492.998 147.311C493.591 148.486 491.632 149.419 491.026 148.219C490.655 147.48 490.322 146.695 490.056 145.865C489.921 145.453 489.808 145.025 489.708 144.589L489.451 143.415C489.274 142.644 489.075 141.871 488.836 141.101C488.599 140.335 488.33 139.567 488.027 138.817C487.523 137.603 489.52 136.756 490.033 138.002Z" fill="#CACEDB"/>
<path d="M496.167 154.663C496.435 155.463 496.733 156.239 497.046 156.996L497.526 158.131C497.681 158.508 497.846 158.879 498.012 159.299C498.288 160.02 498.569 160.763 498.849 161.506C499.134 162.241 499.426 162.973 499.751 163.669C500.309 164.893 498.291 165.701 497.751 164.511C497.412 163.786 497.104 163.05 496.793 162.31C496.49 161.571 496.181 160.83 495.858 160.104C495.522 159.351 495.193 158.535 494.908 157.737C494.622 156.935 494.368 156.136 494.103 155.341C493.69 154.05 495.772 153.431 496.167 154.663Z" fill="#CACEDB"/>
<path d="M503.029 170.86C503.358 171.646 503.703 172.431 504.047 173.202C504.382 173.991 504.731 174.817 504.972 175.654C505.195 176.39 505.415 177.146 505.652 177.899C505.899 178.648 506.139 179.393 506.432 180.099C506.923 181.351 504.871 182.054 504.393 180.839C504.087 180.096 503.823 179.338 503.551 178.578C503.292 177.817 503.03 177.052 502.763 176.289C502.494 175.522 502.226 174.779 501.927 174.001C501.625 173.226 501.333 172.453 501.018 171.689C500.517 170.443 502.531 169.643 503.029 170.86Z" fill="#CACEDB"/>
<path d="M509.258 187.525C509.768 189.186 510.325 190.84 510.624 192.547C510.884 194.046 511.191 195.62 511.654 197.059C512.065 198.32 509.98 198.922 509.567 197.655C508.564 194.56 508.13 191.278 507.176 188.157C506.799 186.898 508.871 186.246 509.258 187.525Z" fill="#CACEDB"/>
<path d="M514.164 204.581C514.602 206.272 515.084 207.972 515.243 209.719C515.382 211.256 515.524 212.869 515.766 214.39C515.872 215.056 515.378 215.45 514.835 215.506C514.297 215.559 513.713 215.296 513.61 214.66C513.104 211.538 512.884 208.276 512.062 205.125C511.727 203.856 513.824 203.277 514.164 204.581Z" fill="#CACEDB"/>
<path d="M516.357 222.436C516.272 224.185 516.214 225.927 515.931 227.611C515.809 228.35 515.697 229.116 515.624 229.878C515.543 230.646 515.539 231.387 515.532 232.179C515.537 233.55 513.368 233.408 513.364 232.135C513.369 231.376 513.364 230.498 513.427 229.683C513.483 228.854 513.574 228.032 513.673 227.213C513.875 225.575 514.111 223.953 514.188 222.332C514.242 221.029 516.417 221.083 516.357 222.436Z" fill="#CACEDB"/>
<path d="M514.991 240.245C514.804 241.11 514.629 241.981 514.414 242.836C514.297 243.258 514.171 243.687 514.04 244.104C513.911 244.527 513.76 244.942 513.583 245.341C513.283 246.055 512.978 246.783 512.673 247.511C512.369 248.239 512.101 248.979 511.845 249.695C511.411 250.976 509.392 250.165 509.814 248.934C510.08 248.176 510.341 247.421 510.63 246.677C510.933 245.931 511.185 245.174 511.485 244.424C511.769 243.67 512.012 242.904 512.268 242.14C512.49 241.369 512.708 240.592 512.872 239.805C513.093 238.542 515.239 238.888 514.991 240.245Z" fill="#CACEDB"/>
<path d="M509.098 257.181C508.367 258.76 507.683 260.372 506.756 261.836C506.354 262.479 505.943 263.144 505.557 263.821C505.362 264.161 505.178 264.501 504.994 264.841C504.814 265.186 504.619 265.537 504.45 265.882C504.299 266.188 504.065 266.357 503.813 266.404C503.554 266.451 503.281 266.387 503.045 266.249C502.808 266.111 502.618 265.907 502.518 265.663C502.41 265.416 502.398 265.138 502.534 264.853C502.706 264.502 502.886 264.169 503.07 263.805C503.253 263.44 503.438 263.081 503.632 262.724C504.021 262.007 504.417 261.301 504.822 260.589C505.63 259.173 506.433 257.747 507.119 256.27C507.661 255.077 509.648 255.957 509.098 257.181Z" fill="#CACEDB"/>
<path d="M500.17 272.754C499.602 273.426 499.043 274.112 498.443 274.757C498.142 275.083 497.841 275.397 497.528 275.711C497.217 276.017 496.884 276.304 496.548 276.586C495.959 277.085 495.345 277.577 494.753 278.094C494.163 278.612 493.572 279.129 493.043 279.671C492.091 280.612 490.626 279.008 491.556 278.083C492.116 277.507 492.714 276.968 493.303 276.421C493.901 275.882 494.499 275.343 495.094 274.798C495.698 274.262 496.279 273.7 496.853 273.137C497.424 272.568 497.97 271.975 498.491 271.358C499.312 270.353 501.033 271.686 500.17 272.754Z" fill="#CACEDB"/>
<path d="M487.39 285.227C486.746 285.797 486.1 286.373 485.45 286.944C484.808 287.505 484.108 288.073 483.385 288.559C482.102 289.418 480.735 290.294 479.508 291.216C478.965 291.623 478.388 291.37 478.088 290.919C477.783 290.465 477.749 289.831 478.261 289.438C479.528 288.485 480.838 287.582 482.134 286.629C482.783 286.151 483.421 285.665 484.07 285.156C484.715 284.648 485.347 284.127 485.964 283.59C486.956 282.714 488.393 284.346 487.39 285.227Z" fill="#CACEDB"/>
<path d="M472.885 295.644C471.483 296.451 470.186 297.539 468.69 298.426C467.35 299.221 465.938 300.059 464.601 300.846C464.006 301.199 463.459 300.875 463.217 300.389C462.97 299.905 463.005 299.265 463.545 298.948C464.207 298.547 464.861 298.151 465.521 297.735C466.191 297.3 466.864 296.871 467.538 296.434C468.903 295.541 470.313 294.617 471.789 293.764C472.405 293.414 472.943 293.747 473.2 294.226C473.331 294.468 473.384 294.742 473.327 295.005C473.289 295.266 473.151 295.489 472.885 295.644Z" fill="#CACEDB"/>
<path d="M457.341 304.338C456.528 304.623 455.712 304.917 454.899 305.203C454.083 305.483 453.264 305.748 452.422 305.943C450.948 306.295 449.396 306.7 447.985 307.248C446.742 307.729 446.033 305.677 447.263 305.197C448.772 304.611 450.337 304.144 451.91 303.699C453.482 303.247 455.081 302.813 456.617 302.28C457.855 301.852 458.614 303.89 457.341 304.338Z" fill="#CACEDB"/>
<path d="M440.581 310.1C440.156 310.23 439.758 310.354 439.364 310.488L438.172 310.899C437.373 311.178 436.567 311.453 435.743 311.671C434.286 312.057 432.75 312.529 431.331 313.099C430.704 313.351 430.205 312.953 430.033 312.437C429.863 311.922 429.982 311.3 430.583 311.055C432.062 310.46 433.596 309.934 435.17 309.439C435.953 309.192 436.753 308.95 437.552 308.722L439.944 308.023C441.198 307.635 441.865 309.702 440.581 310.1Z" fill="#CACEDB"/>
<path d="M423.587 315.409C421.854 315.689 420.141 315.986 418.432 316.059C416.923 316.114 415.327 316.228 413.844 316.516C412.543 316.774 412.194 314.632 413.494 314.374C415.094 314.062 416.724 313.895 418.36 313.761C419.998 313.621 421.634 313.524 423.236 313.267C423.885 313.163 424.298 313.635 424.393 314.171C424.494 314.706 424.252 315.303 423.587 315.409Z" fill="#CACEDB"/>
<path d="M406.136 318.178C404.431 318.464 402.726 318.824 400.999 318.91C399.482 318.984 397.875 319.089 396.386 319.352C395.728 319.473 395.323 318.982 395.253 318.446C395.179 317.905 395.429 317.322 396.079 317.2C399.257 316.643 402.552 316.578 405.782 316.038C407.084 315.817 407.445 317.959 406.136 318.178Z" fill="#CACEDB"/>
<path d="M388.549 320.661C387.683 320.747 386.813 320.827 385.939 320.897C385.069 320.966 384.196 320.975 383.323 320.941C382.555 320.908 381.768 320.848 380.987 320.835C380.2 320.823 379.419 320.798 378.657 320.836C377.309 320.895 377.336 318.721 378.637 318.666C379.436 318.627 380.24 318.636 381.043 318.632C381.847 318.628 382.657 318.663 383.466 318.657C384.278 318.656 385.089 318.678 385.902 318.644C386.713 318.618 387.528 318.59 388.336 318.51C389.65 318.362 389.885 320.52 388.549 320.661Z" fill="#CACEDB"/>
<path d="M370.73 321.055C369.002 320.995 367.26 321.004 365.554 320.761C364.056 320.547 362.466 320.361 360.965 320.383C359.647 320.403 359.664 318.233 361.004 318.208C364.274 318.157 367.534 318.771 370.801 318.882C372.122 318.928 372.063 321.101 370.73 321.055Z" fill="#CACEDB"/>
<path d="M353.028 320.489C351.292 320.39 349.535 320.332 347.825 319.981C346.325 319.67 344.747 319.349 343.225 319.189C341.889 319.04 342.225 316.893 343.523 317.037C346.705 317.369 349.896 318.136 353.151 318.32C354.464 318.388 354.374 320.559 353.028 320.489Z" fill="#CACEDB"/>
<path d="M335.412 318.47C333.709 318.292 331.977 318.21 330.276 317.853C328.78 317.539 327.203 317.232 325.679 317.067C325.011 316.997 324.757 316.417 324.84 315.882C324.924 315.348 325.329 314.85 325.979 314.92C329.15 315.252 332.362 315.964 335.637 316.31C336.972 316.454 336.719 318.609 335.412 318.47Z" fill="#CACEDB"/>
<path d="M317.747 315.723C316.064 315.222 314.369 314.721 312.804 313.969C311.429 313.311 309.979 312.628 308.541 312.174C307.281 311.777 307.986 309.724 309.267 310.123C310.825 310.621 312.322 311.265 313.822 311.903C315.317 312.544 316.821 313.174 318.368 313.639C318.995 313.83 319.161 314.435 319.016 314.958C318.871 315.481 318.395 315.922 317.747 315.723Z" fill="#CACEDB"/>
<path d="M300.971 310.037C299.33 309.496 297.644 309.014 296.078 308.27C294.698 307.614 293.237 306.944 291.796 306.448C290.53 306.003 291.333 303.987 292.567 304.417C295.603 305.459 298.537 306.953 301.645 307.97C302.902 308.386 302.235 310.451 300.971 310.037Z" fill="#CACEDB"/>
<path d="M284.316 303.674C282.737 302.929 281.135 302.201 279.688 301.234C278.418 300.387 277.073 299.51 275.72 298.835C274.529 298.249 275.555 296.332 276.746 296.919C279.653 298.359 282.306 300.316 285.242 301.705C285.835 301.987 285.909 302.615 285.682 303.111C285.457 303.608 284.921 303.968 284.316 303.674Z" fill="#CACEDB"/>
<path d="M268.577 295.487C267.787 295.084 267.013 294.654 266.247 294.201C265.864 293.979 265.502 293.726 265.137 293.481C264.774 293.229 264.412 292.978 264.079 292.686C263.481 292.19 262.872 291.683 262.261 291.175C261.645 290.678 261.034 290.183 260.411 289.731C259.861 289.341 259.942 288.704 260.28 288.284C260.623 287.857 261.216 287.645 261.745 288.022C262.069 288.257 262.387 288.495 262.702 288.74L263.652 289.468C264.276 289.968 264.918 290.441 265.553 290.936C266.199 291.406 266.844 291.889 267.519 292.332C268.193 292.77 268.876 293.204 269.59 293.566C270.731 294.165 269.796 296.126 268.577 295.487Z" fill="#CACEDB"/>
<path d="M254.154 284.737C253.536 284.118 252.888 283.524 252.282 282.891C251.672 282.262 251.088 281.612 250.564 280.912C249.645 279.689 248.667 278.402 247.628 277.295C246.716 276.315 248.36 274.895 249.258 275.86C250.36 277.032 251.376 278.3 252.414 279.549C252.926 280.18 253.452 280.798 253.992 281.41C254.526 282.022 255.088 282.605 255.664 283.178C256.615 284.079 255.139 285.668 254.154 284.737Z" fill="#CACEDB"/>
<path d="M242.348 271.3C241.836 270.588 241.266 269.906 240.809 269.155C240.331 268.413 239.874 267.662 239.475 266.88C239.107 266.207 238.813 265.464 238.45 264.764C238.1 264.055 237.724 263.366 237.322 262.71C236.671 261.521 238.608 260.545 239.231 261.68C239.651 262.359 240.044 263.056 240.418 263.765C240.792 264.473 241.139 265.2 241.554 265.893L242.749 268.004L243.056 268.531L243.393 269.036C243.624 269.368 243.854 269.699 244.095 270.026C244.87 271.076 243.153 272.396 242.348 271.3Z" fill="#CACEDB"/>
<path d="M233.606 255.615C233.298 254.794 232.991 253.964 232.68 253.139C232.529 252.723 232.386 252.309 232.252 251.892C232.133 251.466 232.044 251.038 231.959 250.606C231.818 249.848 231.661 249.071 231.477 248.303C231.3 247.533 231.168 246.756 230.957 246.02C230.599 244.714 232.726 244.267 233.068 245.515C233.172 245.899 233.27 246.286 233.36 246.677C233.45 247.069 233.532 247.458 233.642 247.845C233.848 248.62 234.031 249.401 234.217 250.186C234.313 250.58 234.381 250.977 234.504 251.364L234.854 252.52C235.095 253.29 235.341 254.063 235.622 254.819C236.136 256.004 234.146 256.866 233.606 255.615Z" fill="#CACEDB"/>
<path d="M229.198 238.189L229.031 236.876L228.948 236.221L228.909 235.566C228.859 234.685 228.84 233.803 228.879 232.928C228.891 232.157 228.999 231.369 229.043 230.577C229.091 229.79 229.113 229.002 229.091 228.237C229.103 227.562 229.658 227.253 230.199 227.277C230.742 227.303 231.271 227.654 231.266 228.303C231.292 229.103 231.287 229.9 231.252 230.7L231.196 231.903C231.168 232.305 231.189 232.708 231.178 233.108L231.172 235.529C231.164 235.933 231.197 236.336 231.23 236.737C231.263 237.14 231.303 237.544 231.353 237.944C231.507 239.231 229.359 239.54 229.198 238.189Z" fill="#CACEDB"/>
<path d="M229.424 220.225C229.546 219.355 229.7 218.489 229.853 217.622C230.015 216.759 230.179 215.887 230.461 215.066C230.935 213.61 231.431 212.076 231.764 210.583C232.063 209.266 234.156 209.86 233.864 211.13C233.517 212.692 233.07 214.239 232.633 215.803C232.405 216.584 232.241 217.371 232.052 218.157C231.877 218.947 231.688 219.733 231.575 220.537C231.425 221.832 229.267 221.579 229.424 220.225Z" fill="#CACEDB"/>
<path d="M233.872 202.837C234.521 201.194 235.197 199.531 236.179 198.056C236.615 197.416 237.064 196.755 237.508 196.097C237.955 195.451 238.38 194.79 238.768 194.13C239.106 193.552 239.738 193.562 240.195 193.851C240.652 194.147 240.935 194.723 240.606 195.285C240.203 195.978 239.776 196.658 239.343 197.328L238.705 198.331L238.079 199.346C237.672 200.029 237.27 200.725 236.898 201.44C236.529 202.151 236.188 202.88 235.892 203.627C235.648 204.232 235.039 204.352 234.523 204.16C234.016 203.988 233.617 203.471 233.872 202.837Z" fill="#CACEDB"/>
<path d="M242.993 187.369C244.039 185.972 245.068 184.542 246.303 183.321C247.391 182.248 248.525 181.109 249.474 179.921C250.308 178.879 251.945 180.303 251.123 181.333C249.108 183.853 246.685 186.068 244.735 188.67C243.95 189.724 242.187 188.45 242.993 187.369Z" fill="#CACEDB"/>
<path d="M254.414 173.712C255.603 172.426 256.794 171.098 258.221 170.049C258.848 169.593 259.489 169.125 260.136 168.658C260.769 168.188 261.421 167.719 262 167.239C263.032 166.391 264.344 168.129 263.325 168.964C262.693 169.484 262.076 169.952 261.446 170.44C260.818 170.921 260.19 171.414 259.565 171.912C258.323 172.922 257.11 173.991 256.013 175.179C255.132 176.153 253.499 174.714 254.414 173.712Z" fill="#CACEDB"/>
<path d="M268.204 162.269C269.653 161.29 271.107 160.27 272.713 159.561C273.414 159.247 274.138 158.919 274.86 158.599C275.593 158.263 276.318 157.924 277.03 157.596C277.66 157.312 278.172 157.69 278.358 158.199C278.552 158.71 278.45 159.341 277.881 159.601C277.18 159.927 276.527 160.249 275.791 160.613C275.073 160.967 274.351 161.323 273.634 161.677C272.195 162.4 270.768 163.171 269.424 164.08C268.344 164.809 267.087 163.031 268.204 162.269Z" fill="#CACEDB"/>
<path d="M284.596 154.904C285.428 154.689 286.246 154.449 287.051 154.217C287.867 153.984 288.646 153.753 289.473 153.552C290.947 153.188 292.506 152.773 293.933 152.243C295.197 151.782 295.841 153.861 294.623 154.304C293.123 154.861 291.571 155.326 290 155.79C288.367 156.267 286.728 156.599 285.14 157.004C283.849 157.342 283.313 155.232 284.596 154.904Z" fill="#CACEDB"/>
<path d="M301.927 150.417C303.713 150.422 305.431 150.463 307.075 150.614C307.799 150.682 308.543 150.702 309.272 150.663C310.065 150.626 310.851 150.552 311.617 150.45C312.975 150.316 313.081 152.486 311.805 152.613C311.017 152.72 310.249 152.805 309.431 152.865C308.559 152.953 307.693 152.94 306.845 152.906C305.147 152.824 303.519 152.596 301.92 152.595C301.278 152.59 300.942 152.065 300.92 151.517C300.902 150.978 301.236 150.413 301.927 150.417Z" fill="#CACEDB"/>
<path d="M319.642 150.016C320.52 150.049 321.397 150.13 322.276 150.198C323.149 150.283 324.019 150.423 324.871 150.609C325.617 150.795 326.386 150.974 327.152 151.138C327.918 151.313 328.689 151.448 329.442 151.551C330.769 151.741 330.375 153.874 329.079 153.694C328.278 153.585 327.489 153.459 326.694 153.299C325.898 153.163 325.11 152.993 324.315 152.844C323.52 152.709 322.727 152.541 321.923 152.435C321.122 152.326 320.321 152.212 319.511 152.182C318.222 152.113 318.282 149.942 319.642 150.016Z" fill="#CACEDB"/>
<path d="M337.288 152.679C338.984 153.025 340.695 153.304 342.336 153.82C343.061 154.046 343.798 154.262 344.554 154.466C345.313 154.677 346.079 154.851 346.833 154.99C348.156 155.256 347.636 157.368 346.359 157.109C345.572 156.964 344.793 156.801 344.013 156.608C343.222 156.421 342.419 156.222 341.628 156.01C340.039 155.583 338.46 155.14 336.859 154.813C335.558 154.541 335.984 152.414 337.288 152.679Z" fill="#CACEDB"/>
<path d="M354.622 156.745C355.452 157.01 356.295 157.263 357.116 157.57C357.529 157.716 357.939 157.871 358.342 158.033C358.743 158.205 359.139 158.391 359.528 158.586C359.873 158.754 360.22 158.928 360.569 159.107C360.919 159.286 361.268 159.464 361.625 159.632C361.976 159.804 362.336 159.965 362.693 160.121C363.047 160.286 363.401 160.437 363.755 160.576C365.009 161.069 364.112 163.048 362.899 162.572C362.156 162.274 361.415 161.956 360.677 161.631C359.942 161.298 359.206 160.966 358.468 160.629C357.732 160.284 356.992 159.966 356.238 159.656C355.489 159.336 354.725 159.068 353.955 158.814C352.718 158.412 353.333 156.331 354.622 156.745Z" fill="#CACEDB"/>
<path d="M371.108 163.638C371.885 164.028 372.664 164.432 373.431 164.84C374.198 165.255 374.947 165.71 375.658 166.203C376.28 166.649 376.919 167.104 377.574 167.533C378.228 167.969 378.885 168.391 379.553 168.759C380.716 169.408 379.589 171.263 378.434 170.615C377.026 169.833 375.674 168.941 374.313 168.06C373.625 167.629 372.946 167.176 372.249 166.761C371.546 166.351 370.852 165.93 370.121 165.57C368.952 164.979 369.907 163.032 371.108 163.638Z" fill="#CACEDB"/>
<path d="M386.49 172.566C387.961 173.471 389.481 174.326 390.841 175.399C392.035 176.341 393.312 177.313 394.612 178.091C395.756 178.774 394.576 180.596 393.444 179.919C390.66 178.261 388.139 176.132 385.355 174.413C384.225 173.717 385.357 171.864 386.49 172.566Z" fill="#CACEDB"/>
<path d="M401.434 182.115C402.874 183.079 404.367 184.016 405.665 185.187C406.231 185.705 406.818 186.23 407.412 186.752C408.007 187.266 408.606 187.78 409.214 188.246C410.281 189.085 408.846 190.717 407.83 189.919C407.195 189.435 406.581 188.931 405.964 188.421C405.345 187.907 404.725 187.391 404.105 186.876C402.858 185.845 401.583 184.827 400.227 183.92C399.126 183.195 400.318 181.374 401.434 182.115Z" fill="#CACEDB"/>
<path d="M415.258 193.617L416.097 194.575L416.952 195.516C417.524 196.143 418.091 196.783 418.615 197.457C419.539 198.641 420.576 199.854 421.692 200.872C422.673 201.77 421.161 203.324 420.18 202.427C418.979 201.329 417.866 200.111 416.791 198.85C416.254 198.219 415.724 197.579 415.194 196.938C414.664 196.298 414.141 195.647 413.601 195.024C412.755 194.065 414.337 192.574 415.258 193.617Z" fill="#CACEDB"/>
<path d="M427.557 206.238C428.156 206.881 428.76 207.521 429.339 208.197C429.919 208.874 430.452 209.58 430.919 210.328C431.737 211.639 432.562 213.027 433.477 214.241C434.28 215.309 432.495 216.547 431.705 215.491C430.732 214.203 429.867 212.847 428.956 211.52C428.504 210.852 428.039 210.204 427.547 209.568C427.052 208.934 426.532 208.312 425.978 207.721C425.076 206.772 426.625 205.255 427.557 206.238Z" fill="#CACEDB"/>
<path d="M438.331 220.4C438.846 221.074 439.4 221.738 439.931 222.415C440.467 223.09 440.982 223.787 441.447 224.516C442.262 225.799 443.146 227.146 444.108 228.33C444.534 228.851 444.299 229.438 443.865 229.759C443.427 230.08 442.791 230.147 442.377 229.638C441.366 228.393 440.43 227.067 439.493 225.724L438.078 223.712C437.599 223.039 437.111 222.384 436.608 221.724C436.193 221.191 436.436 220.592 436.866 220.267C437.305 219.946 437.933 219.889 438.331 220.4Z" fill="#CACEDB"/>
<path d="M448.918 234.759C449.358 235.513 449.801 236.247 450.237 237.004C450.665 237.758 451.071 238.529 451.416 239.326C452.022 240.729 452.672 242.207 453.413 243.539C454.066 244.721 452.118 245.678 451.488 244.54C450.702 243.145 450.004 241.684 449.298 240.217C448.941 239.482 448.585 238.747 448.218 238.016C447.847 237.288 447.463 236.561 447.05 235.861C446.383 234.748 448.209 233.576 448.918 234.759Z" fill="#CACEDB"/>
<path d="M457.055 250.685C457.364 251.507 457.673 252.377 457.928 253.202C458.18 254.021 458.422 254.845 458.602 255.689C458.918 257.166 459.302 258.724 459.827 260.149C460.289 261.403 458.227 262.075 457.768 260.838C457.203 259.322 456.765 257.742 456.346 256.152L455.732 253.756C455.524 252.963 455.305 252.208 455.019 251.455C454.79 250.851 455.165 250.345 455.67 250.142C456.179 249.932 456.814 250.046 457.055 250.685Z" fill="#CACEDB"/>
<path d="M462.529 267.624C462.979 269.216 463.66 270.801 464.025 272.53C464.35 274.045 464.671 275.673 464.917 277.252C465.027 277.947 464.515 278.331 463.974 278.368C463.433 278.404 462.862 278.13 462.763 277.527C462.644 276.788 462.5 276.049 462.332 275.285C462.166 274.526 461.977 273.76 461.775 272.977C461.366 271.418 460.897 269.824 460.438 268.205C460.257 267.559 460.693 267.102 461.211 266.948C461.733 266.799 462.352 266.988 462.529 267.624Z" fill="#CACEDB"/>
<path d="M465.432 285.207C465.458 286.006 465.538 286.907 465.58 287.773C465.629 288.641 465.627 289.515 465.571 290.382C465.517 291.142 465.457 291.929 465.427 292.715C465.39 293.496 465.368 294.283 465.399 295.044C465.417 295.718 464.876 296.043 464.335 296.031C463.788 296.02 463.249 295.686 463.228 295.031C463.194 294.231 463.207 293.423 463.219 292.616C463.224 291.808 463.266 290.998 463.276 290.187C463.291 289.373 463.325 288.56 463.316 287.747C463.315 286.927 463.288 286.129 463.257 285.272C463.238 284.584 463.786 284.249 464.325 284.245C464.875 284.248 465.412 284.577 465.432 285.207Z" fill="#CACEDB"/>
<path d="M465.393 303.041L465.276 304.351L465.111 305.666C465.003 306.54 464.825 307.407 464.592 308.252C464.401 308.996 464.14 309.751 463.941 310.517C463.747 311.282 463.506 312.039 463.361 312.79C463.227 313.455 462.597 313.63 462.085 313.485C461.554 313.337 461.136 312.879 461.261 312.243C461.411 311.465 461.642 310.7 461.817 309.921C461.997 309.146 462.219 308.373 462.391 307.59L462.664 306.417C462.752 306.022 462.819 305.623 462.895 305.228C462.966 304.827 463.037 304.435 463.102 304.033C463.154 303.63 463.197 303.232 463.237 302.829C463.357 301.532 465.523 301.682 465.393 303.041Z" fill="#CACEDB"/>
<path d="M461.116 320.523C460.758 321.327 460.412 322.169 460.059 322.922C459.708 323.693 459.344 324.463 458.935 325.214C458.211 326.531 457.498 327.966 456.968 329.395C456.496 330.652 454.497 329.795 454.958 328.568C455.519 327.063 456.196 325.571 456.928 324.091C457.294 323.349 457.672 322.608 458.058 321.87C458.457 321.123 458.784 320.414 459.116 319.678C459.385 319.085 459.997 318.983 460.501 319.187C461.01 319.377 461.399 319.898 461.116 320.523Z" fill="#CACEDB"/>
<path d="M453.4 336.664C452.399 338.099 451.445 339.521 450.406 340.822C450.181 341.103 449.943 341.409 449.706 341.728C449.474 342.042 449.241 342.359 449.001 342.672C448.539 343.308 448.084 343.946 447.683 344.595C446.958 345.729 445.186 344.472 445.886 343.376C446.309 342.698 446.759 342.037 447.214 341.375C447.673 340.708 448.121 340.068 448.624 339.368C449.621 338.009 450.693 336.747 451.62 335.418C452.365 334.348 454.177 335.548 453.4 336.664Z" fill="#CACEDB"/>
<path d="M443.241 351.223C442.154 352.585 441.076 353.98 439.79 355.159C438.658 356.193 437.474 357.284 436.455 358.419C435.55 359.417 434.01 357.883 434.889 356.917C435.956 355.719 437.11 354.594 438.259 353.448C438.834 352.877 439.397 352.294 439.955 351.7C440.51 351.11 441.045 350.498 441.551 349.864C442.361 348.834 444.081 350.166 443.241 351.223Z" fill="#CACEDB"/>
<path d="M430.974 364.204C429.678 365.364 428.392 366.568 426.945 367.529C425.674 368.376 424.344 369.276 423.187 370.261C422.17 371.125 420.827 369.409 421.837 368.555C424.291 366.464 427.102 364.752 429.525 362.585C430.497 361.707 431.978 363.303 430.974 364.204Z" fill="#CACEDB"/>
<path d="M417.16 375.39C415.775 376.436 414.41 377.533 412.893 378.38C411.567 379.132 410.165 379.928 408.928 380.819C407.838 381.597 406.655 379.774 407.722 379.007C410.331 377.134 413.246 375.614 415.853 373.649C416.901 372.861 418.226 374.586 417.16 375.39Z" fill="#CACEDB"/>
<path d="M402.364 385.334C401.601 385.767 400.843 386.209 400.064 386.613C399.287 387.016 398.484 387.394 397.675 387.691C396.248 388.217 394.74 388.783 393.396 389.475C392.211 390.08 391.296 388.11 392.467 387.512C393.904 386.772 395.407 386.151 396.909 385.527C397.659 385.212 398.398 384.902 399.132 384.558C399.869 384.218 400.586 383.852 401.291 383.45C401.863 383.126 402.415 383.423 402.692 383.891C402.96 384.358 402.949 384.997 402.364 385.334Z" fill="#CACEDB"/>
<path d="M386.357 393.098C384.78 393.804 383.222 394.582 381.577 395.107C380.134 395.567 378.616 396.09 377.258 396.752C376.065 397.332 375.179 395.345 376.373 394.767C379.295 393.348 382.483 392.459 385.462 391.117C386.672 390.573 387.572 392.551 386.357 393.098Z" fill="#CACEDB"/>
<path d="M370.19 400.295C369.386 400.626 368.59 400.995 367.773 401.308C366.96 401.62 366.142 401.932 365.295 402.143C364.554 402.329 363.797 402.544 363.045 402.756C362.291 402.968 361.554 403.222 360.841 403.487C359.587 403.96 358.903 401.896 360.129 401.43C360.884 401.15 361.64 400.874 362.415 400.633C363.185 400.393 363.96 400.152 364.734 399.911C365.511 399.674 366.283 399.415 367.053 399.164C367.822 398.9 368.577 398.608 369.328 398.297C369.937 398.042 370.451 398.401 370.67 398.9C370.896 399.394 370.811 400.034 370.19 400.295Z" fill="#CACEDB"/>
<path d="M353.423 406.267C351.768 406.774 350.112 407.336 348.409 407.638C346.912 407.897 345.339 408.203 343.896 408.663C342.63 409.062 342.042 406.972 343.306 406.568C346.396 405.587 349.668 405.142 352.787 404.19C354.052 403.802 354.701 405.879 353.423 406.267Z" fill="#CACEDB"/>
<path d="M336.407 411.135C334.745 411.602 333.084 412.143 331.368 412.409C329.864 412.641 328.278 412.91 326.817 413.323C325.531 413.683 325.03 411.569 326.293 411.213C329.395 410.338 332.667 409.929 335.812 409.043C337.091 408.68 337.685 410.772 336.407 411.135Z" fill="#CACEDB"/>
<path d="M319.157 415.415C318.303 415.585 317.447 415.764 316.589 415.914C315.731 416.061 314.86 416.175 313.993 416.223C313.225 416.251 312.441 416.307 311.659 416.35C310.875 416.405 310.096 416.483 309.337 416.587C308.004 416.781 307.808 414.615 309.095 414.425C309.888 414.317 310.686 414.217 311.487 414.147C312.292 414.074 313.096 413.997 313.901 413.924C314.706 413.84 315.517 413.776 316.321 413.667C317.127 413.57 317.932 413.448 318.729 413.286C320.023 413.027 320.48 415.151 319.157 415.415Z" fill="#CACEDB"/>
<path d="M301.468 417.579C299.741 417.692 298.013 417.872 296.295 417.794C294.786 417.729 293.186 417.702 291.685 417.871C290.373 418.024 290.182 415.856 291.514 415.705C294.759 415.341 298.067 415.616 301.326 415.411C302.641 415.324 302.795 417.493 301.468 417.579Z" fill="#CACEDB"/>
<path d="M283.821 418.877C282.078 418.967 280.327 419.091 278.599 418.933C277.084 418.796 275.479 418.667 273.97 418.723C272.643 418.773 272.629 416.6 273.957 416.551C277.202 416.427 280.46 416.88 283.709 416.705C284.364 416.673 284.725 417.19 284.762 417.731C284.799 418.273 284.492 418.841 283.821 418.877Z" fill="#CACEDB"/>
<path d="M266.109 419.188C265.241 419.208 264.371 419.226 263.502 419.246C262.632 419.265 261.764 419.217 260.897 419.123C260.14 419.036 259.363 418.958 258.578 418.903C257.801 418.85 257.018 418.8 256.259 418.807C254.924 418.818 254.996 416.645 256.311 416.632C257.118 416.621 257.926 416.663 258.736 416.694C259.546 416.729 260.354 416.778 261.169 416.835C261.981 416.896 262.794 416.96 263.611 416.981C264.425 417.008 265.24 417.028 266.056 417.012C267.381 416.994 267.451 419.163 266.109 419.188Z" fill="#CACEDB"/>
<path d="M248.341 418.85C247.473 418.8 246.606 418.75 245.742 418.699C244.872 418.644 244.011 418.548 243.16 418.386C242.412 418.245 241.639 418.104 240.868 417.992C240.095 417.888 239.32 417.779 238.565 417.734C237.236 417.648 237.454 415.487 238.769 415.567C239.575 415.617 240.379 415.711 241.186 415.798C241.991 415.892 242.798 416.003 243.605 416.127C244.412 416.25 245.22 416.362 246.03 416.453C246.838 416.544 247.65 416.628 248.464 416.682C249.783 416.759 249.679 418.929 248.341 418.85Z" fill="#CACEDB"/>
<path d="M230.655 417.241C228.941 417.015 227.193 416.892 225.516 416.461C224.037 416.083 222.473 415.743 220.967 415.552C219.645 415.395 219.973 413.245 221.289 413.399C222.893 413.602 224.493 413.892 226.091 414.229C227.686 414.559 229.294 414.864 230.916 415.076C231.568 415.163 231.84 415.731 231.774 416.276C231.712 416.818 231.32 417.327 230.655 417.241Z" fill="#CACEDB"/>
<path d="M213.11 414.663C211.407 414.364 209.674 414.146 208.017 413.65C206.558 413.212 205.011 412.796 203.517 412.555C202.204 412.346 202.617 410.215 203.921 410.422C205.521 410.676 207.107 411.049 208.691 411.452C209.482 411.652 210.28 411.842 211.075 412.027C211.871 412.212 212.671 412.382 213.478 412.518C214.777 412.735 214.426 414.878 213.11 414.663Z" fill="#CACEDB"/>
<path d="M195.695 411.39C194.846 411.22 193.994 411.045 193.145 410.876C192.296 410.694 191.452 410.489 190.635 410.211C189.191 409.731 187.659 409.249 186.171 408.95C184.866 408.693 185.367 406.578 186.66 406.835C188.243 407.153 189.813 407.589 191.377 408.04C192.945 408.497 194.526 408.933 196.124 409.268C197.425 409.515 197.001 411.646 195.695 411.39Z" fill="#CACEDB"/>
<path d="M178.397 407.397C177.559 407.177 176.707 406.978 175.877 406.737C175.042 406.499 174.209 406.24 173.408 405.924C172.702 405.637 171.976 405.336 171.239 405.073C170.504 404.803 169.76 404.573 169.032 404.365C167.742 404.007 168.401 401.936 169.668 402.285C170.444 402.505 171.223 402.729 171.989 402.991C172.758 403.244 173.521 403.532 174.291 403.798L176.603 404.594C177.377 404.858 178.158 405.087 178.947 405.294C180.224 405.626 179.693 407.731 178.397 407.397Z" fill="#CACEDB"/>
<path d="M161.387 402.232C160.568 401.942 159.745 401.655 158.921 401.367C158.105 401.069 157.304 400.715 156.533 400.326C155.853 399.972 155.149 399.641 154.446 399.287C153.742 398.944 153.026 398.626 152.313 398.362C151.06 397.894 151.922 395.896 153.153 396.357C153.905 396.638 154.65 396.953 155.387 397.286C156.121 397.618 156.865 397.953 157.603 398.291C158.345 398.625 159.077 398.984 159.832 399.295C160.582 399.608 161.339 399.91 162.109 400.188C162.728 400.415 162.865 401.034 162.691 401.547C162.507 402.054 162.013 402.46 161.387 402.232Z" fill="#CACEDB"/>
<path d="M144.916 395.427C144.121 395.064 143.349 394.657 142.566 394.269C141.793 393.864 141.016 393.46 140.308 392.954C139.679 392.517 139.029 392.075 138.365 391.655C137.702 391.249 137.02 390.815 136.358 390.433C135.772 390.092 135.78 389.46 136.078 389.007C136.375 388.553 136.948 388.266 137.507 388.59C138.192 388.993 138.876 389.394 139.562 389.794C140.254 390.211 140.939 390.636 141.624 391.074C142.308 391.513 143.016 391.91 143.715 392.329C144.424 392.73 145.124 393.149 145.867 393.483C147.052 394.035 146.131 396.001 144.916 395.427Z" fill="#CACEDB"/>
<path d="M129.616 386.229C128.921 385.746 128.192 385.269 127.519 384.856C126.825 384.434 126.106 384.039 125.391 383.59C124.137 382.809 122.706 382.068 121.297 381.439C120.674 381.16 120.615 380.525 120.87 380.05C121.124 379.57 121.655 379.238 122.241 379.492C123.677 380.126 125.156 380.829 126.625 381.649C127.359 382.062 128.087 382.51 128.804 382.988C129.528 383.479 130.175 383.961 130.86 384.437C131.957 385.212 130.693 386.978 129.616 386.229Z" fill="#CACEDB"/>
<path d="M114.421 377.115C113.088 375.985 111.723 374.854 110.599 373.495C110.107 372.891 109.598 372.27 109.09 371.648C108.548 370.959 108.131 370.286 107.681 369.66C107.291 369.113 107.542 368.555 107.972 368.267C108.408 367.977 109.038 367.969 109.418 368.496C109.881 369.139 110.319 369.791 110.752 370.302C111.263 370.891 111.802 371.489 112.338 372.085C113.422 373.266 114.562 374.427 115.801 375.481C116.813 376.319 115.455 377.984 114.421 377.115Z" fill="#CACEDB"/>
<path d="M54.5643 400.683L55.7274 381.115L51.5405 378.106C50.7239 377.519 50.5711 376.328 51.1958 375.456L53.8926 371.703C54.476 370.894 55.5272 370.64 56.327 371.074L56.8731 361.893L53.5976 359.54C52.7252 358.914 52.5226 357.687 53.1526 356.811L55.8483 353.058C56.2281 352.526 56.8363 352.246 57.4528 352.251L58.0381 342.423C51.8577 337.98 47.4955 334.845 47.3471 334.737C40.9932 330.169 32.8683 319.436 35.7268 315.459C38.5822 311.476 51.3392 315.755 57.6943 320.322C57.8421 320.433 62.2013 323.562 68.3842 328.009L77.5049 324.312C77.3066 323.73 77.3732 323.068 77.759 322.533L80.4546 318.78C81.0786 317.907 82.3046 317.705 83.18 318.337L86.4543 320.691L94.9701 317.242C94.3031 316.622 94.208 315.544 94.7842 314.732L97.4798 310.98C98.1051 310.106 99.2883 309.87 100.099 310.46L104.286 313.469L122.438 306.115C124.435 305.305 126.718 305.667 128.371 307.051L128.685 307.316C131.602 309.767 131.432 314.31 128.338 316.525L116.977 324.653C118.368 326.473 119.082 328.135 118.329 329.202C117.334 330.615 114.643 329.896 111.672 328.451L102.448 335.052C103.178 336.303 103.426 337.39 102.89 338.149C102.134 339.22 100.321 339.006 98.113 338.151L90.2832 343.751C101.594 351.882 111.561 359.045 111.786 359.207C114.071 360.853 116.708 363.38 119.013 366.132L138.713 358.682C139.502 358.385 140.383 358.458 141.109 358.881C142.883 359.908 142.996 362.431 141.323 363.611L124.926 375.148C129.702 379.395 134.969 384.617 133.666 385.965C132.386 387.29 126.046 384.1 120.717 381.034L115.044 400.239C114.461 402.206 112.04 402.907 110.498 401.552C109.864 400.995 109.515 400.181 109.548 399.34L110.304 378.274C106.968 376.966 103.723 375.274 101.44 373.632C101.215 373.471 91.2485 366.308 79.9366 358.175L77.1379 367.386C78.6513 369.206 79.4346 370.863 78.6623 371.915C78.1147 372.662 77.0044 372.774 75.5875 372.481L72.2889 383.34C74.6107 385.695 76.145 388.013 75.1303 389.412C74.361 390.47 72.564 390.322 70.3908 389.585L66.3274 402.957C65.2178 406.603 60.9691 408.218 57.7218 406.23L57.372 406.015C55.5022 404.882 54.4339 402.837 54.5643 400.683Z" fill="#CACEDB"/>
<path d="M575.581 66.856C571.392 58.6508 574.64 48.6075 582.835 44.4228C591.03 40.2382 601.07 43.4963 605.26 51.7015C605.26 51.7015 605.795 52.3754 606.347 54.3724C606.685 55.4675 606.911 56.5839 607.019 57.6989C607.766 62.9318 607.969 72.3394 605.426 88.666C590.71 81.1521 583.209 75.4708 579.408 71.7972C578.568 71.0559 577.794 70.2256 577.107 69.3026C575.811 67.6795 575.581 66.856 575.581 66.856ZM595.026 68.286C599.997 65.7479 601.967 59.6568 599.426 54.6806C596.884 49.7033 590.795 47.7271 585.825 50.2653C580.854 52.8035 578.884 58.8946 581.425 63.8719C583.961 68.8505 590.055 70.8242 595.026 68.286Z" fill="#CACEDB"/>
<path d="M605.346 96.6984C606.283 98.5346 608.532 99.264 610.366 98.3274C612.2 97.3909 612.928 95.142 611.99 93.3058C611.052 91.4696 608.804 90.7402 606.97 91.6768C605.136 92.6133 604.408 94.8622 605.346 96.6984Z" fill="#CACEDB"/>
</svg>
